<?xml version="1.0" encoding="utf-8"?>
<!-- Generator: Adobe Illustrator 24.3.0, SVG Export Plug-In . SVG Version: 6.00 Build 0)  -->
<svg version="1.1" id="katman_1" xmlns="http://www.w3.org/2000/svg" xmlns:xlink="http://www.w3.org/1999/xlink" x="0px" y="0px"
	 viewBox="0 0 233 237" style="enable-background:new 0 0 233 237;" xml:space="preserve">
<style type="text/css">
	.st0{fill:#FFFFFF;}
	.st1{fill:#D38010;}
	.st2{fill:#FFD700;}
	.st3{fill:#F6A500;}
	.st4{fill:#C6C6C5;}
	.st5{fill:#6F6F6E;}
	.st6{fill:#FBD72F;}
	.st7{fill:#F8FAFD;}
	.st8{fill:#ADBBE0;}
	.st9{fill:#D5DFF2;}
	.st10{fill:#BAC8E5;}
	.st11{opacity:0.5;}
	.st12{fill:#FFE300;}
	.st13{opacity:0.25;}
	.st14{fill:#8EC26B;}
	.st15{fill:#F6D716;}
	.st16{fill:#7EC4A6;}
	.st17{fill:none;stroke:#7EC4A6;stroke-width:2;stroke-linecap:round;stroke-miterlimit:10;}
	.st18{fill:#DA611E;}
	.st19{fill:#FBCFA8;}
	.st20{fill:#F6AD74;}
	.st21{fill:#C74E1E;}
	.st22{fill:#B2421C;}
	.st23{opacity:0.4;fill:#904B3F;}
	.st24{fill:#2B2523;}
	.st25{opacity:0.4;}
	.st26{fill:#944C17;}
	.st27{fill:#F1C36B;}
	.st28{fill:#E28F5E;}
	.st29{fill:#D66A39;}
	.st30{fill:#F9C292;}
	.st31{fill:#FFF0C1;}
	.st32{fill:#FFFBF2;}
	.st33{fill:#FFF5D9;}
	.st34{fill:#964C30;}
	.st35{fill:#3D1B16;}
	.st36{fill:#FCD9B4;}
	.st37{fill:#E18444;}
	.st38{fill:#F4A264;}
	.st39{fill:#FCDDBD;}
	.st40{fill:#DA5D27;}
	.st41{fill:#E7C400;}
	.st42{fill:#349ED8;}
	.st43{fill:#164290;}
	.st44{opacity:0.4;fill:#8F8E8F;}
	.st45{opacity:0.3;}
	.st46{opacity:0.3;fill:#FFFFFF;}
	.st47{opacity:0.5;fill:#B0AFB2;}
	.st48{fill:#8E3B29;}
	.st49{opacity:0.6;fill:#FCDDBD;}
	.st50{fill:#F5F5F5;}
	.st51{fill:#ECECEC;}
	.st52{clip-path:url(#SVGID_2_);}
	.st53{fill:#79837A;}
	.st54{fill:#95A095;}
	.st55{fill:#DEDDC4;}
	.st56{fill:#3A3F39;}
	.st57{fill:#ADB7AF;}
	.st58{fill:#00944E;}
	.st59{fill:#F4A36E;}
	.st60{fill:#535B54;}
	.st61{clip-path:url(#SVGID_4_);}
	.st62{fill:#EEE7E0;}
	.st63{fill:#5D4B3E;}
	.st64{fill:#C09977;}
	.st65{fill:#EAE0CF;}
	.st66{fill:#E55F3B;}
	.st67{fill:#473C34;}
	.st68{fill:#D9C6A9;}
	.st69{opacity:0.88;fill:#FFFFFF;}
	.st70{opacity:0.2;fill:#FFFFFF;}
	.st71{fill:#B68E6E;}
	.st72{fill:#A67D60;}
	.st73{fill:#E3D1B8;}
	.st74{clip-path:url(#SVGID_6_);}
	.st75{fill-rule:evenodd;clip-rule:evenodd;fill:#FCC444;}
	.st76{fill-rule:evenodd;clip-rule:evenodd;fill:#ECECEC;}
	.st77{fill-rule:evenodd;clip-rule:evenodd;fill:#12100B;}
	.st78{fill-rule:evenodd;clip-rule:evenodd;fill:#12110B;}
	.st79{fill:#EEC600;}
	.st80{fill:#5F348A;}
	.st81{fill:none;stroke:#5F348A;stroke-width:2;stroke-miterlimit:10;}
	.st82{fill:#7C4D99;}
	.st83{fill:none;stroke:#7C4D99;stroke-width:2;stroke-miterlimit:10;}
	.st84{fill:none;stroke:#5F348A;stroke-width:1.5;stroke-linecap:round;stroke-linejoin:round;stroke-miterlimit:10;}
	.st85{opacity:0.2;}
	.st86{opacity:0.6;}
	.st87{fill:#B2D9C5;}
	.st88{fill:#B1B1B1;}
	.st89{opacity:0.6;fill:#B2D9C5;}
	.st90{opacity:0.44;fill:#FFD700;}
	.st91{opacity:0.6;fill:#FFD700;}
	.st92{opacity:0.49;}
	.st93{clip-path:url(#SVGID_8_);}
	.st94{opacity:0.5;fill:#FFD700;}
	.st95{clip-path:url(#SVGID_10_);fill:#FFD700;}
	.st96{clip-path:url(#SVGID_12_);fill:#FFD700;}
	.st97{fill-rule:evenodd;clip-rule:evenodd;fill:#FFD700;}
</style>
<g>
	<path class="st0" d="M222.72,135.72c-7.78,57.53-60.68,97.84-118.2,90.07c-57.51-7.77-97.8-60.68-90.04-118.2
		c7.75-57.48,60.67-97.8,118.18-90.03C190.17,25.32,230.48,78.23,222.72,135.72z"/>
	<path class="st16" d="M202.95,133.06c-6.3,46.58-49.16,79.24-95.75,72.96c-46.58-6.29-79.27-49.17-72.96-95.76
		C40.52,63.68,83.4,31.03,130,37.32C176.59,43.61,209.23,86.46,202.95,133.06z"/>
	<path class="st89" d="M202.95,133.06c-6.31,46.59-49.16,79.24-95.75,72.96c-36.75-4.97-64.8-32.66-71.94-67.01
		c12.32,23.74,35.63,41.31,64.15,45.16c46.58,6.29,89.47-26.38,95.77-72.97c1.32-9.8,0.9-19.45-1-28.64
		C201.99,97.57,205.39,115.04,202.95,133.06z"/>
	<g class="st86">
		<path class="st87" d="M129.77,57.17c-0.16,1.05-1.52,1.96-3.71,2.69c-1.09,0.37-2.41,0.69-3.89,0.97
			c-0.74,0.17-1.54,0.23-2.37,0.41c-0.82,0.23-1.7,0.44-2.59,0.65c-1.79,0.43-3.76,0.65-5.8,1.14c-2.04,0.58-4.19,1.11-6.45,1.63
			c-2.13,0.81-4.45,1.47-6.76,2.32c-1.13,0.5-2.29,0.99-3.47,1.48c-0.59,0.23-1.19,0.47-1.79,0.72l-1.7,0.9
			c-1.18,0.6-2.33,1.17-3.47,1.74c-1.08,0.67-2.16,1.35-3.22,1.97c-0.53,0.32-1.06,0.6-1.6,0.93c-0.5,0.36-1,0.71-1.49,1.05
			c-0.98,0.68-1.97,1.35-2.92,2.01c-3.7,2.79-7.02,5.48-9.78,7.91c-5.59,4.8-9.16,8.11-11.14,7.21c-1.93-0.87-1.59-6.51,2.49-14
			c1.99-3.76,5.04-7.85,9.03-11.95c1-0.99,2.13-1.94,3.25-2.94c0.56-0.49,1.14-0.98,1.72-1.48c0.61-0.47,1.26-0.91,1.88-1.37
			c1.3-0.88,2.62-1.78,3.95-2.7c1.41-0.79,2.89-1.54,4.35-2.31c0.76-0.38,1.48-0.75,2.23-1.11c0.77-0.32,1.54-0.6,2.29-0.89
			c1.52-0.54,3.04-1.08,4.51-1.6c3.03-0.87,6.02-1.38,8.83-1.93c2.82-0.24,5.55-0.36,8.05-0.42c2.5,0.01,4.85,0.41,6.93,0.67
			c1.04,0.17,2.05,0.32,2.95,0.49c0.94,0.19,1.81,0.54,2.6,0.79c1.58,0.57,2.95,1.14,4.02,1.69
			C128.85,54.98,129.92,56.11,129.77,57.17z"/>
	</g>
	<g>
		<path class="st88" d="M132.16,21.27c-3.06-0.42-5.87,1.72-6.26,4.76c-0.41,3.05,1.71,5.86,4.78,6.27
			c3.04,0.41,5.83-1.73,6.26-4.77C137.34,24.47,135.21,21.68,132.16,21.27z"/>
		<path class="st88" d="M106.53,211.03c-3.07-0.42-5.86,1.72-6.28,4.77c-0.4,3.05,1.72,5.86,4.79,6.27
			c3.05,0.41,5.85-1.72,6.26-4.77C111.7,214.24,109.57,211.44,106.53,211.03z"/>
		<path class="st88" d="M24.45,103.33c-3.04-0.42-5.86,1.71-6.25,4.75c-0.42,3.06,1.72,5.86,4.77,6.28
			c3.04,0.42,5.83-1.73,6.25-4.78C29.63,106.54,27.5,103.74,24.45,103.33z"/>
		<path class="st88" d="M214.22,128.97c-3.06-0.41-5.84,1.7-6.26,4.76c-0.42,3.04,1.72,5.86,4.77,6.27c3.05,0.4,5.85-1.74,6.27-4.78
			C219.42,132.18,217.27,129.37,214.22,128.97z"/>
	</g>
	<g>
		<path class="st88" d="M57.19,41.08c-2.46,1.86-2.94,5.37-1.04,7.81c1.86,2.44,5.34,2.91,7.78,1.05c2.46-1.86,2.93-5.36,1.07-7.81
			C63.13,39.68,59.65,39.21,57.19,41.08z"/>
		<path class="st88" d="M173.23,193.4c-2.44,1.85-2.9,5.35-1.03,7.8c1.88,2.44,5.35,2.91,7.79,1.05c2.45-1.86,2.91-5.37,1.05-7.79
			C179.19,192,175.7,191.53,173.23,193.4z"/>
		<path class="st88" d="M39.07,175.27c-2.46,1.84-2.93,5.35-1.05,7.81c1.86,2.43,5.35,2.91,7.78,1.05c2.45-1.87,2.92-5.37,1.07-7.8
			C44.99,173.88,41.51,173.41,39.07,175.27z"/>
		<path class="st88" d="M191.38,59.22c-2.45,1.85-2.93,5.35-1.07,7.8c1.88,2.44,5.38,2.91,7.8,1.05c2.45-1.86,2.91-5.36,1.07-7.8
			C197.32,57.8,193.82,57.33,191.38,59.22z"/>
	</g>
</g>
<g>
	<g>
		<path class="st2" d="M182.24,130.92l-25.56-3.45c-0.65-0.09-1.25,0.37-1.34,1.02c-0.09,0.65,0.37,1.25,1.02,1.34l25.56,3.45
			c0.65,0.09,1.25-0.37,1.34-1.02C183.34,131.61,182.88,131.01,182.24,130.92z"/>
		<path class="st2" d="M188.69,120.45c0.33-2.43-1.38-4.67-3.81-5c-2.43-0.33-4.67,1.38-4.99,3.81c-0.26,1.96,0.01,9.58,1.39,12.66
			c-2.15,2.6-4.43,9.88-4.7,11.84c-0.33,2.43,1.37,4.67,3.8,5c2.43,0.33,4.67-1.38,5-3.81c0.26-1.96-0.01-9.58-1.39-12.66
			C186.14,129.69,188.43,122.41,188.69,120.45z"/>
		<path class="st2" d="M174.84,125.37l-2.48-0.33c-0.42-0.06-0.8,0.23-0.86,0.65l-1.31,9.65c-0.05,0.42,0.24,0.8,0.66,0.86
			l2.48,0.34c0.42,0.06,0.8-0.24,0.86-0.65l1.3-9.65C175.55,125.81,175.26,125.43,174.84,125.37z"/>
		<path class="st2" d="M172.84,121.38l-4.11-0.55c-0.69-0.09-1.33,0.39-1.42,1.08l-2.16,15.97c-0.09,0.69,0.39,1.32,1.08,1.42
			l4.12,0.56c0.69,0.09,1.33-0.39,1.42-1.08l2.16-15.97C174.02,122.11,173.53,121.47,172.84,121.38z"/>
	</g>
	<path class="st2" d="M106.13,76.48l-0.68,5.04l-1.26-0.17l0.68-5.04c0.04-0.26,0.35-0.44,0.69-0.4
		C105.91,75.96,106.16,76.22,106.13,76.48z"/>
	<path class="st2" d="M103.94,76.19l-0.68,5.04l-1.09-0.15l0.68-5.04c0.04-0.26,0.35-0.44,0.69-0.4
		C103.89,75.69,104.14,75.94,103.94,76.19z"/>
	<g>
		<path class="st2" d="M114.54,82.71l-2.82-0.38l1.01-7.47c0.14-1.06-0.6-2.04-1.67-2.19l-2.93-0.4l0.38-2.82l2.93,0.4
			c2.62,0.35,4.46,2.77,4.11,5.39L114.54,82.71z"/>
	</g>
	<path class="st2" d="M121.85,106.4l-27.27-3.68c-1.99-0.27-3.29-2.12-2.75-3.9l2.55-7.67l0.49-1.47l0.32-0.95l1.5-4.51l0.32-0.96
		l0.28-0.83c0.44-1.44,1.96-2.34,3.56-2.12l17.86,2.41c1.28,0.17,2.34,1.01,2.72,2.15c0,0,0.01,0.03,0.02,0.09l0.03,0.11l0.03,0.14
		c0,0,0,0.01,0,0.01l3.88,17.31C126.11,104.66,124.23,106.72,121.85,106.4z"/>
	<g>
		<path class="st2" d="M121.85,106.4l-27.27-3.68c-1.99-0.27-3.29-2.12-2.75-3.9l2.55-7.67c29.75,12.58,27.65-3.32,27.12-5.92
			l3.88,17.31C126.11,104.66,124.23,106.72,121.85,106.4z"/>
	</g>
	<path class="st2" d="M167.93,125.07l-1.28,9.44c-0.29,2.14-1.88,3.87-3.99,4.32c-59.44,12.78-88.08,7.57-101.8-1.3
		c-0.07-0.04-0.15-0.1-0.22-0.15c-0.35-0.22-0.69-0.46-1.02-0.69c-0.5-0.36-0.98-0.72-1.44-1.09c-5.43-4.32-7.89-9.22-8.95-13.25
		c-1.26-4.78-0.58-8.36-0.58-8.36s1.04-13,16.05-18.76c0.54-0.21,1.09-0.4,1.67-0.59c0.38-0.12,0.76-0.24,1.16-0.36
		c0.1-0.03,0.21-0.06,0.31-0.09c15.89-4.43,44.89-1.27,97.74,26.32C167.24,121.39,168.18,123.21,167.93,125.07z"/>
	<path class="st2" d="M67.97,114.97c-1.13,8.36-3.71,16.23-7.33,22.42c-0.35-0.22-0.69-0.46-1.02-0.69
		c-0.5-0.36-0.98-0.72-1.44-1.09c-5.43-4.32-7.89-9.22-8.95-13.25c-1.26-4.78-0.58-8.36-0.58-8.36s1.04-13,16.05-18.76
		c0.54-0.21,1.09-0.4,1.67-0.59c0.38-0.12,0.76-0.24,1.16-0.36C68.79,100.61,68.95,107.71,67.97,114.97z"/>
	<path class="st2" d="M65.45,114.75c-1.12,8.28-3.79,15.59-7.27,20.86C46.32,126.17,48.64,114,48.64,114s1.04-13,16.05-18.76
		C66.07,100.83,66.42,107.59,65.45,114.75z"/>
	<g>
		<path class="st2" d="M166.65,134.52L166.65,134.52c-0.29,2.14-1.88,3.87-3.99,4.32c-59.44,12.78-88.08,7.57-101.8-1.3
			c-0.43-0.27-0.84-0.55-1.24-0.83c-0.5-0.36-0.98-0.72-1.44-1.09c-5.43-4.32-7.89-9.22-8.95-13.25
			C49.22,122.36,84.3,155.54,166.65,134.52z"/>
	</g>
	<g>
		<path class="st2" d="M59.3,107.55c-3.09,2.03-6.16,2.81-6.86,1.75c-0.7-1.06,1.24-3.57,4.33-5.6c3.09-2.03,6.16-2.81,6.86-1.75
			C64.33,103.01,62.39,105.52,59.3,107.55z"/>
	</g>
	<path class="st2" d="M108.88,86.25l-0.52,3.86c-0.1,0.75-0.79,1.28-1.54,1.18l-11.94-1.61l0.32-0.95l1.5-4.51l0.32-0.96l10.69,1.44
		C108.45,84.8,108.98,85.5,108.88,86.25z"/>
	<path class="st2" d="M107.9,86.12l-0.52,3.86c-0.03,0.21-0.22,0.36-0.43,0.33l-11.75-1.59l1.06-3.2l0.29-0.86l0.15-0.45l10.88,1.47
		C107.78,85.71,107.93,85.9,107.9,86.12z"/>
	<path class="st2" d="M104.04,86.13c-0.03,0.24-3.48-0.02-7.7-0.59l-0.09-0.01l0.29-0.86C100.73,85.23,104.08,85.88,104.04,86.13z"
		/>
	<g>
		<path class="st2" d="M167.93,125.07L167.93,125.07C112.55,96.8,82.31,93.44,65.8,97.83c-0.11,0.03-0.22,0.06-0.33,0.09
			c-0.41,0.11-0.81,0.23-1.2,0.35c-0.59,0.18-1.16,0.38-1.72,0.58c-5.26,1.93-8.85,4.7-11.3,7.53c2.19-3.88,6.18-8.35,13.43-11.13
			c0.54-0.21,1.09-0.4,1.67-0.59c0.38-0.12,0.76-0.24,1.16-0.36c0.1-0.03,0.21-0.06,0.31-0.09c15.89-4.43,44.89-1.27,97.74,26.32
			C167.24,121.39,168.18,123.21,167.93,125.07z"/>
	</g>
</g>
</svg>
