<?xml version="1.0" encoding="utf-8"?>
<!-- Generator: Adobe Illustrator 24.3.0, SVG Export Plug-In . SVG Version: 6.00 Build 0)  -->
<svg version="1.1" id="katman_1" xmlns="http://www.w3.org/2000/svg" xmlns:xlink="http://www.w3.org/1999/xlink" x="0px" y="0px"
	 viewBox="0 0 233 237" style="enable-background:new 0 0 233 237;" xml:space="preserve">
<style type="text/css">
	.st0{fill:#FFFFFF;}
	.st1{fill:#D38010;}
	.st2{fill:#FFD700;}
	.st3{fill:#F6A500;}
	.st4{fill:#C6C6C5;}
	.st5{fill:#6F6F6E;}
	.st6{fill:#FBD72F;}
	.st7{fill:#F8FAFD;}
	.st8{fill:#ADBBE0;}
	.st9{fill:#D5DFF2;}
	.st10{fill:#BAC8E5;}
	.st11{opacity:0.5;}
	.st12{fill:#FFE300;}
	.st13{opacity:0.25;}
	.st14{fill:#8EC26B;}
	.st15{fill:#F6D716;}
	.st16{fill:#7EC4A6;}
	.st17{fill:none;stroke:#7EC4A6;stroke-width:2;stroke-linecap:round;stroke-miterlimit:10;}
	.st18{fill:#DA611E;}
	.st19{fill:#FBCFA8;}
	.st20{fill:#F6AD74;}
	.st21{fill:#C74E1E;}
	.st22{fill:#B2421C;}
	.st23{opacity:0.4;fill:#904B3F;}
	.st24{fill:#2B2523;}
	.st25{opacity:0.4;}
	.st26{fill:#944C17;}
	.st27{fill:#F1C36B;}
	.st28{fill:#E28F5E;}
	.st29{fill:#D66A39;}
	.st30{fill:#F9C292;}
	.st31{fill:#FFF0C1;}
	.st32{fill:#FFFBF2;}
	.st33{fill:#FFF5D9;}
	.st34{fill:#964C30;}
	.st35{fill:#3D1B16;}
	.st36{fill:#FCD9B4;}
	.st37{fill:#E18444;}
	.st38{fill:#F4A264;}
	.st39{fill:#FCDDBD;}
	.st40{fill:#DA5D27;}
	.st41{fill:#E7C400;}
	.st42{fill:#349ED8;}
	.st43{fill:#164290;}
	.st44{opacity:0.4;fill:#8F8E8F;}
	.st45{opacity:0.3;}
	.st46{opacity:0.3;fill:#FFFFFF;}
	.st47{opacity:0.5;fill:#B0AFB2;}
	.st48{fill:#8E3B29;}
	.st49{opacity:0.6;fill:#FCDDBD;}
	.st50{fill:#F5F5F5;}
	.st51{fill:#ECECEC;}
	.st52{clip-path:url(#SVGID_2_);}
	.st53{fill:#79837A;}
	.st54{fill:#95A095;}
	.st55{fill:#DEDDC4;}
	.st56{fill:#3A3F39;}
	.st57{fill:#ADB7AF;}
	.st58{fill:#00944E;}
	.st59{fill:#F4A36E;}
	.st60{fill:#535B54;}
	.st61{clip-path:url(#SVGID_4_);}
	.st62{fill:#EEE7E0;}
	.st63{fill:#5D4B3E;}
	.st64{fill:#C09977;}
	.st65{fill:#EAE0CF;}
	.st66{fill:#E55F3B;}
	.st67{fill:#473C34;}
	.st68{fill:#D9C6A9;}
	.st69{opacity:0.88;fill:#FFFFFF;}
	.st70{opacity:0.2;fill:#FFFFFF;}
	.st71{fill:#B68E6E;}
	.st72{fill:#A67D60;}
	.st73{fill:#E3D1B8;}
	.st74{clip-path:url(#SVGID_6_);}
	.st75{fill-rule:evenodd;clip-rule:evenodd;fill:#FCC444;}
	.st76{fill-rule:evenodd;clip-rule:evenodd;fill:#ECECEC;}
	.st77{fill-rule:evenodd;clip-rule:evenodd;fill:#12100B;}
	.st78{fill-rule:evenodd;clip-rule:evenodd;fill:#12110B;}
	.st79{fill:#EEC600;}
	.st80{fill:#5F348A;}
	.st81{fill:none;stroke:#5F348A;stroke-width:2;stroke-miterlimit:10;}
	.st82{fill:#7C4D99;}
	.st83{fill:none;stroke:#7C4D99;stroke-width:2;stroke-miterlimit:10;}
	.st84{fill:none;stroke:#5F348A;stroke-width:1.5;stroke-linecap:round;stroke-linejoin:round;stroke-miterlimit:10;}
	.st85{opacity:0.2;}
	.st86{opacity:0.6;}
	.st87{fill:#B2D9C5;}
	.st88{fill:#B1B1B1;}
	.st89{opacity:0.6;fill:#B2D9C5;}
	.st90{opacity:0.44;fill:#FFD700;}
	.st91{opacity:0.6;fill:#FFD700;}
	.st92{opacity:0.49;}
	.st93{clip-path:url(#SVGID_8_);}
	.st94{opacity:0.5;fill:#FFD700;}
	.st95{clip-path:url(#SVGID_10_);fill:#FFD700;}
	.st96{clip-path:url(#SVGID_12_);fill:#FFD700;}
	.st97{fill-rule:evenodd;clip-rule:evenodd;fill:#FFD700;}
</style>
<g>
	<path class="st0" d="M223.72,134.72c-7.78,57.53-60.68,97.84-118.2,90.07c-57.51-7.77-97.8-60.68-90.04-118.2
		c7.75-57.48,60.67-97.8,118.18-90.03C191.17,24.32,231.48,77.23,223.72,134.72z"/>
	<path class="st16" d="M203.95,132.06c-6.3,46.58-49.16,79.24-95.75,72.96c-46.58-6.29-79.27-49.17-72.96-95.76
		C41.52,62.68,84.4,30.03,131,36.32C177.59,42.61,210.23,85.46,203.95,132.06z"/>
	<path class="st89" d="M203.95,132.06c-6.31,46.59-49.16,79.24-95.75,72.96c-36.75-4.97-64.8-32.66-71.94-67.01
		c12.32,23.74,35.63,41.31,64.15,45.16c46.58,6.29,89.47-26.38,95.77-72.97c1.32-9.8,0.9-19.45-1-28.64
		C202.99,96.57,206.39,114.04,203.95,132.06z"/>
	<g class="st86">
		<path class="st87" d="M130.77,56.17c-0.16,1.05-1.52,1.96-3.71,2.69c-1.09,0.37-2.41,0.69-3.89,0.97
			c-0.74,0.17-1.54,0.23-2.37,0.41c-0.82,0.23-1.7,0.44-2.59,0.65c-1.79,0.43-3.76,0.65-5.8,1.14c-2.04,0.58-4.19,1.11-6.45,1.63
			c-2.13,0.81-4.45,1.47-6.76,2.32c-1.13,0.5-2.29,0.99-3.47,1.48c-0.59,0.23-1.19,0.47-1.79,0.72l-1.7,0.9
			c-1.18,0.6-2.33,1.17-3.47,1.74c-1.08,0.67-2.16,1.35-3.22,1.97c-0.53,0.32-1.06,0.6-1.6,0.93c-0.5,0.36-1,0.71-1.49,1.05
			c-0.98,0.68-1.97,1.35-2.92,2.01c-3.7,2.79-7.02,5.48-9.78,7.91c-5.59,4.8-9.16,8.11-11.14,7.21c-1.93-0.87-1.59-6.51,2.49-14
			c1.99-3.76,5.04-7.85,9.03-11.95c1-0.99,2.13-1.94,3.25-2.94c0.56-0.49,1.14-0.98,1.72-1.48c0.61-0.47,1.26-0.91,1.88-1.37
			c1.3-0.88,2.62-1.78,3.95-2.7c1.41-0.79,2.89-1.54,4.35-2.31c0.76-0.38,1.48-0.75,2.23-1.11c0.77-0.32,1.54-0.6,2.29-0.89
			c1.52-0.54,3.04-1.08,4.51-1.6c3.03-0.87,6.02-1.38,8.83-1.93c2.82-0.24,5.55-0.36,8.05-0.42c2.5,0.01,4.85,0.41,6.93,0.67
			c1.04,0.17,2.05,0.32,2.95,0.49c0.94,0.19,1.81,0.54,2.6,0.79c1.58,0.57,2.95,1.14,4.02,1.69
			C129.85,53.98,130.92,55.11,130.77,56.17z"/>
	</g>
	<g>
		<path class="st88" d="M133.16,20.27c-3.06-0.42-5.87,1.72-6.26,4.76c-0.41,3.05,1.71,5.86,4.78,6.27
			c3.04,0.41,5.83-1.73,6.26-4.77C138.34,23.47,136.21,20.68,133.16,20.27z"/>
		<path class="st88" d="M107.53,210.03c-3.07-0.42-5.86,1.72-6.28,4.77c-0.4,3.05,1.72,5.86,4.79,6.27
			c3.05,0.41,5.85-1.72,6.26-4.77C112.7,213.24,110.57,210.44,107.53,210.03z"/>
		<path class="st88" d="M25.45,102.33c-3.04-0.42-5.86,1.71-6.25,4.75c-0.42,3.06,1.72,5.86,4.77,6.28
			c3.04,0.42,5.83-1.73,6.25-4.78C30.63,105.54,28.5,102.74,25.45,102.33z"/>
		<path class="st88" d="M215.22,127.97c-3.06-0.41-5.84,1.7-6.26,4.76c-0.42,3.04,1.72,5.86,4.77,6.27c3.05,0.4,5.85-1.74,6.27-4.78
			C220.42,131.18,218.27,128.37,215.22,127.97z"/>
	</g>
	<g>
		<path class="st88" d="M58.19,40.08c-2.46,1.86-2.94,5.37-1.04,7.81c1.86,2.44,5.34,2.91,7.78,1.05c2.46-1.86,2.93-5.36,1.07-7.81
			C64.13,38.68,60.65,38.21,58.19,40.08z"/>
		<path class="st88" d="M174.23,192.4c-2.44,1.85-2.9,5.35-1.03,7.8c1.88,2.44,5.35,2.91,7.79,1.05c2.45-1.86,2.91-5.37,1.05-7.79
			C180.19,191,176.7,190.53,174.23,192.4z"/>
		<path class="st88" d="M40.07,174.27c-2.46,1.84-2.93,5.35-1.05,7.81c1.86,2.43,5.35,2.91,7.78,1.05c2.45-1.87,2.92-5.37,1.07-7.8
			C45.99,172.88,42.51,172.41,40.07,174.27z"/>
		<path class="st88" d="M192.38,58.22c-2.45,1.85-2.93,5.35-1.07,7.8c1.88,2.44,5.38,2.91,7.8,1.05c2.45-1.86,2.91-5.36,1.07-7.8
			C198.32,56.8,194.82,56.33,192.38,58.22z"/>
	</g>
</g>
<g>
	<g>
		<path class="st2" d="M152.2,68.69c-3.25-3.95-8.69-4.27-13.32-4.68c-9.76-0.86-19.63-0.15-29.42-0.58c-2.07-0.09-2.05,3.24,0,3.33
			c0,0,0.06,0,0.09,0l2.82,54.88c-0.97,0.17-1.87,1.29-1.31,2.51c5.04,10.89,18.24,19.83,29.86,19.7c5.54-0.06,10.78-3.16,13-8.53
			c2.48-6.01,1.26-13.1,0.78-19.39c-0.69-9.13,0.68-18.35,0.91-27.48C155.75,82.48,156.26,73.63,152.2,68.69z"/>
		<path class="st2" d="M155.17,97.43c-3.8-22.6-26.89-35.28-48.34-35.36c-12.28-0.04-23.38,5.14-30.47,15.24
			c-3.6,5.12-5.82,10.99-7.47,16.98c-0.51,1.84-1.02,3.95-2.26,5.46c-1.27,1.52-3.43,1.15-5.14,0.78c-2.42-0.51-4.12-1.45-5.02,1.45
			c-0.71,2.29-0.66,5-0.55,7.37c0.14,3.19,1.88,6.62,3.35,9.39c2.05,3.84,4.98,7.16,7.96,10.29c14.6,15.03,37.95,17.62,57.25,11.44
			c9.46-3.02,18.57-8.48,24.65-16.46C154.91,116.46,156.74,106.7,155.17,97.43z"/>
		<path class="st2" d="M152.54,96.02c6.74-1.07,13.91-5.24,13.64-12.02c-0.05-1.45,1.96-2.59,3.02-1.37
			c3.79,4.4,5.63,9.29,6.4,15.05c0.85,6.37-0.43,12.07-2.08,18.13c-0.4,1.41-2.37,2.26-3.48,1.03c-2.59-2.85-5.63-4.95-9.16-6.46
			c-1.78-0.76-3.73-1.19-5.61-1.54c-0.69-0.13-1.39-0.2-2.09-0.27C152.27,104.39,151.96,100.25,152.54,96.02z"/>
		<path class="st2" d="M76.36,77.31c-3.6,5.12-5.82,10.99-7.47,16.98c-0.51,1.84-1.02,3.95-2.26,5.46
			c-1.27,1.52-3.43,1.15-5.14,0.78c-2.42-0.51-4.12-1.45-5.02,1.45c-0.71,2.29-0.66,5-0.55,7.37c0.14,3.19,1.88,6.62,3.35,9.39
			c2.05,3.84,4.98,7.16,7.96,10.29c6.66,6.85,15.13,11.11,24.22,13.14c12.07-17.59,4.95-54.4-7.32-72.92
			C81.21,71.45,78.59,74.14,76.36,77.31z"/>
		<g>
			<defs>
				<path id="SVGID_9_" d="M75.15,97.59c0,4.41,2.55,7.98,5.72,7.98c3.15,0,5.72-3.57,5.72-7.98c0-4.41-2.57-7.98-5.72-7.98
					C77.7,89.61,75.15,93.18,75.15,97.59z"/>
			</defs>
			<use xlink:href="#SVGID_9_"  style="overflow:visible;fill:#FFD700;"/>
			<clipPath id="SVGID_2_">
				<use xlink:href="#SVGID_9_"  style="overflow:visible;"/>
			</clipPath>
			<path style="clip-path:url(#SVGID_2_);fill:#FFD700;" d="M75.15,97.59c0,4.41,2.55,7.98,5.72,7.98c3.15,0,5.72-3.57,5.72-7.98
				c0-4.41-2.57-7.98-5.72-7.98C77.7,89.61,75.15,93.18,75.15,97.59z"/>
			<path style="clip-path:url(#SVGID_2_);fill:#FFD700;" d="M72.8,97.59c0,3.92,2.28,7.1,5.09,7.1c2.8,0,5.08-3.18,5.08-7.1
				c0-3.92-2.28-7.1-5.08-7.1C75.09,90.5,72.8,93.68,72.8,97.59z"/>
		</g>
		<g>
			<path class="st2" d="M128.92,73.49c1.43-1.37,2.86-2.73,4.32-4.06c1.23-1.11,3.08-2.07,3.92-3.5c0.17-0.29-0.1-0.57-0.4-0.52
				c-1.5,0.25-2.88,1.74-4,2.72c-1.64,1.42-3.13,2.99-4.64,4.55C127.61,73.21,128.4,74,128.92,73.49L128.92,73.49z"/>
		</g>
		<g>
			<path class="st2" d="M136.18,75.75c3.61-2.9,7.47-5.28,11.24-7.93c0.49-0.35,0.07-1.08-0.48-0.81
				c-4.14,2.02-7.88,5.16-11.42,8.07C135.06,75.47,135.72,76.12,136.18,75.75L136.18,75.75z"/>
		</g>
		<g>
			<path class="st2" d="M140.33,77.95c4.1-1.41,8.21-3.3,11.93-5.5c0.94-0.55,0.11-1.8-0.82-1.4c-3.95,1.67-7.71,3.94-11.54,5.89
				C139.35,77.23,139.74,78.16,140.33,77.95L140.33,77.95z"/>
		</g>
		<g>
			<path class="st2" d="M145.32,82.23c1.49-0.45,3.04-0.75,4.55-1.11c1.12-0.26,2.55-0.46,3.29-1.4c0.16-0.22,0.16-0.67-0.2-0.72
				c-1.16-0.16-2.34,0.43-3.46,0.76c-1.51,0.43-3,0.9-4.45,1.5C144.48,81.51,144.68,82.43,145.32,82.23L145.32,82.23z"/>
		</g>
		<g>
			<path class="st2" d="M131.46,133.47c3.46,2.86,8.15,6.09,12.63,6.97c0.33,0.07,0.66-0.36,0.36-0.63
				c-1.67-1.48-3.86-2.28-5.82-3.29c-2.26-1.15-4.46-2.38-6.5-3.92C131.63,132.22,130.98,133.07,131.46,133.47L131.46,133.47z"/>
		</g>
		<g>
			<path class="st2" d="M136.84,130.09c1.71,1.39,3.51,2.73,5.4,3.88c1.7,1.03,3.6,2.37,5.62,2.59c0.42,0.04,0.61-0.55,0.33-0.82
				c-1.41-1.36-3.52-2.05-5.24-3c-1.89-1.06-3.75-2.15-5.52-3.41C136.98,129,136.4,129.74,136.84,130.09L136.84,130.09z"/>
		</g>
		<g>
			<path class="st2" d="M142.69,128c1.57,0.41,3.08,0.97,4.59,1.58c1.32,0.54,2.77,1.37,4.23,1.19c0.3-0.03,0.5-0.37,0.26-0.61
				c-0.94-0.94-2.33-1.28-3.55-1.74c-1.71-0.64-3.42-1.2-5.2-1.6C142.25,126.66,141.92,127.8,142.69,128L142.69,128z"/>
		</g>
		<g>
			<path class="st2" d="M146.03,123.31c2.04,0.7,4.32,1.77,6.48,1.96c0.55,0.05,0.68-0.72,0.26-0.98c-1.83-1.14-4.38-1.47-6.43-2.11
				C145.62,121.96,145.32,123.07,146.03,123.31L146.03,123.31z"/>
		</g>
		<g>
			<path class="st2" d="M117.94,107.49c3.05-2.84,5.06-6.69,4.91-11.05c-0.17-5.2-3.94-8.73-8.41-10.54c3-3.12,4.61-7.41,3.28-11.8
				c-1.67-5.55-7.18-5.97-11.91-4.47c-0.72,0.23-0.42,1.33,0.31,1.13c4.04-1.17,8.49,0.11,8.92,4.82c0.36,3.87-1.95,7.49-5.08,9.53
				c-1.2,0.79-1.17,2.9,0.42,3.23c4.62,0.98,8.81,3.54,8.89,8.72c0.08,4.66-3.79,8.2-7.6,10.15c-1.67,0.86-0.93,3.68,0.96,3.57
				c4.97-0.32,9.77,1.6,9.65,7.23c-0.11,5.27-5.01,8.65-9.7,9.5c-2.36,0.43-1.36,4,0.99,3.58c6.79-1.21,12.34-6.49,12.5-13.6
				C126.2,112.06,122.5,108.74,117.94,107.49z"/>
			<path class="st2" d="M139.39,92.22c1.8-1.53,2.89-3.73,2.42-6.34c-0.73-3.99-4.32-6.15-8.16-4.81c-1.4,0.49-0.84,2.69,0.62,2.25
				c2.4-0.72,4.38,0.36,4.62,2.95c0.28,3.07-2.22,4.61-4.91,5.08c-1.78,0.31-1.3,3.08,0.42,3.08c3.34,0,7.02,1.15,6.9,5.09
				c-0.12,3.83-4.76,5.1-7.79,5.03c-2.11,0.04-2.11,3.29,0,3.27c3.16,0.03,4.63,2.87,4.14,5.77c-0.65,3.97-3.68,2.32-6.36,2.12
				c-1.5-0.11-1.95,1.75-1.13,2.71c3.76,4.37,9.82,0.69,10.83-3.91c0.64-2.93-0.22-5.87-2.1-7.79c2.83-1.27,4.92-3.66,5.38-7.2
				C144.77,95.86,142.39,93.44,139.39,92.22z"/>
		</g>
		<g>
			<path class="st2" d="M156.84,101.19c4.53-0.67,10.3-2.63,13.11-6.48c0.52-0.7-0.34-1.81-1.15-1.5c-1.93,0.74-3.6,2.13-5.34,3.24
				c-2.16,1.38-4.58,2.48-7.04,3.2C155.4,99.94,155.85,101.34,156.84,101.19L156.84,101.19z"/>
		</g>
		<g>
			<path class="st2" d="M157.96,105.22c1.96,0.24,3.86,0.16,5.82,0.04c1.58-0.1,3.37,0.18,4.73-0.7c0.43-0.28,0.45-0.89,0-1.17
				c-1.41-0.88-3.14-0.46-4.73-0.35c-2.03,0.13-4.02,0.32-6.04,0.6C156.77,103.78,157.15,105.12,157.96,105.22L157.96,105.22z"/>
		</g>
		<path class="st94" d="M175.61,97.69c-0.76-5.76-2.6-10.65-6.4-15.05c-1.06-1.23-3.08-0.08-3.02,1.37
			c0.24,6.03-5.39,9.99-11.38,11.55c-1.69-7.6-5.59-14.01-10.86-19.13c-1.69,9.83-4.32,19.78-9.28,28.49
			c-4.83,8.51-12.53,13.5-21.72,16.66c-17.73,6.11-38.65,3.54-55.01-5.44c0.44,0.92,0.9,1.8,1.33,2.62
			c2.05,3.84,4.98,7.16,7.96,10.29c14.6,15.03,37.95,17.62,57.25,11.44c9.46-3.02,18.57-8.48,24.65-16.46
			c3.42-4.47,5.44-9.71,6.21-15.17c1.86,0.34,3.79,0.79,5.54,1.53c3.54,1.51,6.57,3.61,9.16,6.46c1.11,1.23,3.08,0.38,3.48-1.03
			C175.18,109.75,176.45,104.05,175.61,97.69z"/>
		<g>
			<path class="st2" d="M108.08,133.02c-3.36-5.42-13.51-8.62-18.8-11.93c-0.14,4.12,2.47,11.36,6.39,17.59
				c4.16,6.61,9.78,12.09,15.15,11.5C111.4,145.25,110.72,137.3,108.08,133.02z"/>
			<g>
				<path class="st2" d="M94.19,126.84c1.23,4.47,3.28,8.5,5.76,12.39c2.07,3.25,4.88,7.39,8.35,9.22c0.35,0.18,0.87-0.22,0.59-0.59
					c-2.43-3.23-5.39-5.97-7.69-9.35c-2.52-3.7-4.69-7.7-6.35-11.85C94.7,126.25,94.08,126.4,94.19,126.84L94.19,126.84z"/>
			</g>
			<g>
				<path class="st2" d="M97.48,129.3c2.53,3.97,5.15,9.82,9.52,12.1c0.3,0.16,0.75-0.18,0.51-0.52c-1.5-2.06-3.44-3.8-4.98-5.85
					c-1.5-2.01-2.88-4.11-4.29-6.17C97.92,128.4,97.18,128.82,97.48,129.3L97.48,129.3z"/>
			</g>
		</g>
	</g>
</g>
<g>
	<g>
		<path class="st2" d="M152.48,152.68c-1.77-2.16-4.74-2.33-7.27-2.56c-5.33-0.47-10.72-0.09-16.06-0.32
			c-1.13-0.05-1.12,1.77,0,1.82c0,0,0.03,0,0.05,0l1.54,29.96c-0.53,0.09-1.02,0.7-0.71,1.37c2.75,5.94,9.96,10.82,16.3,10.75
			c3.02-0.03,5.88-1.73,7.1-4.66c1.35-3.28,0.69-7.15,0.42-10.58c-0.38-4.98,0.37-10.02,0.5-15
			C154.42,160.21,154.7,155.38,152.48,152.68z"/>
		<path class="st2" d="M154.1,168.37c-2.08-12.34-14.68-19.26-26.39-19.31c-6.71-0.02-12.76,2.81-16.64,8.32
			c-1.97,2.8-3.18,6-4.08,9.27c-0.28,1.01-0.56,2.15-1.24,2.98c-0.69,0.83-1.87,0.63-2.81,0.43c-1.32-0.28-2.25-0.79-2.74,0.79
			c-0.39,1.25-0.36,2.73-0.3,4.02c0.08,1.74,1.03,3.61,1.83,5.13c1.12,2.1,2.72,3.91,4.35,5.62c7.97,8.21,20.72,9.62,31.25,6.25
			c5.17-1.65,10.14-4.63,13.46-8.99C153.96,178.77,154.96,173.43,154.1,168.37z"/>
		<path class="st2" d="M152.67,167.6c3.68-0.58,7.59-2.86,7.45-6.56c-0.03-0.79,1.07-1.42,1.65-0.75c2.07,2.41,3.08,5.07,3.49,8.22
			c0.46,3.47-0.23,6.59-1.14,9.9c-0.22,0.77-1.29,1.23-1.9,0.56c-1.42-1.56-3.07-2.7-5-3.53c-0.97-0.41-2.04-0.65-3.06-0.84
			c-0.38-0.07-0.76-0.11-1.14-0.15C152.52,172.17,152.35,169.91,152.67,167.6z"/>
		<path class="st2" d="M111.08,157.39c-1.97,2.8-3.18,6-4.08,9.27c-0.28,1.01-0.56,2.15-1.24,2.98c-0.69,0.83-1.87,0.63-2.81,0.43
			c-1.32-0.28-2.25-0.79-2.74,0.79c-0.39,1.25-0.36,2.73-0.3,4.02c0.08,1.74,1.03,3.61,1.83,5.13c1.12,2.1,2.72,3.91,4.35,5.62
			c3.63,3.74,8.26,6.07,13.22,7.17c6.59-9.6,2.7-29.7-3.99-39.81C113.73,154.19,112.29,155.66,111.08,157.39z"/>
		<g>
			<defs>
				<path id="SVGID_11_" d="M110.41,168.46c0,2.41,1.4,4.36,3.12,4.36c1.72,0,3.12-1.95,3.12-4.36c0-2.41-1.4-4.36-3.12-4.36
					C111.81,164.1,110.41,166.05,110.41,168.46z"/>
			</defs>
			<use xlink:href="#SVGID_11_"  style="overflow:visible;fill:#FFD700;"/>
			<clipPath id="SVGID_4_">
				<use xlink:href="#SVGID_11_"  style="overflow:visible;"/>
			</clipPath>
			<path style="clip-path:url(#SVGID_4_);fill:#FFD700;" d="M110.41,168.46c0,2.41,1.4,4.36,3.12,4.36c1.72,0,3.12-1.95,3.12-4.36
				c0-2.41-1.4-4.36-3.12-4.36C111.81,164.1,110.41,166.05,110.41,168.46z"/>
			<path style="clip-path:url(#SVGID_4_);fill:#FFD700;" d="M109.13,168.46c0,2.14,1.25,3.88,2.78,3.88c1.53,0,2.77-1.74,2.77-3.88
				c0-2.14-1.25-3.88-2.77-3.88C110.38,164.59,109.13,166.32,109.13,168.46z"/>
		</g>
		<g>
			<path class="st2" d="M139.77,155.3c0.78-0.75,1.56-1.49,2.36-2.21c0.67-0.61,1.68-1.13,2.14-1.91c0.09-0.16-0.06-0.31-0.22-0.29
				c-0.82,0.13-1.57,0.95-2.18,1.48c-0.89,0.78-1.71,1.63-2.53,2.49C139.06,155.15,139.49,155.58,139.77,155.3L139.77,155.3z"/>
		</g>
		<g>
			<path class="st2" d="M143.74,156.54c1.97-1.58,4.08-2.88,6.14-4.33c0.27-0.19,0.04-0.59-0.26-0.44c-2.26,1.1-4.3,2.81-6.24,4.41
				C143.12,156.39,143.48,156.74,143.74,156.54L143.74,156.54z"/>
		</g>
		<g>
			<path class="st2" d="M146,157.74c2.24-0.77,4.48-1.8,6.51-3c0.51-0.3,0.06-0.98-0.45-0.77c-2.16,0.91-4.21,2.15-6.3,3.21
				C145.47,157.34,145.68,157.85,146,157.74L146,157.74z"/>
		</g>
		<g>
			<path class="st2" d="M148.73,160.08c0.82-0.25,1.66-0.41,2.49-0.61c0.61-0.14,1.39-0.25,1.79-0.76c0.09-0.12,0.09-0.37-0.11-0.39
				c-0.63-0.09-1.28,0.23-1.89,0.41c-0.83,0.24-1.64,0.49-2.43,0.82C148.27,159.68,148.38,160.18,148.73,160.08L148.73,160.08z"/>
		</g>
		<g>
			<path class="st2" d="M141.16,188.05c1.89,1.56,4.45,3.32,6.9,3.8c0.18,0.04,0.36-0.2,0.2-0.34c-0.91-0.81-2.11-1.25-3.18-1.8
				c-1.24-0.63-2.43-1.3-3.55-2.14C141.25,187.37,140.89,187.83,141.16,188.05L141.16,188.05z"/>
		</g>
		<g>
			<path class="st2" d="M144.09,186.21c0.94,0.76,1.92,1.49,2.95,2.12c0.93,0.56,1.97,1.3,3.07,1.41c0.23,0.02,0.33-0.3,0.18-0.45
				c-0.77-0.74-1.92-1.12-2.86-1.64c-1.03-0.58-2.04-1.17-3.01-1.87C144.17,185.61,143.86,186.01,144.09,186.21L144.09,186.21z"/>
		</g>
		<g>
			<path class="st2" d="M147.29,185.06c0.86,0.22,1.68,0.53,2.51,0.86c0.72,0.29,1.51,0.75,2.31,0.65c0.16-0.02,0.27-0.2,0.14-0.33
				c-0.51-0.51-1.27-0.7-1.94-0.95c-0.93-0.35-1.87-0.66-2.84-0.87C147.05,184.33,146.87,184.96,147.29,185.06L147.29,185.06z"/>
		</g>
		<g>
			<path class="st2" d="M149.11,182.51c1.11,0.38,2.36,0.97,3.54,1.07c0.3,0.03,0.37-0.39,0.14-0.53c-1-0.62-2.39-0.8-3.51-1.15
				C148.89,181.77,148.73,182.37,149.11,182.51L149.11,182.51z"/>
		</g>
		<g>
			<path class="st2" d="M133.78,173.87c1.67-1.55,2.76-3.65,2.68-6.03c-0.09-2.84-2.15-4.77-4.59-5.75
				c1.64-1.71,2.52-4.04,1.79-6.44c-0.91-3.03-3.92-3.26-6.5-2.44c-0.39,0.12-0.23,0.73,0.17,0.62c2.21-0.64,4.63,0.06,4.87,2.63
				c0.2,2.11-1.07,4.09-2.77,5.2c-0.65,0.43-0.64,1.58,0.23,1.76c2.52,0.53,4.81,1.93,4.85,4.76c0.05,2.54-2.07,4.48-4.15,5.54
				c-0.91,0.47-0.5,2.01,0.53,1.95c2.71-0.17,5.33,0.87,5.27,3.95c-0.06,2.88-2.73,4.72-5.3,5.19c-1.29,0.23-0.74,2.19,0.54,1.96
				c3.71-0.66,6.74-3.54,6.83-7.43C138.29,176.36,136.26,174.55,133.78,173.87z"/>
			<path class="st2" d="M145.49,165.53c0.98-0.83,1.58-2.04,1.32-3.46c-0.4-2.18-2.36-3.36-4.45-2.63
				c-0.76,0.27-0.46,1.47,0.34,1.23c1.31-0.39,2.39,0.2,2.52,1.61c0.15,1.68-1.21,2.52-2.68,2.77c-0.97,0.17-0.71,1.68,0.23,1.68
				c1.82,0,3.83,0.63,3.77,2.78c-0.07,2.09-2.6,2.79-4.25,2.75c-1.15,0.02-1.15,1.79,0,1.79c1.73,0.01,2.53,1.57,2.26,3.15
				c-0.36,2.17-2.01,1.27-3.47,1.16c-0.82-0.06-1.07,0.96-0.62,1.48c2.05,2.39,5.36,0.38,5.91-2.13c0.35-1.6-0.12-3.2-1.15-4.25
				c1.55-0.7,2.69-2,2.94-3.93C148.42,167.51,147.13,166.2,145.49,165.53z"/>
		</g>
		<g>
			<path class="st2" d="M155.01,170.43c2.47-0.37,5.62-1.43,7.16-3.54c0.28-0.38-0.18-0.99-0.63-0.82
				c-1.06,0.41-1.96,1.16-2.92,1.77c-1.18,0.75-2.5,1.35-3.84,1.75C154.23,169.75,154.47,170.51,155.01,170.43L155.01,170.43z"/>
		</g>
		<g>
			<path class="st2" d="M155.63,172.63c1.07,0.13,2.11,0.09,3.18,0.02c0.86-0.05,1.84,0.1,2.59-0.38c0.24-0.15,0.24-0.49,0-0.64
				c-0.77-0.48-1.71-0.25-2.59-0.19c-1.11,0.07-2.2,0.18-3.29,0.33C154.98,171.84,155.18,172.57,155.63,172.63L155.63,172.63z"/>
		</g>
		<path class="st94" d="M165.26,168.51c-0.42-3.15-1.42-5.81-3.49-8.22c-0.58-0.67-1.68-0.04-1.65,0.75
			c0.13,3.29-2.95,5.45-6.22,6.3c-0.92-4.15-3.05-7.65-5.93-10.44c-0.92,5.37-2.36,10.8-5.06,15.55c-2.63,4.65-6.84,7.37-11.86,9.1
			c-9.68,3.33-21.1,1.93-30.03-2.97c0.24,0.5,0.49,0.98,0.73,1.43c1.12,2.1,2.72,3.91,4.35,5.62c7.97,8.21,20.72,9.62,31.25,6.25
			c5.17-1.65,10.14-4.63,13.46-8.99c1.87-2.44,2.97-5.3,3.39-8.28c1.01,0.19,2.07,0.43,3.02,0.84c1.93,0.82,3.59,1.97,5,3.53
			c0.6,0.67,1.68,0.21,1.9-0.56C165.03,175.1,165.72,171.99,165.26,168.51z"/>
		<g>
			<path class="st2" d="M128.39,187.81c-1.84-2.96-7.38-4.7-10.26-6.51c-0.08,2.25,1.35,6.2,3.49,9.6c2.27,3.61,5.34,6.6,8.27,6.28
				C130.2,194.48,129.84,190.14,128.39,187.81z"/>
			<g>
				<path class="st2" d="M120.81,184.43c0.67,2.44,1.79,4.64,3.15,6.77c1.13,1.78,2.67,4.03,4.56,5.03c0.19,0.1,0.48-0.12,0.32-0.32
					c-1.33-1.77-2.94-3.26-4.2-5.11c-1.37-2.02-2.56-4.2-3.47-6.47C121.09,184.11,120.75,184.19,120.81,184.43L120.81,184.43z"/>
			</g>
			<g>
				<path class="st2" d="M122.61,185.77c1.38,2.17,2.81,5.36,5.2,6.61c0.17,0.08,0.41-0.1,0.28-0.28c-0.82-1.12-1.88-2.07-2.72-3.2
					c-0.82-1.1-1.58-2.24-2.34-3.37C122.85,185.28,122.44,185.51,122.61,185.77L122.61,185.77z"/>
			</g>
		</g>
	</g>
</g>
</svg>
