<?xml version="1.0" encoding="utf-8"?>
<!-- Generator: Adobe Illustrator 24.3.0, SVG Export Plug-In . SVG Version: 6.00 Build 0)  -->
<svg version="1.1" id="katman_1" xmlns="http://www.w3.org/2000/svg" xmlns:xlink="http://www.w3.org/1999/xlink" x="0px" y="0px"
	 viewBox="0 0 233 237" style="enable-background:new 0 0 233 237;" xml:space="preserve">
<style type="text/css">
	.st0{fill:#FFFFFF;}
	.st1{fill:#D38010;}
	.st2{fill:#FFD700;}
	.st3{fill:#F6A500;}
	.st4{fill:#C6C6C5;}
	.st5{fill:#6F6F6E;}
	.st6{fill:#FBD72F;}
	.st7{fill:#F8FAFD;}
	.st8{fill:#ADBBE0;}
	.st9{fill:#D5DFF2;}
	.st10{fill:#BAC8E5;}
	.st11{opacity:0.5;}
	.st12{fill:#FFE300;}
	.st13{opacity:0.25;}
	.st14{fill:#8EC26B;}
	.st15{fill:#F6D716;}
	.st16{fill:#7EC4A6;}
	.st17{fill:none;stroke:#7EC4A6;stroke-width:2;stroke-linecap:round;stroke-miterlimit:10;}
	.st18{fill:#DA611E;}
	.st19{fill:#FBCFA8;}
	.st20{fill:#F6AD74;}
	.st21{fill:#C74E1E;}
	.st22{fill:#B2421C;}
	.st23{opacity:0.4;fill:#904B3F;}
	.st24{fill:#2B2523;}
	.st25{opacity:0.4;}
	.st26{fill:#944C17;}
	.st27{fill:#F1C36B;}
	.st28{fill:#E28F5E;}
	.st29{fill:#D66A39;}
	.st30{fill:#F9C292;}
	.st31{fill:#FFF0C1;}
	.st32{fill:#FFFBF2;}
	.st33{fill:#FFF5D9;}
	.st34{fill:#964C30;}
	.st35{fill:#3D1B16;}
	.st36{fill:#FCD9B4;}
	.st37{fill:#E18444;}
	.st38{fill:#F4A264;}
	.st39{fill:#FCDDBD;}
	.st40{fill:#DA5D27;}
	.st41{fill:#E7C400;}
	.st42{fill:#349ED8;}
	.st43{fill:#164290;}
	.st44{opacity:0.4;fill:#8F8E8F;}
	.st45{opacity:0.3;}
	.st46{opacity:0.3;fill:#FFFFFF;}
	.st47{opacity:0.5;fill:#B0AFB2;}
	.st48{fill:#8E3B29;}
	.st49{opacity:0.6;fill:#FCDDBD;}
	.st50{fill:#F5F5F5;}
	.st51{fill:#ECECEC;}
	.st52{clip-path:url(#SVGID_2_);}
	.st53{fill:#79837A;}
	.st54{fill:#95A095;}
	.st55{fill:#DEDDC4;}
	.st56{fill:#3A3F39;}
	.st57{fill:#ADB7AF;}
	.st58{fill:#00944E;}
	.st59{fill:#F4A36E;}
	.st60{fill:#535B54;}
	.st61{clip-path:url(#SVGID_4_);}
	.st62{fill:#EEE7E0;}
	.st63{fill:#5D4B3E;}
	.st64{fill:#C09977;}
	.st65{fill:#EAE0CF;}
	.st66{fill:#E55F3B;}
	.st67{fill:#473C34;}
	.st68{fill:#D9C6A9;}
	.st69{opacity:0.88;fill:#FFFFFF;}
	.st70{opacity:0.2;fill:#FFFFFF;}
	.st71{fill:#B68E6E;}
	.st72{fill:#A67D60;}
	.st73{fill:#E3D1B8;}
	.st74{clip-path:url(#SVGID_6_);}
	.st75{fill-rule:evenodd;clip-rule:evenodd;fill:#FCC444;}
	.st76{fill-rule:evenodd;clip-rule:evenodd;fill:#ECECEC;}
	.st77{fill-rule:evenodd;clip-rule:evenodd;fill:#12100B;}
	.st78{fill-rule:evenodd;clip-rule:evenodd;fill:#12110B;}
	.st79{fill:#EEC600;}
	.st80{fill:#5F348A;}
	.st81{fill:none;stroke:#5F348A;stroke-width:2;stroke-miterlimit:10;}
	.st82{fill:#7C4D99;}
	.st83{fill:none;stroke:#7C4D99;stroke-width:2;stroke-miterlimit:10;}
	.st84{fill:none;stroke:#5F348A;stroke-width:1.5;stroke-linecap:round;stroke-linejoin:round;stroke-miterlimit:10;}
	.st85{opacity:0.2;}
	.st86{opacity:0.6;}
	.st87{fill:#B2D9C5;}
	.st88{fill:#B1B1B1;}
	.st89{opacity:0.6;fill:#B2D9C5;}
	.st90{opacity:0.44;fill:#FFD700;}
	.st91{opacity:0.6;fill:#FFD700;}
	.st92{opacity:0.49;}
	.st93{clip-path:url(#SVGID_8_);}
	.st94{opacity:0.5;fill:#FFD700;}
	.st95{clip-path:url(#SVGID_10_);fill:#FFD700;}
	.st96{clip-path:url(#SVGID_12_);fill:#FFD700;}
	.st97{fill-rule:evenodd;clip-rule:evenodd;fill:#FFD700;}
</style>
<g>
	<path class="st0" d="M218.3,132.53c-7.67,56.74-59.85,96.51-116.59,88.84c-56.73-7.66-96.47-59.85-88.81-116.59
		c7.65-56.7,59.84-96.46,116.56-88.8C186.19,23.64,225.96,75.82,218.3,132.53z"/>
	<path class="st16" d="M198.8,129.9c-6.21,45.95-48.48,78.16-94.45,71.96c-45.94-6.21-78.18-48.5-71.96-94.45
		c6.18-45.95,48.49-78.14,94.45-71.94C172.8,41.67,205,83.94,198.8,129.9z"/>
	<g class="st86">
		<path class="st87" d="M126.61,55.05c-0.15,1.04-1.5,1.93-3.65,2.65c-1.07,0.37-2.38,0.68-3.84,0.96c-0.73,0.17-1.52,0.23-2.34,0.4
			c-0.81,0.23-1.67,0.43-2.55,0.64c-1.77,0.43-3.71,0.64-5.73,1.12c-2.01,0.58-4.13,1.09-6.36,1.61c-2.1,0.8-4.39,1.45-6.67,2.29
			c-1.12,0.49-2.26,0.98-3.42,1.46c-0.58,0.23-1.17,0.47-1.77,0.71l-1.68,0.89c-1.16,0.59-2.29,1.16-3.42,1.71
			c-1.06,0.66-2.13,1.33-3.17,1.95c-0.52,0.31-1.05,0.59-1.58,0.92c-0.49,0.36-0.99,0.7-1.46,1.04c-0.96,0.68-1.95,1.33-2.88,1.98
			c-3.65,2.75-6.93,5.41-9.64,7.8c-5.51,4.74-9.04,8-10.99,7.11c-1.9-0.86-1.57-6.42,2.46-13.8c1.96-3.7,4.97-7.74,8.91-11.79
			c0.99-0.97,2.1-1.91,3.21-2.9c0.55-0.48,1.13-0.97,1.7-1.46c0.6-0.47,1.24-0.9,1.86-1.35c1.28-0.87,2.58-1.76,3.9-2.66
			c1.4-0.78,2.85-1.52,4.29-2.28c0.75-0.38,1.46-0.75,2.2-1.1c0.76-0.32,1.51-0.6,2.26-0.88c1.49-0.53,3-1.06,4.45-1.58
			c2.98-0.86,5.93-1.36,8.71-1.91c2.78-0.24,5.48-0.35,7.94-0.41c2.47,0.01,4.78,0.4,6.84,0.66c1.03,0.17,2.02,0.31,2.91,0.48
			c0.92,0.19,1.79,0.53,2.56,0.77c1.56,0.57,2.91,1.12,3.96,1.67C125.71,52.89,126.76,54,126.61,55.05z"/>
	</g>
	<g>
		<path class="st88" d="M128.97,19.64c-3.02-0.41-5.79,1.7-6.18,4.7c-0.41,3,1.69,5.78,4.72,6.18c3,0.4,5.75-1.7,6.17-4.7
			C134.09,22.8,131.98,20.05,128.97,19.64z"/>
		<path class="st88" d="M103.69,206.81c-3.03-0.41-5.78,1.69-6.2,4.71c-0.4,3.01,1.7,5.78,4.72,6.18c3.01,0.4,5.77-1.69,6.18-4.71
			C108.79,209.98,106.7,207.22,103.69,206.81z"/>
		<path class="st88" d="M22.73,100.58c-3-0.41-5.78,1.69-6.17,4.69c-0.41,3.02,1.69,5.78,4.71,6.19c3.01,0.41,5.75-1.71,6.16-4.71
			C27.85,103.74,25.74,100.98,22.73,100.58z"/>
		<path class="st88" d="M209.92,125.87c-3.02-0.41-5.76,1.68-6.17,4.69c-0.41,3,1.7,5.78,4.7,6.19c3.01,0.4,5.77-1.71,6.19-4.71
			C215.04,129.04,212.93,126.27,209.92,125.87z"/>
	</g>
	<g>
		<path class="st88" d="M55.03,39.18c-2.42,1.84-2.9,5.29-1.03,7.7c1.83,2.41,5.26,2.87,7.67,1.04c2.43-1.84,2.89-5.29,1.05-7.7
			C60.89,37.8,57.45,37.34,55.03,39.18z"/>
		<path class="st88" d="M169.49,189.42c-2.4,1.82-2.87,5.27-1.02,7.69c1.85,2.41,5.28,2.87,7.68,1.04c2.41-1.84,2.87-5.29,1.04-7.69
			C175.37,188.04,171.92,187.58,169.49,189.42z"/>
		<path class="st88" d="M37.16,171.54c-2.43,1.82-2.89,5.28-1.04,7.7c1.83,2.4,5.27,2.87,7.67,1.03c2.42-1.84,2.88-5.3,1.05-7.69
			C43,170.16,39.56,169.7,37.16,171.54z"/>
		<path class="st88" d="M187.38,57.07c-2.41,1.83-2.89,5.27-1.05,7.69c1.86,2.41,5.3,2.87,7.69,1.04c2.41-1.84,2.88-5.29,1.05-7.7
			C193.25,55.67,189.79,55.21,187.38,57.07z"/>
	</g>
	<path class="st89" d="M198.8,129.9c-6.22,45.95-48.48,78.16-94.45,71.96c-36.24-4.91-63.92-32.21-70.96-66.09
		c12.15,23.41,35.14,40.75,63.27,44.54c45.94,6.2,88.25-26.02,94.46-71.98c1.3-9.67,0.89-19.18-0.99-28.25
		C197.85,94.9,201.21,112.13,198.8,129.9z"/>
</g>
<polygon class="st2" points="115.6,53.39 134.44,91.56 176.56,97.68 146.08,127.39 153.28,169.34 115.6,149.54 77.93,169.34 
	85.12,127.39 54.64,97.68 96.76,91.56 "/>
</svg>
