<?xml version="1.0" encoding="utf-8"?>
<!-- Generator: Adobe Illustrator 24.3.0, SVG Export Plug-In . SVG Version: 6.00 Build 0)  -->
<svg version="1.1" id="katman_1" xmlns="http://www.w3.org/2000/svg" xmlns:xlink="http://www.w3.org/1999/xlink" x="0px" y="0px"
	 viewBox="0 0 233 237" style="enable-background:new 0 0 233 237;" xml:space="preserve">
<style type="text/css">
	.st0{fill:#FFFFFF;}
	.st1{fill:#D38010;}
	.st2{fill:#FFD700;}
	.st3{fill:#F6A500;}
	.st4{fill:#C6C6C5;}
	.st5{fill:#6F6F6E;}
	.st6{fill:#FBD72F;}
	.st7{fill:#F8FAFD;}
	.st8{fill:#ADBBE0;}
	.st9{fill:#D5DFF2;}
	.st10{fill:#BAC8E5;}
	.st11{opacity:0.5;}
	.st12{fill:#FFE300;}
	.st13{opacity:0.25;}
	.st14{fill:#8EC26B;}
	.st15{fill:#F6D716;}
	.st16{fill:#7EC4A6;}
	.st17{fill:none;stroke:#7EC4A6;stroke-width:2;stroke-linecap:round;stroke-miterlimit:10;}
	.st18{fill:#DA611E;}
	.st19{fill:#FBCFA8;}
	.st20{fill:#F6AD74;}
	.st21{fill:#C74E1E;}
	.st22{fill:#B2421C;}
	.st23{opacity:0.4;fill:#904B3F;}
	.st24{fill:#2B2523;}
	.st25{opacity:0.4;}
	.st26{fill:#944C17;}
	.st27{fill:#F1C36B;}
	.st28{fill:#E28F5E;}
	.st29{fill:#D66A39;}
	.st30{fill:#F9C292;}
	.st31{fill:#FFF0C1;}
	.st32{fill:#FFFBF2;}
	.st33{fill:#FFF5D9;}
	.st34{fill:#964C30;}
	.st35{fill:#3D1B16;}
	.st36{fill:#FCD9B4;}
	.st37{fill:#E18444;}
	.st38{fill:#F4A264;}
	.st39{fill:#FCDDBD;}
	.st40{fill:#DA5D27;}
	.st41{fill:#E7C400;}
	.st42{fill:#349ED8;}
	.st43{fill:#164290;}
	.st44{opacity:0.4;fill:#8F8E8F;}
	.st45{opacity:0.3;}
	.st46{opacity:0.3;fill:#FFFFFF;}
	.st47{opacity:0.5;fill:#B0AFB2;}
	.st48{fill:#8E3B29;}
	.st49{opacity:0.6;fill:#FCDDBD;}
	.st50{fill:#F5F5F5;}
	.st51{fill:#ECECEC;}
	.st52{clip-path:url(#SVGID_2_);}
	.st53{fill:#79837A;}
	.st54{fill:#95A095;}
	.st55{fill:#DEDDC4;}
	.st56{fill:#3A3F39;}
	.st57{fill:#ADB7AF;}
	.st58{fill:#00944E;}
	.st59{fill:#F4A36E;}
	.st60{fill:#535B54;}
	.st61{clip-path:url(#SVGID_4_);}
	.st62{fill:#EEE7E0;}
	.st63{fill:#5D4B3E;}
	.st64{fill:#C09977;}
	.st65{fill:#EAE0CF;}
	.st66{fill:#E55F3B;}
	.st67{fill:#473C34;}
	.st68{fill:#D9C6A9;}
	.st69{opacity:0.88;fill:#FFFFFF;}
	.st70{opacity:0.2;fill:#FFFFFF;}
	.st71{fill:#B68E6E;}
	.st72{fill:#A67D60;}
	.st73{fill:#E3D1B8;}
	.st74{clip-path:url(#SVGID_6_);}
	.st75{fill-rule:evenodd;clip-rule:evenodd;fill:#FCC444;}
	.st76{fill-rule:evenodd;clip-rule:evenodd;fill:#ECECEC;}
	.st77{fill-rule:evenodd;clip-rule:evenodd;fill:#12100B;}
	.st78{fill-rule:evenodd;clip-rule:evenodd;fill:#12110B;}
	.st79{fill:#EEC600;}
	.st80{fill:#5F348A;}
	.st81{fill:none;stroke:#5F348A;stroke-width:2;stroke-miterlimit:10;}
	.st82{fill:#7C4D99;}
	.st83{fill:none;stroke:#7C4D99;stroke-width:2;stroke-miterlimit:10;}
	.st84{fill:none;stroke:#5F348A;stroke-width:1.5;stroke-linecap:round;stroke-linejoin:round;stroke-miterlimit:10;}
	.st85{opacity:0.2;}
	.st86{opacity:0.6;}
	.st87{fill:#B2D9C5;}
	.st88{fill:#B1B1B1;}
	.st89{opacity:0.6;fill:#B2D9C5;}
	.st90{opacity:0.44;fill:#FFD700;}
	.st91{opacity:0.6;fill:#FFD700;}
	.st92{opacity:0.49;}
	.st93{clip-path:url(#SVGID_8_);}
	.st94{opacity:0.5;fill:#FFD700;}
	.st95{clip-path:url(#SVGID_10_);fill:#FFD700;}
	.st96{clip-path:url(#SVGID_12_);fill:#FFD700;}
	.st97{fill-rule:evenodd;clip-rule:evenodd;fill:#FFD700;}
</style>
<g>
	<path class="st0" d="M218.43,131.15c-7.7,56.93-60.05,96.83-116.98,89.14c-56.92-7.69-96.8-60.06-89.11-116.98
		c7.67-56.89,60.04-96.79,116.96-89.1C186.21,21.89,226.11,74.25,218.43,131.15z"/>
	<path class="st16" d="M198.86,128.52c-6.23,46.1-48.65,78.42-94.76,72.2c-46.1-6.23-78.45-48.66-72.2-94.77
		c6.2-46.1,48.65-78.41,94.76-72.18C172.78,39.99,205.08,82.4,198.86,128.52z"/>
	<g class="st86">
		<path class="st87" d="M126.44,53.41c-0.16,1.04-1.5,1.94-3.67,2.66c-1.08,0.37-2.38,0.68-3.85,0.96c-0.73,0.17-1.53,0.23-2.34,0.4
			c-0.81,0.23-1.68,0.43-2.56,0.65c-1.77,0.43-3.73,0.64-5.75,1.13c-2.02,0.58-4.15,1.1-6.38,1.62c-2.11,0.8-4.4,1.45-6.69,2.3
			c-1.12,0.49-2.27,0.98-3.43,1.46c-0.59,0.23-1.18,0.47-1.77,0.71L88.3,66.2c-1.17,0.59-2.3,1.16-3.43,1.72
			c-1.07,0.66-2.13,1.33-3.19,1.95c-0.52,0.31-1.05,0.59-1.58,0.92c-0.49,0.36-0.99,0.7-1.47,1.04c-0.97,0.68-1.95,1.33-2.89,1.98
			c-3.66,2.77-6.95,5.43-9.67,7.83c-5.53,4.75-9.07,8.02-11.03,7.14c-1.91-0.86-1.57-6.44,2.47-13.85
			c1.97-3.72,4.99-7.77,8.94-11.83c0.99-0.98,2.11-1.92,3.22-2.91c0.56-0.48,1.13-0.97,1.7-1.47c0.6-0.47,1.24-0.9,1.86-1.35
			c1.29-0.87,2.59-1.76,3.91-2.67c1.4-0.78,2.86-1.53,4.3-2.29c0.75-0.38,1.47-0.75,2.21-1.1c0.76-0.32,1.52-0.6,2.27-0.88
			c1.5-0.53,3.01-1.07,4.46-1.58c2.99-0.86,5.95-1.37,8.73-1.92c2.79-0.24,5.5-0.35,7.97-0.41c2.48,0.01,4.8,0.41,6.86,0.66
			c1.03,0.17,2.03,0.32,2.92,0.48c0.93,0.19,1.79,0.53,2.57,0.78c1.56,0.57,2.92,1.12,3.97,1.68
			C125.53,51.24,126.58,52.36,126.44,53.41z"/>
	</g>
	<g>
		<path class="st88" d="M128.8,17.88c-3.03-0.41-5.81,1.7-6.2,4.72c-0.41,3.01,1.7,5.8,4.73,6.2c3.01,0.4,5.77-1.71,6.19-4.72
			C133.93,21.05,131.82,18.29,128.8,17.88z"/>
		<path class="st88" d="M103.44,205.68c-3.04-0.41-5.79,1.7-6.22,4.72c-0.4,3.02,1.71,5.8,4.74,6.2c3.02,0.41,5.79-1.7,6.2-4.72
			C108.55,208.86,106.45,206.09,103.44,205.68z"/>
		<path class="st88" d="M22.21,99.1c-3.01-0.41-5.79,1.7-6.19,4.7c-0.41,3.03,1.7,5.8,4.72,6.21c3.02,0.41,5.77-1.71,6.18-4.73
			C27.34,102.27,25.22,99.5,22.21,99.1z"/>
		<path class="st88" d="M210.02,124.47c-3.03-0.41-5.78,1.68-6.2,4.71c-0.41,3.01,1.7,5.8,4.71,6.21c3.02,0.4,5.79-1.72,6.21-4.73
			C215.16,127.65,213.04,124.87,210.02,124.47z"/>
	</g>
	<g>
		<path class="st88" d="M54.61,37.49c-2.43,1.84-2.9,5.31-1.03,7.73c1.84,2.42,5.28,2.88,7.7,1.04c2.44-1.84,2.9-5.3,1.06-7.73
			C60.49,36.1,57.04,35.64,54.61,37.49z"/>
		<path class="st88" d="M169.45,188.24c-2.41,1.83-2.88,5.29-1.02,7.72c1.86,2.42,5.29,2.88,7.71,1.04
			c2.42-1.85,2.88-5.31,1.04-7.71C175.35,186.84,171.9,186.38,169.45,188.24z"/>
		<path class="st88" d="M36.68,170.3c-2.43,1.83-2.9,5.29-1.04,7.73c1.84,2.41,5.29,2.88,7.7,1.03c2.43-1.85,2.89-5.31,1.06-7.72
			C42.54,168.91,39.09,168.45,36.68,170.3z"/>
		<path class="st88" d="M187.41,55.44c-2.42,1.83-2.9,5.29-1.06,7.72c1.86,2.41,5.32,2.88,7.72,1.04c2.42-1.84,2.88-5.31,1.06-7.72
			C193.29,54.04,189.82,53.57,187.41,55.44z"/>
	</g>
	<path class="st89" d="M198.86,128.52c-6.24,46.11-48.65,78.42-94.76,72.2c-36.37-4.92-64.13-32.32-71.2-66.31
		c12.19,23.49,35.26,40.88,63.49,44.69c46.1,6.22,88.55-26.11,94.78-72.22c1.3-9.7,0.89-19.24-0.99-28.34
		C197.91,93.39,201.28,110.68,198.86,128.52z"/>
</g>
<g>
	<g>
		<path class="st2" d="M217.46,84.31c0,0-3.6,2.67-4.95-1.33c-1.35-4,5.9-7.33,11.07-1.14c5.17,6.18,1.01,17.01-9.48,18.83
			c-10.49,1.82-17.29-6.03-20.61-9.74c-3.32-3.71-7.68-4.37-12.51-1.49c-4.83,2.88-6.27,6.95-3.39,13.39
			c2.89,6.44,7.35-2.4,0.44-9.39c-6.91-6.99-18.31-5.06-21.38,2.63c-3.47,8.7-5.57,21.46-21.13,21.59c0,0-12.23-1.66-6.16-12.86
			c0,0,8.77,1.11,11.16-8.64c2.53-10.29,11.48-17.72,25.14-17.75c15.91-0.03,25.25,8.64,26.8,21.21
			c1.54,12.53-7.84,17.92-15.57,16.47c-8.49-1.59-19.52-17.3-9.48-28.02c10.05-10.71,21.59-9.1,27.28-4.57
			c5.7,4.54,12.78,16.75,21.39,12.47c8.61-4.29,7.62-11.43,4.09-14.41c-3.53-2.98-6.86-0.99-6.67,0.86
			C213.69,84.28,215.26,85.5,217.46,84.31z"/>
		<path class="st2" d="M169.76,92.08c3.26-2.01,5.38,0.07,6.07,4.03c0.25-0.95,0.62-1.89,1.14-2.78c0.07-0.14,0.16-0.28,0.24-0.41
			c0.03-0.04,0.05-0.09,0.08-0.13c-3.2-2.84-7.18-3.94-10.86-3.58c-8.32,10.66,2.24,25.36,10.43,26.89
			c0.12,0.03,0.25,0.04,0.38,0.06C165.49,112.86,165.63,94.63,169.76,92.08z"/>
		<path class="st2" d="M184.27,108.06c0.65-7.68-3.71-12.52-5.83-14.4c-0.66-0.59-1.11-0.89-1.12-0.89c0,0.01-0.01,0.01-0.01,0.02
			c0.24,0.21,0.49,0.41,0.72,0.65c0.12,0.13,0.24,0.26,0.36,0.38c6.38,6.92,2.04,15.33-0.79,9.01c-0.5-1.12-0.87-2.17-1.11-3.16
			c-0.62-2.5-0.43-4.58,0.5-6.34c-0.52,0.89-0.89,1.83-1.14,2.78C173.34,105.72,183.51,117.07,184.27,108.06z"/>
		<path class="st2" d="M135.51,117.66c14.13-0.11,17.16-10.65,20.2-19.1c-6.47,17.25-18.16,18.47-23.91,17.9
			C133.69,117.41,135.51,117.66,135.51,117.66z"/>
		<path class="st2" d="M199.5,93.28c-5.65-10.01-11.28-12.79-19.81-12c3.29,1.58,5.98,3.77,8.04,6.43c1.06,0.12,2.08,0.46,3.04,0.99
			c0.23,0.13,0.45,0.27,0.68,0.42c0.01,0.01,0.03,0.02,0.05,0.03c0.2,0.14,0.4,0.29,0.6,0.45c0.03,0.02,0.06,0.05,0.09,0.07
			c0.19,0.16,0.37,0.32,0.55,0.49c0.04,0.03,0.08,0.07,0.11,0.1c0.22,0.21,0.43,0.43,0.64,0.67c3.32,3.71,10.12,11.56,20.61,9.74
			c0.1-0.02,0.2-0.04,0.29-0.06C211.89,101.04,204.19,101.59,199.5,93.28z"/>
		<path class="st2" d="M183.52,99.56c-1.27-3.2-3.33-5.65-5.78-7.38c-2.67-1.89-5.8-2.89-8.9-3.02c2.96,0.22,5.96,1.38,8.47,3.61
			c0.01,0,0.46,0.31,1.12,0.89c2.12,1.88,6.48,6.72,5.83,14.4c-0.32,3.8-2.31,3.97-4.33,2.18
			C183.48,114.32,187.2,108.87,183.52,99.56z"/>
		<path class="st2" d="M199.5,93.28c4.69,8.31,12.39,7.76,14.89,7.33c3.27-0.63,5.9-2.13,7.81-4.09
			C214.56,102.47,205.24,101.78,199.5,93.28z"/>
		<path class="st2" d="M222.65,81.15c2.54,2.8,3.14,5.86,3.06,8.23c0.32-2.69-0.34-5.39-2.14-7.54c-3.47-4.17-7.89-4.02-10-2.26
			C215.72,78.12,220.02,78.24,222.65,81.15z"/>
		<path class="st2" d="M155.71,98.57c0.31-0.86,0.62-1.69,0.94-2.5c0.91-2.27,2.55-4.04,4.58-5.22c-1.51,0.72-5.24,3.66-7.16,9.88
			c-1.8,5.8-7.73,13.03-14.52,15.07C145.09,114.21,151.5,109.78,155.71,98.57z"/>
		<path class="st90" d="M179.96,110.26c-2.77-2.47-5.56-8.6-4.12-14.15c-0.58-3.3-2.15-5.29-4.55-4.7
			c-5.13,2.43-2.82,15.86,2.19,20.93c3.33,3.37,6.85,1.14,8.83-0.73C181.58,111.62,180.76,111.19,179.96,110.26z"/>
		<path class="st90" d="M178.66,80.82c0.35,0.15,0.69,0.3,1.03,0.46c2.02-0.18,3.87-0.16,5.6,0.1c0.04,0,0.06,0.01,0.08,0.01
			c2.03,0.32,3.88,0.98,5.63,2.05c7.29,3.62,11.75,9.76,14.01,11.48c0.57,0.44,0.84,0.15,0.9-0.57c-4.22-3.09-7.95-8.23-11.23-10.84
			C191.07,80.63,185.1,78.94,178.66,80.82z"/>
		<g>
			<path class="st2" d="M192.45,99.63c-0.56-4.57-2.16-8.61-4.73-11.92c-2.27-2.94-5.3-5.29-9.06-6.89
				c-3.66-1.56-8.01-2.41-13.01-2.4c-13.66,0.03-22.61,7.46-25.14,17.75c-2.39,9.75-11.16,8.64-11.16,8.64
				c-2.73,5.02-1.76,8.12,0.12,10.01c25.9-0.02,21.48-19.3,29.19-24.28c8.84-5.71,17.32-2.07,20.81-0.07
				c1.67,0.95,3.21,2.11,4.57,3.47c6.06,6.03,8.82,18.84-1.68,22.05C188.37,114.65,193.63,109.24,192.45,99.63z"/>
			<path class="st2" d="M197.44,86.1c1.22,1.38,2.38,2.96,4.97,6.13c4.23,5.17,12.84,10.79,18.89,4.53
				c3.97-4.1,2.86-8.62,0.83-12.47c1.48,3.48,0.52,8.42-6.06,11.7C208.8,99.6,202.62,91.45,197.44,86.1z"/>
		</g>
		<path class="st2" d="M182.37,115.99c6-1.34,11.25-6.75,10.07-16.37c-0.36-2.93-1.15-5.64-2.35-8.09c0.57,2.28,1.72,8.43-0.7,14.15
			C189.65,110.17,187.76,114.35,182.37,115.99z"/>
		<path class="st91" d="M197.74,87.9c-0.38-0.04,0.6,1.13,0.81,0.82C198.75,88.42,198.18,87.95,197.74,87.9z"/>
		<path class="st91" d="M223.23,83.87c0.27,0.24,0.81-0.05,0.28-0.29C222.97,83.34,222.9,83.58,223.23,83.87z"/>
		<path class="st91" d="M223.28,84.32c0.12,0.16,0.56-0.17,0.26-0.29C223.24,83.91,223.14,84.12,223.28,84.32z"/>
		<g>
			<g>
				<path class="st2" d="M142.98,101.97c-1.18-1.78-6.72,0.67-6.15,2.83C137.4,106.97,144.16,103.76,142.98,101.97z"/>
				<path class="st2" d="M143.61,101.68c-1.18-1.78-6.72,0.67-6.15,2.83C138.03,106.68,144.78,103.46,143.61,101.68z"/>
				<g class="st92">
					<path class="st2" d="M142.09,102.39c-0.6-0.91-3.41,0.34-3.11,1.44C139.27,104.92,142.69,103.29,142.09,102.39z"/>
				</g>
				<g>
					<path class="st2" d="M141.49,102.68c-0.26-0.41-0.98-0.38-1.66-0.12c0.8-0.49,1.91-0.7,2.26-0.17c0.33,0.5-0.57,1.21-1.48,1.57
						C141.26,103.58,141.75,103.07,141.49,102.68z"/>
				</g>
			</g>
			<g>
				<path class="st2" d="M147.02,104.98c-1.47-1.63-6.56,1.41-5.63,3.48C142.33,110.54,148.49,106.61,147.02,104.98z"/>
				<path class="st2" d="M147.59,104.62c-1.47-1.63-6.56,1.41-5.62,3.48C142.9,110.18,149.06,106.25,147.59,104.62z"/>
				<g>
					<path class="st2" d="M146.2,105.49c-0.74-0.83-3.32,0.71-2.85,1.76C143.83,108.3,146.95,106.31,146.2,105.49z"/>
				</g>
				<g>
					<path class="st2" d="M145.66,105.84c-0.34-0.37-1.04-0.26-1.67,0.06c0.71-0.57,1.78-0.91,2.22-0.42
						c0.41,0.45-0.35,1.26-1.2,1.72C145.59,106.76,145.97,106.2,145.66,105.84z"/>
				</g>
			</g>
			<g>
				<path class="st2" d="M154.69,90.88c-2.06-1.14-5.68,3.04-3.96,4.74C152.46,97.32,156.75,92.02,154.69,90.88z"/>
				<path class="st2" d="M155.09,90.39c-2.06-1.14-5.69,3.04-3.96,4.74C152.86,96.83,157.15,91.53,155.09,90.39z"/>
				<g class="st92">
					<path class="st2" d="M154.12,91.57c-1.04-0.58-2.88,1.54-2,2.4C152.99,94.83,155.16,92.14,154.12,91.57z"/>
				</g>
				<g>
					<path class="st2" d="M153.74,92.04c-0.47-0.26-1.1,0.03-1.57,0.5c0.45-0.72,1.33-1.32,1.95-0.97c0.58,0.32,0.17,1.28-0.45,1.93
						C154.04,92.92,154.18,92.29,153.74,92.04z"/>
				</g>
			</g>
			<g>
				<path class="st2" d="M150.57,87.48c-2.06-1.14-5.68,3.04-3.96,4.74C148.34,93.92,152.63,88.62,150.57,87.48z"/>
				<path class="st2" d="M150.97,86.99c-2.06-1.14-5.68,3.04-3.96,4.74C148.74,93.43,153.03,88.13,150.97,86.99z"/>
				<g class="st92">
					<path class="st2" d="M150,88.17c-1.04-0.58-2.88,1.54-2,2.4C148.87,91.43,151.04,88.74,150,88.17z"/>
				</g>
				<g>
					<path class="st2" d="M149.62,88.64c-0.47-0.26-1.1,0.03-1.57,0.5c0.45-0.72,1.33-1.32,1.95-0.98c0.58,0.32,0.17,1.28-0.45,1.93
						C149.92,89.52,150.07,88.89,149.62,88.64z"/>
				</g>
			</g>
			<g>
				<path class="st2" d="M167.21,84.8c-0.38-1.99-4.72-1.06-4.84,1.13C162.24,88.13,167.59,86.79,167.21,84.8z"/>
				<path class="st2" d="M167.7,84.68c-0.38-1.99-4.72-1.06-4.84,1.13C162.74,88.01,168.08,86.67,167.7,84.68z"/>
				<g class="st92">
					<path class="st2" d="M166.51,84.97c-0.19-1-2.39-0.54-2.45,0.57C163.99,86.66,166.7,85.98,166.51,84.97z"/>
				</g>
				<g>
					<path class="st2" d="M166.03,85.1c-0.09-0.45-0.58-0.6-1.09-0.53c0.66-0.26,1.46-0.18,1.57,0.41c0.11,0.55-0.67,1-1.37,1.12
						C165.66,85.89,166.11,85.53,166.03,85.1z"/>
				</g>
			</g>
			<g>
				<path class="st2" d="M165.27,80.51c-0.38-1.98-4.71-1.06-4.84,1.13C160.31,83.83,165.65,82.5,165.27,80.51z"/>
				<path class="st2" d="M165.77,80.39c-0.38-1.98-4.72-1.06-4.84,1.13C160.81,83.71,166.15,82.38,165.77,80.39z"/>
				<g class="st92">
					<path class="st2" d="M164.58,80.68c-0.19-1.01-2.39-0.54-2.45,0.57C162.06,82.36,164.77,81.68,164.58,80.68z"/>
				</g>
				<g>
					<path class="st2" d="M164.1,80.8c-0.09-0.45-0.58-0.6-1.1-0.54c0.66-0.26,1.46-0.18,1.58,0.41c0.1,0.55-0.67,1-1.38,1.11
						C163.73,81.6,164.18,81.23,164.1,80.8z"/>
				</g>
			</g>
			<g>
				<path class="st2" d="M179.86,88.39c1.6-1.58-2.07-3.57-4.18-2.14C173.56,87.66,178.26,89.97,179.86,88.39z"/>
				<path class="st2" d="M180.47,88.45c1.6-1.58-2.07-3.57-4.18-2.15C174.18,87.72,178.87,90.03,180.47,88.45z"/>
				<g class="st92">
					<path class="st2" d="M179.43,87.92c0.81-0.8-1.05-1.81-2.12-1.09C176.24,87.56,178.62,88.72,179.43,87.92z"/>
				</g>
				<g>
					<path class="st2" d="M179,87.72c0.37-0.36,0.19-0.76-0.21-1.03c0.67,0.22,1.11,0.76,0.64,1.23c-0.45,0.44-1.37,0.28-1.93-0.07
						C178.03,88.04,178.66,88.06,179,87.72z"/>
				</g>
			</g>
			<g>
				<path class="st2" d="M179.8,84.13c1.6-1.58-2.07-3.56-4.18-2.14C173.51,83.41,178.21,85.72,179.8,84.13z"/>
				<path class="st2" d="M180.23,84.04c1.6-1.58-2.07-3.57-4.18-2.14C173.94,83.31,178.64,85.61,180.23,84.04z"/>
				<g class="st92">
					<path class="st2" d="M179.2,83.51c0.81-0.8-1.05-1.81-2.12-1.09C176.01,83.14,178.39,84.31,179.2,83.51z"/>
				</g>
				<g>
					<path class="st2" d="M178.77,83.31c0.36-0.36,0.19-0.76-0.21-1.03c0.67,0.22,1.11,0.76,0.64,1.23
						c-0.44,0.44-1.37,0.28-1.93-0.07C177.8,83.63,178.42,83.65,178.77,83.31z"/>
				</g>
			</g>
			<g>
				<path class="st2" d="M187.76,96.42c1.51-0.51,0.16-3.67-1.58-3.52C184.43,93.05,186.25,96.92,187.76,96.42z"/>
				<path class="st2" d="M188.16,96.44c1.51-0.51,0.16-3.67-1.58-3.52C184.83,93.08,186.65,96.95,188.16,96.44z"/>
				<g class="st92">
					<path class="st2" d="M188.04,95.29c0.43,0.12-0.14-1.2-0.66-1.48C186.87,93.52,187.62,95.17,188.04,95.29z"/>
				</g>
				<g>
					<path class="st2" d="M187.91,95c0.19,0.05,0.18-0.18,0.07-0.48c0.22,0.42,0.32,0.85,0.07,0.77c-0.23-0.07-0.57-0.6-0.73-1.02
						C187.49,94.62,187.72,94.95,187.91,95z"/>
				</g>
			</g>
			<g>
				<path class="st2" d="M190.39,105.95c1.33-0.01,1.34-3.19-0.05-3.57C188.95,102.01,189.07,105.96,190.39,105.95z"/>
				<path class="st2" d="M190.69,106.09c1.33-0.01,1.34-3.19-0.05-3.56C189.25,102.15,189.36,106.1,190.69,106.09z"/>
				<g class="st92">
					<path class="st2" d="M190.98,105.05c0.29,0.23,0.29-1.1-0.01-1.5C190.66,103.14,190.69,104.81,190.98,105.05z"/>
				</g>
				<g>
					<path class="st2" d="M190.97,104.75c0.12,0.11,0.2-0.11,0.21-0.41c0.04,0.44-0.03,0.84-0.21,0.7
						c-0.16-0.13-0.24-0.69-0.23-1.11C190.78,104.29,190.85,104.65,190.97,104.75z"/>
				</g>
			</g>
			<g>
				<path class="st2" d="M205.82,95.12c0.93-0.54-1.05-2.72-2.27-2.41C202.34,93.02,204.89,95.67,205.82,95.12z"/>
				<path class="st2" d="M206.11,95.1c0.93-0.54-1.05-2.72-2.27-2.41C202.63,93,205.18,95.64,206.11,95.1z"/>
				<g class="st92">
					<path class="st2" d="M205.66,94.27c0.35,0.04-0.48-0.86-0.95-1.02C204.25,93.1,205.31,94.23,205.66,94.27z"/>
				</g>
				<g>
					<path class="st2" d="M205.47,94.07c0.16,0.02,0.08-0.15-0.1-0.36c0.3,0.29,0.5,0.59,0.29,0.56c-0.19-0.02-0.6-0.37-0.85-0.66
						C205.05,93.83,205.32,94.05,205.47,94.07z"/>
				</g>
			</g>
			<g>
				<path class="st2" d="M192.04,102.92c1.33,0,1.34-3.19-0.05-3.56C190.6,98.99,190.71,102.93,192.04,102.92z"/>
				<path class="st2" d="M192.33,103.07c1.33,0,1.34-3.19-0.05-3.57C190.89,99.12,191,103.07,192.33,103.07z"/>
				<g class="st92">
					<path class="st2" d="M192.63,102.02c0.29,0.23,0.29-1.1-0.02-1.5C192.31,100.12,192.34,101.79,192.63,102.02z"/>
				</g>
				<g>
					<path class="st2" d="M192.62,101.72c0.13,0.11,0.2-0.1,0.21-0.41c0.03,0.44-0.04,0.84-0.2,0.7c-0.16-0.13-0.24-0.7-0.23-1.11
						C192.42,101.26,192.5,101.62,192.62,101.72z"/>
				</g>
			</g>
			<g>
				<path class="st2" d="M188.86,91.96c1.59-0.39,0.37-3.53-1.44-3.5C185.61,88.5,187.27,92.35,188.86,91.96z"/>
				<path class="st2" d="M189.27,92.02c1.59-0.39,0.37-3.54-1.45-3.5C186.01,88.55,187.68,92.41,189.27,92.02z"/>
				<g class="st92">
					<path class="st2" d="M189.22,90.9c0.43,0.15-0.09-1.16-0.6-1.47C188.1,89.11,188.78,90.75,189.22,90.9z"/>
				</g>
				<g>
					<path class="st2" d="M189.09,90.6c0.19,0.07,0.2-0.16,0.1-0.46c0.21,0.42,0.28,0.84,0.03,0.75c-0.24-0.08-0.56-0.61-0.71-1.03
						C188.68,90.21,188.91,90.54,189.09,90.6z"/>
				</g>
			</g>
			<g>
				<path class="st2" d="M221.46,95.34c-0.52-0.44-1.79,0.74-1.4,1.34C220.45,97.28,221.98,95.78,221.46,95.34z"/>
				<path class="st2" d="M221.43,95.16c-0.52-0.44-1.79,0.74-1.4,1.34C220.42,97.1,221.95,95.6,221.43,95.16z"/>
				<g class="st92">
					<path class="st2" d="M221.09,95.51c-0.24-0.24-0.94,0.33-0.76,0.64C220.5,96.46,221.33,95.74,221.09,95.51z"/>
				</g>
				<g>
					<path class="st2" d="M220.94,95.64c-0.11-0.11-0.31-0.05-0.49,0.07c0.19-0.2,0.49-0.34,0.63-0.2c0.13,0.13-0.06,0.41-0.29,0.57
						C220.95,95.92,221.05,95.74,220.94,95.64z"/>
				</g>
			</g>
			<g>
				<path class="st2" d="M211.71,97.36c-0.49-0.67,2.55-1.15,3.43-0.52C216.02,97.48,212.2,98.02,211.71,97.36z"/>
				<path class="st2" d="M211.77,97.16c-0.49-0.66,2.55-1.15,3.43-0.51C216.09,97.29,212.27,97.82,211.77,97.16z"/>
				<g class="st92">
					<path class="st2" d="M214.31,96.7c0.19,0.22-1.4,0.46-1.8,0.26C212.12,96.77,214.11,96.49,214.31,96.7z"/>
				</g>
				<g>
					<path class="st2" d="M213.95,96.75c0.09,0.1-0.19,0.2-0.55,0.27c0.52-0.05,1.02-0.19,0.91-0.32c-0.11-0.12-0.76-0.09-1.26,0
						C213.46,96.65,213.87,96.66,213.95,96.75z"/>
				</g>
			</g>
			<g>
				<path class="st2" d="M218.77,95.52c-0.62-0.16,0.51-1.16,1.3-1.12C220.85,94.43,219.39,95.67,218.77,95.52z"/>
				<path class="st2" d="M218.68,95.41c-0.62-0.15,0.51-1.16,1.29-1.12C220.76,94.33,219.3,95.57,218.68,95.41z"/>
				<g class="st92">
					<path class="st2" d="M219.65,94.6c0.21,0.06-0.48,0.51-0.77,0.5C218.58,95.09,219.44,94.54,219.65,94.6z"/>
				</g>
				<g>
					<path class="st2" d="M219.5,94.7c0.09,0.03,0,0.14-0.15,0.25c0.24-0.13,0.42-0.31,0.3-0.34c-0.12-0.04-0.43,0.11-0.64,0.26
						C219.2,94.76,219.41,94.67,219.5,94.7z"/>
				</g>
			</g>
			<g>
				<path class="st2" d="M222.95,92.23c-0.45,0.03-0.36-1.18,0.12-1.35C223.56,90.71,223.41,92.2,222.95,92.23z"/>
				<path class="st2" d="M222.81,92.24c-0.45,0.03-0.36-1.18,0.12-1.35C223.42,90.71,223.26,92.21,222.81,92.24z"/>
				<g class="st92">
					<path class="st2" d="M222.74,91.85c-0.1,0.1-0.06-0.41,0.05-0.57C222.9,91.12,222.85,91.76,222.74,91.85z"/>
				</g>
				<g>
					<path class="st2" d="M222.75,91.74c-0.04,0.04-0.06-0.03-0.06-0.15c-0.03,0.17-0.01,0.32,0.05,0.26
						c0.06-0.05,0.1-0.27,0.11-0.42C222.83,91.56,222.8,91.7,222.75,91.74z"/>
				</g>
			</g>
			<g>
				<path class="st2" d="M221.96,92.12c-0.45,0.03-0.36-1.18,0.12-1.35C222.57,90.6,222.41,92.1,221.96,92.12z"/>
				<path class="st2" d="M221.82,92.13c-0.46,0.03-0.36-1.18,0.12-1.35C222.42,90.61,222.27,92.11,221.82,92.13z"/>
				<g class="st92">
					<path class="st2" d="M221.75,91.74c-0.11,0.1-0.06-0.41,0.05-0.57C221.91,91.02,221.85,91.65,221.75,91.74z"/>
				</g>
				<g>
					<path class="st2" d="M221.76,91.63c-0.05,0.04-0.07-0.04-0.06-0.15c-0.03,0.17-0.02,0.32,0.05,0.26
						c0.06-0.05,0.1-0.27,0.11-0.42C221.84,91.45,221.8,91.59,221.76,91.63z"/>
				</g>
			</g>
			<g>
				<path class="st2" d="M223.07,90.05c-0.45,0.06-0.51-1.14-0.05-1.35C223.48,88.49,223.52,89.99,223.07,90.05z"/>
				<path class="st2" d="M222.93,90.08c-0.45,0.06-0.51-1.14-0.05-1.35C223.34,88.51,223.38,90.01,222.93,90.08z"/>
				<g class="st92">
					<path class="st2" d="M222.81,89.69c-0.09,0.1-0.12-0.4-0.02-0.57C222.88,88.95,222.9,89.59,222.81,89.69z"/>
				</g>
				<g>
					<path class="st2" d="M222.81,89.58c-0.04,0.05-0.07-0.03-0.08-0.14c0,0.17,0.03,0.32,0.08,0.26c0.05-0.06,0.07-0.27,0.06-0.43
						C222.86,89.4,222.84,89.54,222.81,89.58z"/>
				</g>
			</g>
			<g>
				<path class="st2" d="M215.66,98.89c0.22-0.95-3.29-1.37-3.94-0.43C211.07,99.4,215.44,99.84,215.66,98.89z"/>
				<path class="st2" d="M215.86,98.7c0.22-0.95-3.28-1.37-3.94-0.43C211.27,99.21,215.64,99.65,215.86,98.7z"/>
				<g class="st92">
					<path class="st2" d="M214.76,98.35c0.31-0.18-1.16-0.35-1.66-0.18C212.61,98.32,214.45,98.53,214.76,98.35z"/>
				</g>
				<g>
					<path class="st2" d="M214.43,98.32c0.14-0.08-0.08-0.16-0.41-0.2c0.49,0.04,0.92,0.14,0.74,0.24c-0.17,0.1-0.81,0.08-1.26,0.02
						C213.89,98.4,214.3,98.39,214.43,98.32z"/>
				</g>
			</g>
		</g>
	</g>
	<g>
		<g>
			<path class="st2" d="M109.5,174.29c1.07,0.09,1.8,1.71,1.64,3.63c-0.16,1.91-1.16,3.39-2.23,3.3c-1.07-0.09-1.8-1.71-1.64-3.63
				C107.43,175.68,108.43,174.2,109.5,174.29z"/>
			<path class="st2" d="M110.05,175.87c0.72,0.06,1.22,1.16,1.11,2.45c-0.11,1.29-0.78,2.29-1.5,2.23
				c-0.72-0.06-1.22-1.16-1.11-2.45C108.65,176.81,109.33,175.81,110.05,175.87z"/>
		</g>
		<g>
			<g>
				<path class="st2" d="M91.97,134.17c1.2,10.59-4.45,19.34-16.13,19.15c-5.84-0.1-9.92-2.66-15.47,0.26
					c-4.15,1.82-8.18,5.88-10.3,9.71l-0.34-0.09c2.84-10.61,4.79-19.25,16.29-23.87c8.12-2.96,17.69-4.43,26.13-5.84"/>
			</g>
			<g>
				<g>
					<path class="st2" d="M85.49,150.83c0.29,1.03-0.97,2.29-2.82,2.81c-1.85,0.52-3.58,0.1-3.87-0.93
						c-0.29-1.03,0.98-2.29,2.82-2.81C83.47,149.38,85.2,149.79,85.49,150.83z"/>
					<path class="st2" d="M84.2,151.89c0.2,0.7-0.66,1.54-1.91,1.89c-1.25,0.35-2.42,0.07-2.62-0.63c-0.2-0.7,0.66-1.55,1.91-1.89
						C82.83,150.91,84,151.19,84.2,151.89z"/>
				</g>
				<g>
					<path class="st2" d="M91.38,143.17c0.89,0.6,0.74,2.37-0.32,3.97c-1.07,1.6-2.66,2.4-3.55,1.81c-0.89-0.6-0.74-2.37,0.32-3.97
						C88.9,143.38,90.49,142.57,91.38,143.17z"/>
					<path class="st2" d="M91.09,144.81c0.6,0.4,0.5,1.6-0.22,2.68c-0.72,1.08-1.79,1.62-2.4,1.22c-0.6-0.4-0.5-1.6,0.22-2.68
						C89.42,144.96,90.49,144.41,91.09,144.81z"/>
				</g>
				<g>
					<path class="st2" d="M74.04,153.24c-0.17,1.06-1.84,1.67-3.74,1.38c-1.89-0.3-3.3-1.4-3.13-2.46c0.17-1.06,1.84-1.67,3.74-1.37
						C72.8,151.09,74.2,152.19,74.04,153.24z"/>
					<path class="st2" d="M72.42,153.68c-0.12,0.72-1.25,1.13-2.53,0.93c-1.28-0.2-2.23-0.95-2.12-1.66
						c0.11-0.71,1.24-1.13,2.53-0.93C71.59,152.22,72.53,152.96,72.42,153.68z"/>
				</g>
				<g>
					<path class="st2" d="M62.54,153.24c0.43,0.98-0.65,2.4-2.41,3.17c-1.76,0.77-3.53,0.59-3.96-0.39
						c-0.43-0.98,0.65-2.4,2.41-3.17C60.34,152.08,62.12,152.26,62.54,153.24z"/>
					<path class="st2" d="M61.41,154.47c0.29,0.67-0.44,1.62-1.63,2.14c-1.19,0.52-2.39,0.4-2.67-0.26
						c-0.29-0.67,0.44-1.62,1.63-2.14C59.93,153.69,61.12,153.81,61.41,154.47z"/>
				</g>
			</g>
		</g>
		<path class="st2" d="M170.25,143.28c-1.14-0.2-2.26-0.45-2.71-0.55c-1.3-0.29-2.44-0.66-3.36-1.66
			c-2.58-2.84-3.46-7.52-4.55-11.07c-1-3.26-1.99-6.83-4.28-9.45c-3-3.44-7.75-4.57-12.12-4.62c-4.04-0.05-8.05,0.67-12.1,0.64
			c-4.58-0.03-8.74-1.42-12.01-4.71c-0.18-0.19-0.41-0.21-0.59-0.14c-0.08,0.02-0.17,0.06-0.24,0.13c-1.92,1.69-3.84,3.37-5.75,5.06
			c-0.16,0.14-0.21,0.38-0.16,0.58c1.32,4.62,4.2,8,8.87,9.35c4.53,1.31,9.44,0.84,14.1,1.04c4.9,0.21,10.62,1.15,13.53,5.56
			c1.43,2.16,2.15,4.71,3.39,6.96c1.41,2.55,3.7,4.45,6.36,5.6c2.3,0.99,4.29,1.57,6.73,0.93c2.79-0.73,5.47-2.01,7.92-3.52
			C172.91,143.66,171.56,143.51,170.25,143.28z"/>
		<path class="st2" d="M166.59,152.7c-2.04,1.64-4.79,2.41-7.28,3.03c-2.54,0.63-5.23,1.08-7.86,0.87
			c-6.04-0.49-7.64-7.92-10.26-12.17c-0.88-1.42-1.82-2.79-2.64-4.24c-0.72-1.28-1.22-2.66-2.12-3.84
			c-1.54-2.03-4.05-3.03-6.41-3.77c-5.24-1.65-10.92-0.46-15.26,2.89c-0.42,0.32-0.77,0.81-0.71,1.36c0,0.03,0.01,0.05,0.02,0.08
			l-0.03,0.01c-0.01-0.03-0.01-0.05-0.02-0.07c-0.13-0.75-1.27-0.43-1.14,0.31c0.39,2.27,1.27,4.35,3.19,5.71
			c1.63,1.16,3.79,1.38,5.72,1.49c4.68,0.27,9.96-0.28,12.39,4.63c1.21,2.45,1.63,5.24,2.53,7.81c0.85,2.44,2.3,4.74,4.38,6.32
			c4.58,3.48,10.87,3.4,15.87,0.88c4.53-2.27,7.61-6.59,10.53-10.56C167.94,152.84,167.06,152.32,166.59,152.7z"/>
		<g>
			<path class="st2" d="M114.24,151.71c2.25,9.24-4.58,15.89-5.56,24.43c-0.52,3.77,0.1,7.53-0.42,11.3
				c-5.11-9.52-4.4-22.53-5.67-32.98c-0.6-5.05-1.86-10.11-1.81-15.15c-0.03-2.94,0.14-8.44,1.63-10.97
				c1.27-2.16,10.79-4.05,11.12-0.25c0.16,1.87-1.39,4.35-1.79,6.21c-0.66,3.07-1.06,5.8-0.32,8.87
				C112.12,146.11,113.53,148.77,114.24,151.71z"/>
		</g>
		<g>
			<g>
				<g>
					<path class="st2" d="M140.58,87.75c-0.27-12.21-3.15-23.91-14.11-32.58c-9.04-7.16-22-11.59-33.34-8.38
						c-11.6,3.29-23.68,10.92-27.68,21.62c-10.29,27.47,2.91,53.03,37.36,54.05C125.7,123.16,141,106.65,140.58,87.75z"/>
				</g>
				<g>
					<path class="st2" d="M168.98,151.99c-1.01-0.27-1.76,0-2.78,0.26c-1.65,0.42-3.3,0.85-4.98,1.18
						c-3.4,0.67-6.99,0.81-10.13-0.85c-4.4-2.32-4.46-7.44-5.81-11.63c-0.75-2.31-2.11-4.44-3.96-6.02
						c-2.1-1.79-4.86-2.16-7.51-2.29c-3.11-0.15-6.21-0.15-9.07-1.53c-2.17-1.05-3.64-2.9-4.34-5.18c-0.89-2.9-0.54-6.14-0.06-9.08
						c0.01-0.07,0.01-0.13,0-0.19c0-0.01,0-0.02-0.01-0.03c0-0.01-0.01-0.03-0.01-0.04c-0.06-0.29-0.29-0.53-0.64-0.47
						c-0.09,0-0.18,0.02-0.25,0.06c-3.25,0.93-6.5,1.86-9.75,2.79c-0.01,0-0.02,0.01-0.03,0.01c-0.27-1.13-0.69-2.21-1.3-3.21
						c-0.18-0.28-0.52-0.37-0.81-0.22c-3.35,1.78-6.69,3.55-10.04,5.33c0.34-1.95,0.65-3.91,0.96-5.86c0.06-0.4-0.16-0.7-0.57-0.74
						c-2.86-0.28-5.72-0.55-8.58-0.83c-0.31-0.03-0.49,0.15-0.54,0.38c-0.03,0.06-0.04,0.13-0.04,0.21
						c-0.13,5.55-2.12,10.36-6.44,13.92c-3.96,3.26-8.95,5.17-13.54,7.33c-5.1,2.39-10.04,5.26-13.76,9.58
						c-3.46,4.02-5.23,9.03-5.61,14.29c-0.1,1.5-0.07,3,0.02,4.49c0.04,0.65,0.98,0.81,1.16,0.15c1.46-5.44,3.06-11.57,8.6-14.2
						c5.81-2.76,12.64,0.24,18.73-1.23c5.16-1.24,9.82-4.72,12.94-8.93c0.01-0.02,0.03-0.04,0.04-0.05
						c-0.39,1.8-0.53,3.64-0.19,5.48c0.46,2.5,2.08,4.46,3.78,6.27c1.5,1.59,3.18,3.01,4.64,4.64c1.5,1.68,2.41,3.65,2.84,5.86
						c0.57,2.95,0.28,6.06,0.51,9.05c0.19,2.51,0.58,5.01,1.24,7.44c0.9,3.31,2.38,6.45,4,9.46c0.31,0.58,1.31,0.19,1.08-0.45
						c-4.03-11.19,3.97-22.25,1.5-33.53c-0.6-2.72-1.94-5.02-3.55-7.25c-0.79-1.09-1.58-2.2-2.06-3.46
						c-0.59-1.51-0.29-3.06,0.32-4.51c1.05-2.53,2.75-4.64,3.57-7.29c0.21-0.7,0.41-1.41,0.59-2.12c0.13,5.5,1.31,10.84,6.96,12.35
						c4.83,1.29,9.87-1.23,14.76-0.81c5.35,0.46,8.29,4.99,10.38,9.38c2.39,5.07,5.69,12.46,12.46,12.08
						c2.79-0.16,5.22-1.96,7.34-3.61c2.49-1.94,4.9-4.27,7.96-5.25C169.53,152.96,169.57,152.15,168.98,151.99z"/>
					<path class="st2" d="M175.99,140.77c-0.17,0.09-0.34,0.17-0.51,0.26c-3.06,1.36-6.71-0.42-8.59-2.97
						c-2.26-3.07-3.23-6.98-4.33-10.57c-1-3.25-1.99-6.83-4.28-9.45c-3-3.43-7.74-4.57-12.11-4.62c-4.04-0.05-8.05,0.67-12.1,0.64
						c-4.57-0.03-8.74-1.42-12.01-4.71c-0.18-0.19-0.4-0.21-0.59-0.13c-0.08,0.02-0.17,0.06-0.24,0.13
						c-1.92,1.69-3.84,3.37-5.76,5.06c-0.16,0.14-0.21,0.38-0.15,0.58c1.31,4.62,4.2,8,8.87,9.35c4.53,1.31,9.44,0.84,14.1,1.04
						c4.9,0.21,10.62,1.15,13.53,5.56c1.43,2.16,2.14,4.7,3.39,6.96c1.41,2.55,3.7,4.46,6.36,5.6c4.75,2.04,10.01,0.77,14.46-1.44
						c0.19-0.09,0.37-0.18,0.54-0.28C177.24,141.41,176.66,140.42,175.99,140.77z"/>
				</g>
			</g>
			<g>
				<g>
					<g>
						<path class="st2" d="M99.54,92.32c-0.63,4.02-4.3,6.78-8.21,6.17c-3.91-0.61-6.57-4.37-5.94-8.38
							c0.63-4.01,4.3-6.78,8.22-6.17C97.51,84.55,100.17,88.31,99.54,92.32z"/>
					</g>
					<g>
						<g>
							<path class="st2" d="M99.3,93.87c-0.63,4.02-4.31,6.78-8.22,6.17c-3.91-0.61-6.57-4.36-5.94-8.38
								c0.63-4.01,4.3-6.78,8.21-6.17C97.27,86.1,99.92,89.85,99.3,93.87z"/>
						</g>
						<g>
							<path class="st2" d="M95.52,87.83c-1.81-0.28-3.55,0.6-4.56,2.13c0.51,0.3,0.82,0.92,0.71,1.58
								c-0.13,0.82-0.84,1.39-1.6,1.31c-0.03,2.43,1.59,4.55,3.89,4.91c2.54,0.4,4.95-1.5,5.38-4.25
								C99.78,90.78,98.06,88.23,95.52,87.83z"/>
						</g>
					</g>
				</g>
				<g>
					<g>
						<path class="st2" d="M121.76,88.17c-0.63,4.02-4.3,6.78-8.21,6.17c-3.91-0.61-6.57-4.37-5.94-8.38
							c0.63-4.02,4.31-6.78,8.22-6.17C119.73,80.4,122.39,84.15,121.76,88.17z"/>
					</g>
					<g>
						<g>
							<path class="st2" d="M121.52,89.71c-0.63,4.02-4.31,6.78-8.21,6.17c-3.91-0.61-6.57-4.36-5.94-8.38
								c0.63-4.02,4.31-6.78,8.21-6.17C119.49,81.94,122.15,85.69,121.52,89.71z"/>
						</g>
						<g>
							<path class="st2" d="M117.75,83.68c-1.81-0.29-3.55,0.6-4.56,2.13c0.51,0.3,0.82,0.92,0.71,1.58
								c-0.13,0.82-0.84,1.39-1.6,1.31c-0.03,2.43,1.59,4.55,3.89,4.91c2.54,0.4,4.95-1.5,5.38-4.24
								C122.01,86.62,120.29,84.07,117.75,83.68z"/>
						</g>
					</g>
				</g>
				<g>
					<defs>
						<path id="SVGID_7_" d="M175.99,140.77c-0.17,0.09-0.34,0.17-0.51,0.26c-3.06,1.36-6.71-0.42-8.59-2.97
							c-2.26-3.07-3.23-6.98-4.33-10.57c-1-3.25-1.99-6.83-4.28-9.45c-3-3.43-7.74-4.57-12.11-4.62c-4.04-0.05-8.05,0.67-12.1,0.64
							c-1.65-0.01-3.24-0.2-4.75-0.59c7.33-6.46,11.47-15.76,11.25-25.72c-0.27-12.21-3.15-23.91-14.11-32.58
							c-9.04-7.16-22-11.59-33.34-8.38c-11.6,3.29-23.68,10.92-27.68,21.62c-8.62,23.01-0.75,44.66,22.26,51.7
							c-1,3.01-2.77,5.66-5.42,7.85c-3.96,3.26-8.95,5.17-13.54,7.33c-5.1,2.39-10.04,5.26-13.76,9.58
							c-3.46,4.02-5.23,9.03-5.61,14.29c-0.1,1.5-0.07,3,0.02,4.49c0.04,0.65,0.98,0.81,1.16,0.15c1.46-5.44,3.06-11.57,8.6-14.2
							c5.81-2.76,12.64,0.24,18.73-1.23c5.16-1.24,9.82-4.72,12.94-8.93c0.01-0.02,0.03-0.04,0.04-0.05
							c-0.39,1.8-0.53,3.64-0.19,5.48c0.46,2.5,2.08,4.46,3.78,6.27c1.5,1.59,3.18,3.01,4.64,4.64c1.5,1.68,2.41,3.65,2.84,5.86
							c0.57,2.95,0.28,6.06,0.51,9.05c0.19,2.51,0.58,5.01,1.24,7.44c0.9,3.31,2.38,6.45,4,9.46c0.31,0.58,1.31,0.19,1.08-0.45
							c-4.03-11.19,3.97-22.25,1.5-33.53c-0.6-2.72-1.94-5.02-3.55-7.25c-0.79-1.09-1.58-2.2-2.06-3.46
							c-0.59-1.51-0.29-3.06,0.32-4.51c1.05-2.53,2.75-4.64,3.57-7.29c0.21-0.7,0.41-1.41,0.59-2.12c0.13,5.5,1.31,10.84,6.96,12.35
							c4.83,1.29,9.87-1.23,14.76-0.81c5.35,0.46,8.29,4.99,10.38,9.38c2.39,5.07,5.69,12.46,12.46,12.08
							c2.79-0.16,5.22-1.96,7.34-3.61c2.49-1.94,4.9-4.27,7.96-5.25c0.55-0.18,0.58-0.98,0-1.14c-1.01-0.27-1.76,0-2.78,0.26
							c-1.65,0.42-3.3,0.85-4.98,1.18c-3.4,0.67-6.99,0.81-10.13-0.85c-4.4-2.32-4.46-7.44-5.81-11.63
							c-0.75-2.31-2.11-4.44-3.96-6.02c-2.1-1.79-4.86-2.16-7.51-2.29c-3.11-0.15-6.21-0.15-9.07-1.53
							c-2.17-1.05-3.64-2.9-4.34-5.18c-0.38-1.22-0.53-2.49-0.54-3.78c1.22,0.97,2.67,1.71,4.34,2.2c4.53,1.31,9.44,0.84,14.1,1.04
							c4.9,0.21,10.62,1.15,13.53,5.56c1.43,2.16,2.14,4.7,3.39,6.96c1.41,2.55,3.7,4.46,6.36,5.6c4.75,2.04,10.01,0.77,14.46-1.44
							c0.19-0.09,0.37-0.18,0.54-0.28C177.24,141.41,176.66,140.42,175.99,140.77z"/>
					</defs>
					<use xlink:href="#SVGID_7_"  style="overflow:visible;fill:#FFD700;"/>
					<clipPath id="SVGID_2_">
						<use xlink:href="#SVGID_7_"  style="overflow:visible;"/>
					</clipPath>
					<g class="st52">
						<path class="st94" d="M81.98,110.49c0.35,2.59-2.44,5.11-6.23,5.62c-3.79,0.51-7.15-1.17-7.5-3.76
							c-0.35-2.59,2.44-5.11,6.23-5.62C78.27,106.21,81.63,107.9,81.98,110.49z"/>
						<path class="st94" d="M122.2,66.16c0.35,2.59-2.44,5.11-6.23,5.62c-3.79,0.51-7.15-1.17-7.5-3.76
							c-0.35-2.59,2.44-5.11,6.23-5.62C118.5,61.89,121.85,63.57,122.2,66.16z"/>
						<path class="st94" d="M79.71,133.92c0.35,2.59-2.44,5.11-6.23,5.62c-3.79,0.51-7.15-1.17-7.5-3.76
							c-0.35-2.59,2.44-5.11,6.23-5.62C76,129.65,79.36,131.33,79.71,133.92z"/>
						<path class="st94" d="M116.4,153.43c0.35,2.59-2.44,5.11-6.23,5.62c-3.79,0.51-7.15-1.17-7.5-3.76
							c-0.35-2.59,2.44-5.11,6.23-5.62C112.69,149.15,116.05,150.84,116.4,153.43z"/>
						<path class="st94" d="M71.91,148.11c0.35,2.59-2.44,5.11-6.23,5.62c-3.79,0.51-7.15-1.17-7.5-3.76
							c-0.35-2.59,2.44-5.11,6.23-5.62C68.2,143.83,71.55,145.52,71.91,148.11z"/>
						<path class="st94" d="M140.49,140.59c0.35,2.59-2.44,5.11-6.23,5.62c-3.79,0.51-7.15-1.17-7.5-3.76
							c-0.35-2.59,2.44-5.11,6.23-5.62C136.78,136.32,140.14,138,140.49,140.59z"/>
						<path class="st94" d="M158.44,127.67c0.35,2.59-2.44,5.11-6.23,5.62c-3.79,0.51-7.15-1.17-7.5-3.76
							c-0.35-2.59,2.44-5.11,6.23-5.62C154.74,123.39,158.09,125.07,158.44,127.67z"/>
						<path class="st94" d="M102.67,131.15c0.27,1.95-1.84,3.84-4.69,4.23c-2.85,0.39-5.38-0.88-5.65-2.84
							c-0.26-1.95,1.84-3.85,4.69-4.23C99.88,127.93,102.41,129.2,102.67,131.15z"/>
						<path class="st94" d="M110.7,58.46c0.26,1.95-1.84,3.85-4.69,4.23c-2.86,0.39-5.38-0.88-5.65-2.83
							c-0.26-1.95,1.84-3.85,4.69-4.23C107.91,55.24,110.44,56.51,110.7,58.46z"/>
						<path class="st94" d="M128.21,128.91c0.27,1.95-1.84,3.85-4.69,4.23c-2.85,0.39-5.38-0.88-5.65-2.83
							c-0.26-1.95,1.84-3.85,4.69-4.23C125.42,125.69,127.95,126.96,128.21,128.91z"/>
						<path class="st94" d="M156.09,159.61c0.26,1.95-1.84,3.85-4.69,4.23c-2.86,0.39-5.38-0.88-5.65-2.83
							c-0.26-1.95,1.84-3.85,4.69-4.23C153.29,156.39,155.82,157.66,156.09,159.61z"/>
						<path class="st94" d="M152.68,114.66c0.26,1.95-1.84,3.85-4.69,4.23c-2.86,0.39-5.38-0.88-5.65-2.83
							c-0.26-1.95,1.84-3.85,4.69-4.23C149.89,111.44,152.42,112.71,152.68,114.66z"/>
						<path class="st94" d="M139.6,105.75c0.27,1.95-1.84,3.85-4.69,4.23c-2.85,0.39-5.38-0.88-5.65-2.83
							c-0.26-1.95,1.84-3.85,4.69-4.23C136.81,102.52,139.34,103.79,139.6,105.75z"/>
						<path class="st94" d="M144.54,74.05c0.35,2.59-2.44,5.11-6.23,5.62c-3.79,0.51-7.15-1.17-7.5-3.76
							c-0.35-2.59,2.44-5.11,6.23-5.62C140.83,69.78,144.19,71.46,144.54,74.05z"/>
						<path class="st94" d="M78.59,62.88c0.35,2.59-2.44,5.11-6.23,5.62c-3.79,0.51-7.15-1.17-7.5-3.76
							c-0.35-2.59,2.44-5.11,6.23-5.62C74.89,58.6,78.25,60.28,78.59,62.88z"/>
					</g>
				</g>
			</g>
		</g>
		<g>
			<path class="st2" d="M111.46,141.42c1.05-0.19,2.18,1.2,2.52,3.08c0.33,1.89-0.25,3.57-1.31,3.76c-1.05,0.19-2.18-1.19-2.52-3.08
				C109.82,143.29,110.4,141.61,111.46,141.42z"/>
			<path class="st2" d="M112.39,142.81c0.71-0.13,1.47,0.81,1.7,2.08c0.23,1.28-0.17,2.42-0.88,2.54c-0.71,0.12-1.47-0.81-1.7-2.08
				C111.28,144.08,111.68,142.94,112.39,142.81z"/>
		</g>
		<g>
			<path class="st2" d="M113.8,152.05c1.05-0.18,2.18,1.2,2.51,3.09c0.33,1.89-0.25,3.57-1.3,3.76c-1.06,0.19-2.18-1.19-2.52-3.08
				C112.16,153.92,112.75,152.24,113.8,152.05z"/>
			<path class="st2" d="M114.74,153.44c0.71-0.12,1.47,0.81,1.7,2.09c0.22,1.28-0.17,2.41-0.88,2.54c-0.71,0.12-1.47-0.81-1.7-2.08
				C113.63,154.7,114.02,153.56,114.74,153.44z"/>
		</g>
		<g>
			<path class="st2" d="M113.56,162.81c1.04,0.27,1.49,1.99,1.01,3.85c-0.49,1.86-1.71,3.15-2.76,2.88c-1.03-0.27-1.49-1.99-1-3.85
				C111.29,163.82,112.52,162.54,113.56,162.81z"/>
			<path class="st2" d="M113.84,164.46c0.7,0.18,1,1.35,0.68,2.6c-0.33,1.26-1.16,2.13-1.86,1.95c-0.7-0.18-1.01-1.35-0.68-2.6
				C112.3,165.14,113.13,164.28,113.84,164.46z"/>
		</g>
		<g>
			<path class="st2" d="M138.25,157.7c-0.88,0.61-2.48-0.17-3.57-1.75c-1.09-1.58-1.26-3.35-0.38-3.96
				c0.88-0.61,2.48,0.17,3.57,1.75C138.96,155.31,139.13,157.09,138.25,157.7z"/>
			<path class="st2" d="M136.82,156.83c-0.59,0.41-1.68-0.12-2.41-1.18c-0.74-1.07-0.85-2.26-0.26-2.68
				c0.6-0.41,1.68,0.12,2.41,1.18C137.3,155.22,137.42,156.42,136.82,156.83z"/>
		</g>
		<g>
			<path class="st2" d="M133.82,147.38c-0.4,0.99-2.17,1.21-3.95,0.49c-1.78-0.72-2.89-2.11-2.49-3.1c0.4-0.99,2.17-1.21,3.95-0.49
				C133.1,144.99,134.22,146.38,133.82,147.38z"/>
			<path class="st2" d="M132.14,147.43c-0.27,0.67-1.47,0.82-2.67,0.33c-1.2-0.49-1.96-1.43-1.68-2.1c0.27-0.67,1.47-0.82,2.67-0.33
				C131.66,145.82,132.42,146.76,132.14,147.43z"/>
		</g>
		<g>
			<path class="st2" d="M148.83,132.63c-0.4,0.99-2.17,1.21-3.95,0.49c-1.78-0.72-2.89-2.11-2.49-3.11c0.4-0.99,2.17-1.21,3.95-0.49
				C148.12,130.24,149.23,131.63,148.83,132.63z"/>
			<path class="st2" d="M147.16,132.68c-0.27,0.67-1.47,0.82-2.67,0.33c-1.2-0.49-1.96-1.43-1.69-2.1c0.27-0.67,1.47-0.82,2.67-0.33
				C146.68,131.07,147.43,132.01,147.16,132.68z"/>
		</g>
		<g>
			<path class="st2" d="M138.86,128.63c-0.22,1.05-1.92,1.59-3.8,1.2c-1.88-0.39-3.23-1.56-3.01-2.6c0.21-1.05,1.92-1.59,3.79-1.2
				C137.73,126.41,139.08,127.58,138.86,128.63z"/>
			<path class="st2" d="M137.22,128.99c-0.14,0.71-1.29,1.07-2.56,0.81c-1.27-0.26-2.18-1.05-2.04-1.76
				c0.15-0.71,1.29-1.07,2.57-0.81C136.46,127.49,137.37,128.28,137.22,128.99z"/>
		</g>
		<g>
			<path class="st2" d="M129.28,127.2c0.06,1.07-1.45,2.02-3.36,2.13c-1.92,0.11-3.52-0.68-3.58-1.75
				c-0.06-1.07,1.45-2.02,3.37-2.13C127.62,125.35,129.22,126.13,129.28,127.2z"/>
			<path class="st2" d="M127.79,127.96c0.04,0.72-0.98,1.37-2.27,1.44c-1.3,0.07-2.38-0.46-2.42-1.18
				c-0.04-0.72,0.98-1.37,2.28-1.44C126.67,126.71,127.75,127.24,127.79,127.96z"/>
		</g>
		<g>
			<path class="st2" d="M153.21,141.14c-0.89,0.6-2.48-0.21-3.55-1.8c-1.07-1.59-1.22-3.37-0.33-3.97c0.89-0.6,2.48,0.21,3.55,1.8
				C153.95,138.76,154.1,140.54,153.21,141.14z"/>
			<path class="st2" d="M151.79,140.25c-0.6,0.4-1.67-0.14-2.4-1.21c-0.73-1.08-0.83-2.28-0.22-2.68c0.6-0.4,1.67,0.14,2.4,1.22
				C152.29,138.64,152.39,139.84,151.79,140.25z"/>
		</g>
		<g>
			<path class="st2" d="M163.18,146.77c-0.32,1.02-2.06,1.39-3.89,0.82c-1.84-0.57-3.06-1.86-2.74-2.89
				c0.32-1.02,2.06-1.39,3.9-0.82C162.27,144.45,163.5,145.74,163.18,146.77z"/>
			<path class="st2" d="M161.52,146.96c-0.21,0.69-1.39,0.94-2.63,0.55c-1.24-0.39-2.07-1.26-1.85-1.95
				c0.21-0.69,1.39-0.94,2.63-0.55C160.91,145.4,161.74,146.27,161.52,146.96z"/>
		</g>
		<g>
			<path class="st2" d="M124.05,144.74c-0.13,1.07-1.78,1.74-3.68,1.51c-1.91-0.23-3.35-1.28-3.22-2.34
				c0.13-1.06,1.78-1.74,3.68-1.51C122.74,142.62,124.18,143.67,124.05,144.74z"/>
			<path class="st2" d="M122.45,145.23c-0.09,0.72-1.2,1.18-2.49,1.02c-1.29-0.16-2.26-0.87-2.17-1.58c0.09-0.72,1.2-1.18,2.49-1.02
				C121.56,143.8,122.53,144.51,122.45,145.23z"/>
		</g>
		<g>
			<path class="st2" d="M143.12,165.49c-0.88,0.61-2.48-0.18-3.57-1.75c-1.1-1.58-1.27-3.35-0.38-3.96
				c0.88-0.61,2.48,0.17,3.57,1.75C143.84,163.11,144.01,164.88,143.12,165.49z"/>
			<path class="st2" d="M141.7,164.62c-0.6,0.41-1.68-0.12-2.42-1.19c-0.74-1.07-0.85-2.26-0.26-2.68c0.6-0.41,1.68,0.12,2.42,1.18
				C142.17,163.01,142.29,164.21,141.7,164.62z"/>
		</g>
		<g>
			<path class="st2" d="M154.4,166.1c-0.19,1.06-1.87,1.64-3.76,1.3c-1.89-0.34-3.27-1.46-3.08-2.52c0.19-1.06,1.87-1.64,3.76-1.3
				C153.21,163.92,154.59,165.05,154.4,166.1z"/>
			<path class="st2" d="M152.78,166.5c-0.13,0.71-1.26,1.11-2.54,0.88c-1.28-0.23-2.21-0.99-2.08-1.7c0.13-0.71,1.27-1.11,2.54-0.88
				C151.97,165.03,152.91,165.79,152.78,166.5z"/>
		</g>
		<g class="st11">
			<path class="st2" d="M118.99,59.43c1.34,0.77,2.38,1.98,3.2,3.27c1.04,1.65,1.55,4.1,3.21,5.18c1.32,0.86,3.31,0.03,3.65-1.5
				c0.51-2.3-1.43-5.02-2.82-6.76c-1.5-1.88-3.36-3.21-5.72-3.81C118.35,55.27,117.04,58.31,118.99,59.43L118.99,59.43z"/>
		</g>
		<path class="st2" d="M116.83,98.9c-0.46-0.09-0.93-0.04-1.38-0.11c-0.6-0.1-1.15-0.42-1.63-0.77c-0.39-0.29-0.88,0.28-0.49,0.59
			c0.3,0.24,0.7,0.5,1.13,0.72c-0.32,0.48-0.39,1.11-0.5,1.67c-0.16,0.77-0.36,1.51-0.64,2.24c-0.59,1.53-1.62,2.66-3.16,3.23
			c-3.73,1.39-8.2-0.77-10.24-3.99c0.47-0.44,0.88-1.08,0.78-1.72c-0.03-0.23-0.26-0.31-0.45-0.2c-0.81,0.46-1.15,1.91-2.3,1.7
			c-0.39-0.07-0.6,0.55-0.21,0.68c0.54,0.18,1.06,0.21,1.54-0.01c2.16,3.77,6.58,5.97,10.92,4.95c1.77-0.42,3.07-1.54,3.98-3.09
			c0.49-0.84,0.77-1.79,1.02-2.71c0.19-0.7,0.5-1.61,0.38-2.38c0.5,0.08,0.99,0,1.38-0.33C117.1,99.23,117.06,98.95,116.83,98.9z"/>
		<g>
			<path class="st2" d="M86.69,119.79c1.73-1.84,2.95-3.94,3.72-6.25c-21.98-6.72-30.14-26.79-23.31-48.63
				c-0.64,1.13-1.21,2.3-1.66,3.5C56.96,91.08,64.46,112.43,86.69,119.79z"/>
			<path class="st2" d="M52.1,157.07c-0.09-1.49-0.13-3-0.02-4.49c0.12-1.61,0.36-3.2,0.75-4.74c-2.06,3.41-3.17,7.29-3.46,11.32
				c-0.1,1.5-0.07,3,0.02,4.49c0.04,0.65,0.98,0.81,1.16,0.15c0.55-2.05,1.12-4.19,1.91-6.21C52.27,157.5,52.12,157.32,52.1,157.07z
				"/>
			<path class="st2" d="M175.99,140.77c-0.17,0.09-0.34,0.17-0.51,0.26c-3.06,1.36-6.71-0.42-8.59-2.97
				c-0.1-0.13-0.19-0.26-0.28-0.39c-0.79-0.17-1.56-0.41-2.33-0.74c-2.66-1.14-4.96-3.05-6.36-5.6c-1.25-2.26-1.96-4.8-3.39-6.96
				c-2.92-4.41-8.64-5.34-13.53-5.56c-4.65-0.21-9.57,0.26-14.1-1.04c-1.67-0.48-3.12-1.23-4.34-2.2c0.02,1.29,0.17,2.56,0.55,3.78
				c0.7,2.28,2.18,4.13,4.34,5.18c0.52,0.25,1.05,0.46,1.59,0.63c3.07,0.24,6.21,0.09,9.24,0.22c4.9,0.21,10.62,1.15,13.53,5.56
				c1.43,2.16,2.14,4.7,3.39,6.96c1.41,2.55,3.7,4.46,6.36,5.6c4.75,2.04,10.01,0.77,14.46-1.44c0.19-0.09,0.37-0.18,0.54-0.28
				C177.24,141.41,176.66,140.42,175.99,140.77z"/>
			<path class="st2" d="M168.98,151.99c-1.01-0.27-1.76,0-2.78,0.26c-1.51,0.38-3.02,0.77-4.55,1.09c-1.59,1.08-3.34,1.97-5.27,2.08
				c-6.77,0.38-10.07-7.01-12.47-12.08c-2.08-4.4-5.02-8.93-10.37-9.38c-4.89-0.42-9.93,2.09-14.76,0.81
				c-5.65-1.51-6.82-6.85-6.96-12.35c-0.18,0.71-0.37,1.42-0.59,2.12c-0.82,2.65-2.51,4.76-3.57,7.29c-0.35,0.84-0.6,1.72-0.63,2.61
				c0.58-1.06,1.12-2.13,1.49-3.32c0.21-0.7,0.41-1.41,0.59-2.12c0.13,5.5,1.31,10.84,6.96,12.35c4.83,1.29,9.87-1.23,14.76-0.81
				c5.35,0.46,8.29,4.99,10.38,9.38c2.39,5.07,5.69,12.46,12.46,12.08c2.79-0.16,5.22-1.96,7.34-3.61c2.49-1.94,4.9-4.27,7.96-5.25
				C169.53,152.96,169.57,152.15,168.98,151.99z"/>
			<path class="st2" d="M107.91,175.91c-0.6-1.42-1.12-2.87-1.53-4.35c-0.66-2.43-1.05-4.93-1.24-7.44
				c-0.22-2.99,0.06-6.1-0.51-9.05c-0.42-2.21-1.33-4.18-2.84-5.86c-1.46-1.63-3.14-3.05-4.64-4.64c-1.7-1.8-3.32-3.76-3.78-6.27
				c-0.34-1.84-0.21-3.68,0.19-5.48c-0.01,0.02-0.02,0.04-0.04,0.05c-3.12,4.21-7.79,7.69-12.94,8.93
				c-6.09,1.47-12.92-1.53-18.73,1.23c-4.56,2.16-6.45,6.7-7.79,11.27c1.21-1.96,2.81-3.62,5.08-4.69
				c5.81-2.76,12.64,0.24,18.73-1.23c5.16-1.24,9.82-4.72,12.94-8.93c0.01-0.02,0.03-0.04,0.04-0.05c-0.39,1.8-0.53,3.64-0.19,5.48
				c0.46,2.5,2.08,4.46,3.78,6.27c1.5,1.59,3.18,3.01,4.64,4.64c1.5,1.68,2.41,3.65,2.84,5.86c0.57,2.95,0.28,6.06,0.51,9.05
				c0.19,2.51,0.58,5.01,1.24,7.44c0.9,3.31,2.38,6.45,4,9.46c0.31,0.58,1.31,0.19,1.08-0.45
				C107.41,183.39,107.41,179.64,107.91,175.91z"/>
		</g>
	</g>
</g>
</svg>
