<?xml version="1.0" encoding="utf-8"?>
<!-- Generator: Adobe Illustrator 24.3.0, SVG Export Plug-In . SVG Version: 6.00 Build 0)  -->
<svg version="1.1" id="katman_1" xmlns="http://www.w3.org/2000/svg" xmlns:xlink="http://www.w3.org/1999/xlink" x="0px" y="0px"
	 viewBox="0 0 233 237" style="enable-background:new 0 0 233 237;" xml:space="preserve">
<style type="text/css">
	.st0{fill:#FFFFFF;}
	.st1{fill:#D38010;}
	.st2{fill:#FFD700;}
	.st3{fill:#F6A500;}
	.st4{fill:#C6C6C5;}
	.st5{fill:#6F6F6E;}
	.st6{fill:#FBD72F;}
	.st7{fill:#F8FAFD;}
	.st8{fill:#ADBBE0;}
	.st9{fill:#D5DFF2;}
	.st10{fill:#BAC8E5;}
	.st11{opacity:0.5;}
	.st12{fill:#FFE300;}
	.st13{opacity:0.25;}
	.st14{fill:#8EC26B;}
	.st15{fill:#F6D716;}
	.st16{fill:#7EC4A6;}
	.st17{fill:none;stroke:#7EC4A6;stroke-width:2;stroke-linecap:round;stroke-miterlimit:10;}
	.st18{fill:#DA611E;}
	.st19{fill:#FBCFA8;}
	.st20{fill:#F6AD74;}
	.st21{fill:#C74E1E;}
	.st22{fill:#B2421C;}
	.st23{opacity:0.4;fill:#904B3F;}
	.st24{fill:#2B2523;}
	.st25{opacity:0.4;}
	.st26{fill:#944C17;}
	.st27{fill:#F1C36B;}
	.st28{fill:#E28F5E;}
	.st29{fill:#D66A39;}
	.st30{fill:#F9C292;}
	.st31{fill:#FFF0C1;}
	.st32{fill:#FFFBF2;}
	.st33{fill:#FFF5D9;}
	.st34{fill:#964C30;}
	.st35{fill:#3D1B16;}
	.st36{fill:#FCD9B4;}
	.st37{fill:#E18444;}
	.st38{fill:#F4A264;}
	.st39{fill:#FCDDBD;}
	.st40{fill:#DA5D27;}
	.st41{fill:#E7C400;}
	.st42{fill:#349ED8;}
	.st43{fill:#164290;}
	.st44{opacity:0.4;fill:#8F8E8F;}
	.st45{opacity:0.3;}
	.st46{opacity:0.3;fill:#FFFFFF;}
	.st47{opacity:0.5;fill:#B0AFB2;}
	.st48{fill:#8E3B29;}
	.st49{opacity:0.6;fill:#FCDDBD;}
	.st50{fill:#F5F5F5;}
	.st51{fill:#ECECEC;}
	.st52{clip-path:url(#SVGID_2_);}
	.st53{fill:#79837A;}
	.st54{fill:#95A095;}
	.st55{fill:#DEDDC4;}
	.st56{fill:#3A3F39;}
	.st57{fill:#ADB7AF;}
	.st58{fill:#00944E;}
	.st59{fill:#F4A36E;}
	.st60{fill:#535B54;}
	.st61{clip-path:url(#SVGID_4_);}
	.st62{fill:#EEE7E0;}
	.st63{fill:#5D4B3E;}
	.st64{fill:#C09977;}
	.st65{fill:#EAE0CF;}
	.st66{fill:#E55F3B;}
	.st67{fill:#473C34;}
	.st68{fill:#D9C6A9;}
	.st69{opacity:0.88;fill:#FFFFFF;}
	.st70{opacity:0.2;fill:#FFFFFF;}
	.st71{fill:#B68E6E;}
	.st72{fill:#A67D60;}
	.st73{fill:#E3D1B8;}
	.st74{clip-path:url(#SVGID_6_);}
	.st75{fill-rule:evenodd;clip-rule:evenodd;fill:#FCC444;}
	.st76{fill-rule:evenodd;clip-rule:evenodd;fill:#ECECEC;}
	.st77{fill-rule:evenodd;clip-rule:evenodd;fill:#12100B;}
	.st78{fill-rule:evenodd;clip-rule:evenodd;fill:#12110B;}
	.st79{fill:#EEC600;}
	.st80{fill:#5F348A;}
	.st81{fill:none;stroke:#5F348A;stroke-width:2;stroke-miterlimit:10;}
	.st82{fill:#7C4D99;}
	.st83{fill:none;stroke:#7C4D99;stroke-width:2;stroke-miterlimit:10;}
	.st84{fill:none;stroke:#5F348A;stroke-width:1.5;stroke-linecap:round;stroke-linejoin:round;stroke-miterlimit:10;}
	.st85{opacity:0.2;}
	.st86{opacity:0.6;}
	.st87{fill:#B2D9C5;}
	.st88{fill:#B1B1B1;}
	.st89{opacity:0.6;fill:#B2D9C5;}
	.st90{opacity:0.44;fill:#FFD700;}
	.st91{opacity:0.6;fill:#FFD700;}
	.st92{opacity:0.49;}
	.st93{clip-path:url(#SVGID_8_);}
	.st94{opacity:0.5;fill:#FFD700;}
	.st95{clip-path:url(#SVGID_10_);fill:#FFD700;}
	.st96{clip-path:url(#SVGID_12_);fill:#FFD700;}
	.st97{fill-rule:evenodd;clip-rule:evenodd;fill:#FFD700;}
</style>
<g>
	<path class="st0" d="M216.65,135.58c-7.7,56.93-60.05,96.83-116.98,89.14c-56.92-7.69-96.8-60.06-89.11-116.98
		c7.67-56.89,60.04-96.79,116.96-89.1C184.43,26.32,224.33,78.68,216.65,135.58z"/>
	<path class="st16" d="M197.08,132.94c-6.23,46.1-48.65,78.42-94.76,72.2c-46.1-6.23-78.45-48.66-72.2-94.77
		c6.2-46.1,48.65-78.41,94.76-72.18C170.99,44.42,203.3,86.83,197.08,132.94z"/>
	<g class="st86">
		<path class="st87" d="M124.65,57.84c-0.16,1.04-1.5,1.94-3.67,2.66c-1.08,0.37-2.38,0.68-3.85,0.96c-0.73,0.17-1.53,0.23-2.34,0.4
			c-0.81,0.23-1.68,0.43-2.56,0.65c-1.77,0.43-3.73,0.64-5.75,1.13c-2.02,0.58-4.15,1.1-6.38,1.62c-2.11,0.8-4.4,1.45-6.69,2.3
			c-1.12,0.49-2.27,0.98-3.43,1.46c-0.59,0.23-1.18,0.47-1.77,0.71l-1.69,0.89c-1.17,0.59-2.3,1.16-3.43,1.72
			c-1.07,0.66-2.13,1.33-3.19,1.95c-0.52,0.31-1.05,0.59-1.58,0.92c-0.49,0.36-0.99,0.7-1.47,1.04c-0.97,0.68-1.95,1.33-2.89,1.98
			c-3.66,2.77-6.95,5.43-9.67,7.83c-5.53,4.75-9.07,8.02-11.03,7.14c-1.91-0.86-1.57-6.44,2.47-13.85
			c1.97-3.72,4.99-7.77,8.94-11.83c0.99-0.98,2.11-1.92,3.22-2.91c0.56-0.48,1.13-0.97,1.7-1.47c0.6-0.47,1.24-0.9,1.86-1.35
			c1.29-0.87,2.59-1.76,3.91-2.67c1.4-0.78,2.86-1.53,4.3-2.29c0.75-0.38,1.47-0.75,2.21-1.1c0.76-0.32,1.52-0.6,2.27-0.88
			c1.5-0.53,3.01-1.07,4.46-1.58c2.99-0.86,5.95-1.37,8.73-1.92c2.79-0.24,5.5-0.35,7.97-0.41c2.48,0.01,4.8,0.41,6.86,0.67
			c1.03,0.17,2.03,0.32,2.92,0.48c0.93,0.19,1.79,0.53,2.57,0.78c1.56,0.57,2.92,1.12,3.97,1.68
			C123.74,55.67,124.8,56.78,124.65,57.84z"/>
	</g>
	<g>
		<path class="st88" d="M127.02,22.31c-3.03-0.41-5.81,1.7-6.2,4.72c-0.41,3.01,1.7,5.8,4.73,6.2c3.01,0.4,5.77-1.71,6.19-4.72
			C132.15,25.48,130.04,22.71,127.02,22.31z"/>
		<path class="st88" d="M101.65,210.1c-3.04-0.41-5.79,1.7-6.22,4.72c-0.4,3.02,1.71,5.8,4.74,6.2c3.02,0.41,5.79-1.7,6.2-4.72
			C106.77,213.29,104.67,210.51,101.65,210.1z"/>
		<path class="st88" d="M20.42,103.52c-3.01-0.41-5.79,1.7-6.19,4.7c-0.41,3.03,1.7,5.8,4.72,6.21c3.02,0.41,5.77-1.71,6.18-4.73
			C25.56,106.69,23.44,103.92,20.42,103.52z"/>
		<path class="st88" d="M208.23,128.9c-3.03-0.41-5.78,1.68-6.2,4.71c-0.41,3.01,1.7,5.8,4.71,6.21c3.02,0.4,5.79-1.72,6.21-4.73
			C213.38,132.07,211.26,129.3,208.23,128.9z"/>
	</g>
	<g>
		<path class="st88" d="M52.82,41.92c-2.43,1.84-2.9,5.31-1.03,7.73c1.84,2.42,5.28,2.88,7.7,1.04c2.44-1.84,2.9-5.3,1.06-7.73
			C58.71,40.52,55.25,40.06,52.82,41.92z"/>
		<path class="st88" d="M167.67,192.66c-2.41,1.83-2.88,5.29-1.02,7.72c1.86,2.41,5.29,2.88,7.71,1.04
			c2.42-1.85,2.88-5.31,1.04-7.71C173.56,191.27,170.11,190.81,167.67,192.66z"/>
		<path class="st88" d="M34.89,174.72c-2.43,1.83-2.9,5.29-1.04,7.73c1.84,2.41,5.29,2.88,7.7,1.03c2.43-1.85,2.89-5.31,1.06-7.72
			C40.75,173.34,37.31,172.88,34.89,174.72z"/>
		<path class="st88" d="M185.63,59.86c-2.42,1.83-2.9,5.29-1.06,7.72c1.86,2.42,5.32,2.88,7.72,1.04c2.42-1.84,2.88-5.31,1.06-7.72
			C191.51,58.46,188.04,58,185.63,59.86z"/>
	</g>
	<path class="st89" d="M197.08,132.94c-6.24,46.11-48.65,78.42-94.76,72.2c-36.37-4.92-64.13-32.32-71.2-66.31
		c12.19,23.49,35.26,40.88,63.49,44.69c46.1,6.22,88.55-26.11,94.78-72.22c1.3-9.7,0.89-19.24-0.99-28.34
		C196.13,97.82,199.49,115.1,197.08,132.94z"/>
</g>
<g>
	<g>
		<polygon class="st2" points="111.79,87.53 116.56,93.9 118.36,99.16 119.51,108.3 119.02,118.41 115.4,137.39 110.64,153.87 
			106.7,166.47 106.7,174.23 112.94,175.75 128.21,176.86 146.11,177.27 152.02,175.33 152.35,167.72 149.39,161.9 144.96,154.7 
			141.18,145.14 138.23,133.79 136.26,121.04 135.76,107.75 135.11,95.29 136.42,91.13 139.05,87.39 120.33,86.84 		"/>
		<path class="st2" d="M149.39,161.9l-4.43-7.2l-3.78-9.56l-2.95-11.36l-1.97-12.74l-0.49-13.29l-0.66-12.46l1.32-4.16l2.62-3.74
			l-5.17-0.15l-2.71,9.02l0.33,15.24l1.48,22.85l4.92,20.08l5.09,11.77c0,0,2.13,6.37,2.13,6.78c0,0.26-0.07,2.6-0.11,4.27l1.1,0.03
			l5.91-1.94l0.33-7.62L149.39,161.9z"/>
		<path class="st2" d="M111.46,150.82l9.69,0.83l10.5,0.83h7.39l4.93-0.83l4.27,2.91l6.73,11.22l-0.16,3.19l-2.14,1.52l-10.01,0.83
			l-18.72-0.97l-11.5-1.11l-6.24-1.52l-1.8-1.66l-0.49-3.46c0,0,1.31-2.35,1.97-3.04c0.66-0.7,2.79-4.98,2.79-4.98L111.46,150.82z"
			/>
		<polygon class="st2" points="143.97,151.65 139.05,152.48 137.41,152.48 138.39,153.31 142.17,160.24 145.12,168.13 
			144.35,171.18 152.67,170.49 154.81,168.97 154.97,165.78 148.24,154.56 		"/>
		<polygon class="st2" points="147.18,153.84 143.97,151.65 139.05,152.48 131.66,152.48 121.15,151.65 111.46,150.82 
			110.28,152.41 116.72,153.59 128.21,154.56 137.9,155.11 143.48,154.28 		"/>
		<polygon class="st2" points="147.18,153.84 143.97,151.65 139.05,152.48 137.41,152.48 138.39,153.31 139.26,154.91 
			143.48,154.28 		"/>
		<path class="st2" d="M154.81,168.97l0.16-3.19l-0.08-0.13l-6,2.07l-7.22,0.83l-16.58-1.25l-14.61-1.66l-6.22-3.65
			c-0.2,0.35-0.34,0.6-0.34,0.6l0.49,3.46l1.8,1.66l6.24,1.52l11.5,1.11l18.72,0.97l10.01-0.83L154.81,168.97z"/>
		<polygon class="st2" points="154.81,168.97 154.97,165.78 154.9,165.65 148.9,167.72 145.12,168.15 144.35,171.18 152.67,170.49 
					"/>
		<polygon class="st2" points="142.17,176.03 131,175.75 113.93,174.5 106.7,172.61 106.7,174.23 112.94,175.75 128.21,176.86 
			146.11,177.27 152.02,175.33 152.07,174.08 		"/>
		<path class="st2" d="M145.06,175.46c-0.02,0.6-0.04,1.23-0.05,1.79l1.1,0.03l5.91-1.94l0.05-1.25L145.06,175.46z"/>
		<polygon class="st2" points="117.7,97.36 124.6,97.64 130.67,97.78 135.27,97.5 139.87,104.29 139.87,107.06 133.14,107.75 
			125.75,107.89 119.18,107.61 115.57,106.78 115.57,104.29 		"/>
		<polygon class="st2" points="131.18,97.75 131.82,98.47 133.14,104.15 133.14,107.75 139.87,107.06 139.87,104.29 135.27,97.5 		
			"/>
		<polygon class="st2" points="122.47,104.15 115.78,103.59 115.57,104.29 115.57,106.78 119.18,107.61 125.75,107.89 
			133.14,107.75 139.87,107.06 139.87,104.29 139.18,103.27 131.99,103.87 		"/>
		<polygon class="st2" points="133.14,104.15 133.14,107.75 139.87,107.06 139.87,104.29 139.18,103.27 133.05,103.78 		"/>
		<polygon class="st2" points="111.14,88.36 119.18,88.64 127.39,88.64 135.11,88.64 139.54,88.08 139.21,85.31 133.14,80.19 
			128.38,78.8 123.12,78.25 117.37,79.64 113.93,81.58 110.97,84.76 		"/>
		<polygon class="st2" points="139.21,85.31 133.14,80.19 128.38,78.8 128.36,78.8 133.3,82.41 134.94,86.97 135.1,88.64 
			135.11,88.64 139.54,88.08 		"/>
		<polygon class="st2" points="127.39,86.42 118.2,86.84 111.02,85.88 111.14,88.36 119.18,88.64 127.39,88.64 135.11,88.64 
			139.54,88.08 139.21,85.31 139.03,85.16 135.76,86.01 		"/>
		<polygon class="st2" points="134.61,86.07 134.94,86.97 135.1,88.64 135.11,88.64 139.54,88.08 139.21,85.31 139.03,85.16 
			135.76,86.01 		"/>
		<polygon class="st2" points="126.74,80.33 122.14,80.05 119.18,77.84 115.57,72.3 113.11,68.56 114.75,67.17 119.51,68.28 
			121.31,62.74 124.43,59.28 126.24,61.08 128.05,65.23 128.7,68.14 132.15,66.75 134.78,67.31 133.63,69.39 132.48,74.37 
			131.33,77.42 		"/>
		<polygon class="st2" points="128.7,68.14 128.05,65.23 126.24,61.08 124.43,59.28 121.31,62.74 119.51,68.28 114.75,67.17 
			113.11,68.56 113.65,69.38 116.06,68.97 118.52,69.8 120.49,71.26 121.56,65.72 123.12,62.53 124.27,60.46 125.83,63.22 
			127.23,67.31 127.8,70.08 130.02,68.83 132.4,68.28 134.14,68.47 134.78,67.31 132.15,66.75 		"/>
		<polygon class="st2" points="119.52,68.25 119.51,68.28 114.75,67.17 113.11,68.56 113.65,69.38 116.06,68.97 118.52,69.8 
			120.43,71.21 		"/>
		<polygon class="st2" points="127.8,70.08 128.71,68.14 128.7,68.14 128.05,65.23 126.24,61.08 124.43,59.28 124.38,59.34 
			124.25,60.5 124.27,60.46 125.83,63.22 127.23,67.31 		"/>
	</g>
	<g>
		<polygon class="st2" points="74.36,179.84 74.14,172.84 73.7,164.3 79.17,155.54 83.34,142.19 84.43,131.9 83.77,119.2 
			99.76,118.55 98.88,133.22 102.6,145.69 107.42,155.77 110.26,162.11 113.54,165.84 112.45,180.28 99.1,181.59 87.28,181.59 
			78.74,180.94 		"/>
		<polygon class="st2" points="107.42,155.77 102.6,145.69 98.88,133.22 99.76,118.55 94.24,118.78 93.51,131.41 97.78,147.17 
			102.54,158.99 105.66,165.73 105.66,168.35 104.5,181.06 112.45,180.28 113.54,165.84 110.26,162.11 		"/>
		<polygon class="st2" points="72.17,163.92 75.29,164.9 92.2,167.2 101.72,166.38 106.98,165.89 114.37,165.56 114.53,168.52 
			114.04,171.96 111.08,173.11 102.87,173.44 90.07,174.1 80.55,172.62 74.63,171.47 72.33,170.16 71.51,165.89 		"/>
		<polygon class="st2" points="102.87,173.44 111.08,173.11 114.04,171.96 114.53,168.52 114.5,168.01 107.8,169.17 101.23,170.16 
			91.22,169.5 78.41,168.19 71.62,165.56 71.51,165.89 72.33,170.16 74.63,171.47 80.55,172.62 90.07,174.1 		"/>
		<polygon class="st2" points="103.75,173.41 111.08,173.11 114.04,171.96 114.53,168.52 114.37,165.56 106.98,165.89 
			104.11,166.16 104.84,168.35 104.35,171.96 		"/>
		<polygon class="st2" points="111.08,173.11 114.04,171.96 114.53,168.52 114.5,168.01 107.8,169.17 104.67,169.64 104.35,171.96 
			103.75,173.41 		"/>
		<polygon class="st2" points="102.54,179.84 91.22,180.01 79.23,179.52 74.29,177.59 74.36,179.84 78.74,180.94 87.28,181.59 
			99.1,181.59 112.45,180.28 112.65,177.71 		"/>
		<polygon class="st2" points="104.65,179.4 104.5,181.06 112.45,180.28 112.65,177.71 		"/>
		<polygon class="st2" points="78.41,154.73 76.93,156.2 76.93,158.17 80.38,159.98 95.65,161.29 104.84,160.47 109.44,159.16 
			109.6,156.69 108.13,155.38 105.01,156.04 97.13,157.19 88.76,157.02 80.71,156.04 		"/>
		<polygon class="st2" points="104.84,160.47 109.44,159.16 109.6,156.69 109.52,156.63 103.53,158.83 96.31,158.99 84.65,158.83 
			77.16,155.97 76.93,156.2 76.93,158.17 80.38,159.98 95.65,161.29 		"/>
		<polygon class="st2" points="104.84,160.47 109.44,159.16 109.6,156.69 108.13,155.38 105.01,156.04 101.33,156.57 102.21,157.6 
			102.63,159.4 102.26,160.7 		"/>
		<polygon class="st2" points="102.26,160.7 104.84,160.47 109.44,159.16 109.6,156.69 109.52,156.63 103.53,158.83 102.5,158.85 
			102.63,159.4 		"/>
		<polygon class="st2" points="83.01,109 79.15,113.68 76.36,116.31 76.11,119.43 77.42,121.56 89.33,121.89 100.98,121.15 
			103.37,120.9 104.27,116.8 100.33,110.97 97.04,107.77 		"/>
		<polygon class="st2" points="100.98,121.15 103.37,120.9 104.27,116.8 103.69,115.95 101.4,116.39 97.13,116.96 83.25,117.54 
			76.33,116.64 76.11,119.43 77.42,121.56 89.33,121.89 		"/>
		<polygon class="st2" points="100.98,121.15 103.37,120.9 104.27,116.8 100.33,110.97 97.04,107.77 92,108.21 93.76,111.87 
			96.47,114.25 98.27,116.8 98.01,121.34 		"/>
		<polygon class="st2" points="103.37,120.9 104.27,116.8 103.69,115.95 101.4,116.39 98.27,116.81 98.01,121.34 100.98,121.15 		
			"/>
		<polygon class="st2" points="91.22,90.69 82.18,93.65 79.07,97.01 78.98,102.43 80.22,106.95 82.84,109.25 86.13,110.89 
			92.61,111.13 97.29,109.82 100.33,107.52 101.07,101.53 99.59,96.03 96.14,93.16 		"/>
		<polygon class="st2" points="101.07,101.53 100.31,98.7 99.59,99.64 97.78,104.24 94.17,107.03 88.18,107.93 82.02,105.39 
			79.02,100 78.98,102.43 80.22,106.95 82.84,109.25 86.13,110.89 92.61,111.13 97.29,109.82 100.33,107.52 		"/>
		<path class="st2" d="M96,93.09l-4.79-2.39l-8.25,2.7l-1.85,3.54l1.89,5.17l5.09,2.13l5.66-0.66c0,0,3.28-3.61,3.37-3.94
			c0.08-0.33,0.16-4.02,0.16-4.02L96,93.09z"/>
	</g>
</g>
</svg>
