<?xml version="1.0" encoding="utf-8"?>
<!-- Generator: Adobe Illustrator 24.3.0, SVG Export Plug-In . SVG Version: 6.00 Build 0)  -->
<svg version="1.1" id="katman_1" xmlns="http://www.w3.org/2000/svg" xmlns:xlink="http://www.w3.org/1999/xlink" x="0px" y="0px"
	 viewBox="0 0 233 237" style="enable-background:new 0 0 233 237;" xml:space="preserve">
<style type="text/css">
	.st0{fill:#FFFFFF;}
	.st1{fill:#D38010;}
	.st2{fill:#FFD700;}
	.st3{fill:#F6A500;}
	.st4{fill:#C6C6C5;}
	.st5{fill:#6F6F6E;}
	.st6{fill:#FBD72F;}
	.st7{fill:#F8FAFD;}
	.st8{fill:#ADBBE0;}
	.st9{fill:#D5DFF2;}
	.st10{fill:#BAC8E5;}
	.st11{opacity:0.5;}
	.st12{fill:#FFE300;}
	.st13{opacity:0.25;}
	.st14{fill:#8EC26B;}
	.st15{fill:#F6D716;}
	.st16{fill:#7EC4A6;}
	.st17{fill:none;stroke:#7EC4A6;stroke-width:2;stroke-linecap:round;stroke-miterlimit:10;}
	.st18{fill:#DA611E;}
	.st19{fill:#FBCFA8;}
	.st20{fill:#F6AD74;}
	.st21{fill:#C74E1E;}
	.st22{fill:#B2421C;}
	.st23{opacity:0.4;fill:#904B3F;}
	.st24{fill:#2B2523;}
	.st25{opacity:0.4;}
	.st26{fill:#944C17;}
	.st27{fill:#F1C36B;}
	.st28{fill:#E28F5E;}
	.st29{fill:#D66A39;}
	.st30{fill:#F9C292;}
	.st31{fill:#FFF0C1;}
	.st32{fill:#FFFBF2;}
	.st33{fill:#FFF5D9;}
	.st34{fill:#964C30;}
	.st35{fill:#3D1B16;}
	.st36{fill:#FCD9B4;}
	.st37{fill:#E18444;}
	.st38{fill:#F4A264;}
	.st39{fill:#FCDDBD;}
	.st40{fill:#DA5D27;}
	.st41{fill:#E7C400;}
	.st42{fill:#349ED8;}
	.st43{fill:#164290;}
	.st44{opacity:0.4;fill:#8F8E8F;}
	.st45{opacity:0.3;}
	.st46{opacity:0.3;fill:#FFFFFF;}
	.st47{opacity:0.5;fill:#B0AFB2;}
	.st48{fill:#8E3B29;}
	.st49{opacity:0.6;fill:#FCDDBD;}
	.st50{fill:#F5F5F5;}
	.st51{fill:#ECECEC;}
	.st52{clip-path:url(#SVGID_2_);}
	.st53{fill:#79837A;}
	.st54{fill:#95A095;}
	.st55{fill:#DEDDC4;}
	.st56{fill:#3A3F39;}
	.st57{fill:#ADB7AF;}
	.st58{fill:#00944E;}
	.st59{fill:#F4A36E;}
	.st60{fill:#535B54;}
	.st61{clip-path:url(#SVGID_4_);}
	.st62{fill:#EEE7E0;}
	.st63{fill:#5D4B3E;}
	.st64{fill:#C09977;}
	.st65{fill:#EAE0CF;}
	.st66{fill:#E55F3B;}
	.st67{fill:#473C34;}
	.st68{fill:#D9C6A9;}
	.st69{opacity:0.88;fill:#FFFFFF;}
	.st70{opacity:0.2;fill:#FFFFFF;}
	.st71{fill:#B68E6E;}
	.st72{fill:#A67D60;}
	.st73{fill:#E3D1B8;}
	.st74{clip-path:url(#SVGID_6_);}
	.st75{fill-rule:evenodd;clip-rule:evenodd;fill:#FCC444;}
	.st76{fill-rule:evenodd;clip-rule:evenodd;fill:#ECECEC;}
	.st77{fill-rule:evenodd;clip-rule:evenodd;fill:#12100B;}
	.st78{fill-rule:evenodd;clip-rule:evenodd;fill:#12110B;}
	.st79{fill:#EEC600;}
	.st80{fill:#5F348A;}
	.st81{fill:none;stroke:#5F348A;stroke-width:2;stroke-miterlimit:10;}
	.st82{fill:#7C4D99;}
	.st83{fill:none;stroke:#7C4D99;stroke-width:2;stroke-miterlimit:10;}
	.st84{fill:none;stroke:#5F348A;stroke-width:1.5;stroke-linecap:round;stroke-linejoin:round;stroke-miterlimit:10;}
	.st85{opacity:0.2;}
	.st86{opacity:0.6;}
	.st87{fill:#B2D9C5;}
	.st88{fill:#B1B1B1;}
	.st89{opacity:0.6;fill:#B2D9C5;}
	.st90{opacity:0.44;fill:#FFD700;}
	.st91{opacity:0.6;fill:#FFD700;}
	.st92{opacity:0.49;}
	.st93{clip-path:url(#SVGID_8_);}
	.st94{opacity:0.5;fill:#FFD700;}
	.st95{clip-path:url(#SVGID_10_);fill:#FFD700;}
	.st96{clip-path:url(#SVGID_12_);fill:#FFD700;}
	.st97{fill-rule:evenodd;clip-rule:evenodd;fill:#FFD700;}
</style>
<g>
	<path class="st0" d="M217.3,133.53c-7.67,56.74-59.85,96.51-116.59,88.84c-56.73-7.66-96.47-59.85-88.81-116.59
		c7.65-56.7,59.84-96.46,116.56-88.8C185.19,24.64,224.96,76.82,217.3,133.53z"/>
	<path class="st16" d="M197.8,130.9c-6.21,45.95-48.48,78.16-94.45,71.96c-45.94-6.21-78.18-48.5-71.96-94.45
		c6.18-45.95,48.49-78.14,94.45-71.94C171.8,42.68,204,84.94,197.8,130.9z"/>
	<g class="st86">
		<path class="st87" d="M125.61,56.05c-0.15,1.04-1.5,1.93-3.65,2.65c-1.07,0.37-2.38,0.68-3.84,0.96c-0.73,0.17-1.52,0.23-2.34,0.4
			c-0.81,0.23-1.67,0.43-2.55,0.64c-1.77,0.43-3.71,0.64-5.73,1.12c-2.01,0.58-4.13,1.09-6.36,1.61c-2.1,0.8-4.39,1.45-6.67,2.29
			c-1.12,0.49-2.26,0.98-3.42,1.46c-0.58,0.23-1.17,0.47-1.77,0.71l-1.68,0.89c-1.16,0.59-2.29,1.16-3.42,1.71
			c-1.06,0.66-2.13,1.33-3.17,1.95c-0.52,0.31-1.05,0.59-1.58,0.92c-0.49,0.36-0.99,0.7-1.46,1.04c-0.96,0.68-1.95,1.33-2.88,1.98
			c-3.65,2.75-6.93,5.41-9.64,7.8c-5.51,4.74-9.04,8-10.99,7.11c-1.9-0.86-1.57-6.42,2.46-13.8c1.96-3.7,4.97-7.74,8.91-11.79
			c0.99-0.97,2.1-1.91,3.21-2.9c0.55-0.48,1.13-0.97,1.7-1.46c0.6-0.47,1.24-0.9,1.86-1.35c1.28-0.87,2.58-1.76,3.9-2.66
			c1.4-0.78,2.85-1.52,4.29-2.28c0.75-0.38,1.46-0.75,2.2-1.1c0.76-0.32,1.51-0.6,2.26-0.88c1.49-0.53,3-1.06,4.45-1.58
			c2.98-0.86,5.93-1.36,8.71-1.91c2.78-0.24,5.48-0.35,7.94-0.41c2.47,0.01,4.78,0.4,6.84,0.66c1.03,0.17,2.02,0.31,2.91,0.48
			c0.92,0.19,1.79,0.53,2.56,0.77c1.56,0.57,2.91,1.12,3.96,1.67C124.71,53.89,125.76,55,125.61,56.05z"/>
	</g>
	<g>
		<path class="st88" d="M127.97,20.64c-3.02-0.41-5.79,1.7-6.18,4.7c-0.41,3,1.69,5.78,4.72,6.18c3,0.4,5.75-1.7,6.17-4.7
			C133.09,23.8,130.98,21.05,127.97,20.64z"/>
		<path class="st88" d="M102.69,207.81c-3.03-0.41-5.78,1.69-6.2,4.71c-0.4,3.01,1.7,5.78,4.72,6.18c3.01,0.4,5.77-1.69,6.18-4.71
			C107.79,210.98,105.7,208.22,102.69,207.81z"/>
		<path class="st88" d="M21.73,101.58c-3-0.41-5.78,1.69-6.17,4.69c-0.41,3.02,1.69,5.78,4.71,6.19c3.01,0.41,5.75-1.71,6.16-4.71
			C26.85,104.74,24.74,101.98,21.73,101.58z"/>
		<path class="st88" d="M208.92,126.87c-3.02-0.41-5.76,1.68-6.17,4.69c-0.41,3,1.7,5.78,4.7,6.19c3.01,0.4,5.77-1.71,6.19-4.71
			C214.04,130.04,211.93,127.27,208.92,126.87z"/>
	</g>
	<g>
		<path class="st88" d="M54.03,40.18c-2.42,1.84-2.9,5.29-1.03,7.7c1.83,2.41,5.26,2.87,7.67,1.04c2.43-1.84,2.89-5.29,1.05-7.7
			C59.89,38.8,56.45,38.34,54.03,40.18z"/>
		<path class="st88" d="M168.49,190.43c-2.4,1.82-2.87,5.27-1.02,7.69c1.85,2.41,5.28,2.87,7.68,1.04c2.41-1.84,2.87-5.29,1.04-7.69
			C174.37,189.04,170.92,188.58,168.49,190.43z"/>
		<path class="st88" d="M36.16,172.54c-2.43,1.82-2.89,5.28-1.04,7.7c1.83,2.4,5.27,2.87,7.67,1.03c2.42-1.84,2.88-5.3,1.05-7.69
			C42,171.16,38.56,170.7,36.16,172.54z"/>
		<path class="st88" d="M186.38,58.07c-2.41,1.83-2.89,5.27-1.05,7.69c1.86,2.41,5.3,2.87,7.69,1.04c2.41-1.84,2.88-5.29,1.05-7.7
			C192.25,56.68,188.79,56.21,186.38,58.07z"/>
	</g>
	<path class="st89" d="M197.8,130.9c-6.22,45.95-48.48,78.16-94.45,71.96c-36.24-4.91-63.92-32.21-70.96-66.09
		c12.15,23.41,35.14,40.75,63.27,44.54c45.94,6.2,88.25-26.02,94.46-71.98c1.3-9.67,0.89-19.18-0.99-28.25
		C196.85,95.9,200.21,113.13,197.8,130.9z"/>
</g>
<g>
	<path class="st97" d="M79.8,108.19c1.19-2.7-12.58-1.6-11.35,2.51c0.58,1.97,4.6,3.16,6.87,2.59
		C78.76,112.41,79.71,108.34,79.8,108.19L79.8,108.19z"/>
	<path class="st97" d="M83.52,95.27c-3.96,5.66-5.66,7-6.07,16.04c-0.02,0.91-4.32,2.66-6.23,0.37c-2.9-3.54-1.6-20.08,2.03-19.07
		C74.37,92.91,83.52,95.27,83.52,95.27L83.52,95.27z"/>
	<path class="st97" d="M79.8,108.19c-3.2,10.42,1.43,14.42,0.06,15.02c-4.39,1.95-8.3-4.06-11.28-12.32
		c-0.19-0.54,3.05,1.62,6.01,0.91C78.42,110.85,80.23,106.72,79.8,108.19L79.8,108.19z"/>
	<path class="st97" d="M94.59,78.66c-6.27,10.09-13.27,7.54-11.33,7.18c4.48-0.84-2.62-2.7,2.03-2.66c1.38,0.02-1.69-1.92-0.06-2.16
		c1.86-0.26,1.75,0.41,0.37-1.62c-0.63-0.91,5.01,0.63,0.95-2.68c-0.45-0.37,1.19,0.15,2.12-0.71c0.34-0.24-1.36-1.04-1.62-1.47
		c-0.5-0.82,2.31,0.28,2.49-0.69c0.07-0.45-1.1-1.1-1.12-1.14c-0.33-0.46,3.76-1.45,3.05-1.82c-11.74-6.1-23.58,6.79-21.88,16.9
		c1.17,6.89,8.88,10.03,15.15,9.08c3.11-0.45,5.79-2.66,7.26-4.47C96.49,86.88,95.73,83.72,94.59,78.66L94.59,78.66z"/>
	<path class="st97" d="M80.25,71.94c-6.03,1.53-7.76,7.28-7.2,7.87c0.37,0.37,1.3-2.21,3.42-4.3c1.82-1.82,4.76-3.13,6.42-3.5
		C83.11,71.94,81.75,71.55,80.25,71.94L80.25,71.94z"/>
	<path class="st97" d="M59.59,114.83c-0.52-2.68-11,3.8-7.85,6.68c1.51,1.38,5.62,0.54,7.09-0.8
		C61.04,118.68,59.61,114.98,59.59,114.83L59.59,114.83z"/>
	<path class="st97" d="M56.82,120.69c3.35-7.76-7.48-16.71-7.8-15.91C44.33,116.51,56.33,121.85,56.82,120.69L56.82,120.69z"/>
	<path class="st97" d="M68.11,123.73c-1.56-2.23-8.26,7.61-4.17,8.93c1.95,0.63,5.15-1.45,5.92-3.26
		C71.02,126.63,68.19,123.86,68.11,123.73L68.11,123.73z"/>
	<path class="st97" d="M59.48,114.5c2.51,5.6,2.68,7.46,9.92,12.43c0.71,0.5-0.19,4.3-3.13,4.37c-4.54,0.11-14.59-7.05-15.11-10.94
		c1.17,0.28,3.63-0.06,5.3-1.23C58.51,117.68,59.48,114.5,59.48,114.5L59.48,114.5z"/>
	<path class="st97" d="M68.11,123.73c6.85,7.57,12.71,6.55,12.45,7.78c-0.8,3.98-7.91,3.46-16.38,1.17
		c-0.56-0.17,2.46-1.34,3.48-3.7C68.99,125.94,67.16,122.67,68.11,123.73L68.11,123.73z"/>
	<path class="st97" d="M67.44,160.68c-0.8,2.08-11.37-0.48-9.4-4.26c0.95-1.82,5.1-2.44,6.94-1.69
		C67.74,155.88,67.5,160.52,67.44,160.68L67.44,160.68z"/>
	<path class="st97" d="M63.05,155.31c6.46,5.45,0.76,18.29,0.11,17.73C53.73,164.61,62.08,154.49,63.05,155.31L63.05,155.31z"/>
	<path class="st97" d="M71.15,149.93c-2.01,1.84-6.44-9.19-2.18-9.6c2.03-0.22,4.73,2.51,5.1,4.45
		C74.63,147.75,71.26,149.82,71.15,149.93L71.15,149.93z"/>
	<path class="st97" d="M67.41,160.87c0.97-6.05,0.65-7.89,6.36-14.57c0.56-0.67-1.3-4.11-4.15-3.41
		c-4.41,1.08-12.28,10.59-11.78,14.46c1.06-0.56,3.52-0.87,5.45-0.15C65.64,158.06,67.41,160.87,67.41,160.87L67.41,160.87z"/>
	<path class="st97" d="M71.15,149.93c8.3-5.92,13.81-3.67,13.83-4.93c0.04-4.04-7-5.06-15.78-4.65c-0.58,0.04,2.12,1.84,2.64,4.37
		C72.47,147.99,69.99,150.78,71.15,149.93L71.15,149.93z"/>
	<path class="st97" d="M84.79,163.33c0.22,2.14-8.15,4.5-8.17,0.41c-0.02-1.97,2.53-5.34,4.13-5.17
		C83.19,158.8,84.79,163.18,84.79,163.33L84.79,163.33z"/>
	<path class="st97" d="M81.7,158.95c6.53,4.71,0.95,16.97,0.3,16.47C72.47,168.09,80.73,158.23,81.7,158.95L81.7,158.95z"/>
	<path class="st97" d="M84.56,156.72c-1.15,2.46-7.7-6.62-5.69-8.04c1.66-1.19,6.03,0.24,6.42,2.18
		C85.59,152.38,84.62,156.59,84.56,156.72L84.56,156.72z"/>
	<path class="st97" d="M84.73,163.44c-1-4.43-1.75-5.6,0.54-11.91c0.22-0.63-2.12-2.44-4.02-1.08c-2.92,2.08-5.99,10.98-4.52,13.49
		c0.61-0.71,2.33-1.66,3.93-1.75C82.63,162.06,84.73,163.46,84.73,163.44L84.73,163.44z"/>
	<path class="st97" d="M84.66,156.35c2.57-7.48,5.86-6.07,5.38-7.24c-1.51-3.76-6.05-3.05-11-0.54c0,0,1.97,0.95,3.44,2.83
		C83.56,152.79,84.17,154.86,84.66,156.35L84.66,156.35z"/>
	<path class="st97" d="M170.35,120.49c1.06-2.49,9.92,6.07,6.22,8.21c-1.77,1.02-5.62-0.69-6.74-2.31
		C168.1,123.95,170.29,120.64,170.35,120.49L170.35,120.49z"/>
	<path class="st97" d="M147.7,111c-0.41-2.92,12.56,1.86,10.27,5.49c-1.1,1.73-5.3,1.79-7.33,0.63
		C147.55,115.35,147.74,111.18,147.7,111L147.7,111z"/>
	<path class="st97" d="M147.61,97.58c2.27,6.51,3.57,8.26,1.51,17.06c-0.22,0.89,3.44,3.74,5.9,2.03c3.74-2.62,6.96-18.89,3.2-18.89
		C157.06,97.77,147.61,97.56,147.61,97.58L147.61,97.58z"/>
	<path class="st97" d="M147.7,111c0.26,10.89-5.25,13.51-4.13,14.44c3.72,3.07,9.08-1.66,14.2-8.8c0.35-0.48-3.37,0.74-6.03-0.76
		C148.32,113.94,147.67,109.49,147.7,111L147.7,111z"/>
	<path class="st97" d="M141.45,78.58c3.29,11.43,10.74,10.87,8.95,9.99c-4.09-2.03,3.26-1.9-1.23-3.11
		c-1.34-0.37,2.14-1.41,0.63-2.08c-1.71-0.74-1.77-0.07,0.11-1.64c0.84-0.71-4.99-0.76-0.19-2.85c0.54-0.22-1.19-0.17-1.84-1.28
		c-0.28-0.3,1.58-0.61,1.97-0.95c0.69-0.65-2.31-0.37-2.21-1.34c0.04-0.45,1.34-0.78,1.38-0.8c0.41-0.35-3.24-2.42-2.46-2.57
		c12.95-2.7,20.88,12.9,16.49,22.18c-2.98,6.31-11.26,7.26-17.03,4.65c-2.85-1.28-4.86-4.13-5.79-6.25
		C137.39,85.97,138.96,83.14,141.45,78.58L141.45,78.58z"/>
	<path class="st97" d="M157.06,75.98c5.38,3.11,5.51,9.12,4.82,9.51c-0.48,0.28-0.67-2.46-2.14-5.06c-1.27-2.23-3.72-4.3-5.23-5.1
		C154.31,75.23,155.74,75.21,157.06,75.98L157.06,75.98z"/>
	<path class="st97" d="M171.78,126.8c-1.62-8.3,10.89-14.72,11.02-13.86C184.88,125.42,172.01,128.06,171.78,126.8L171.78,126.8z"/>
	<path class="st97" d="M160.1,127.37c2.01-1.82,6.44,9.21,2.18,9.62c-2.03,0.22-4.73-2.51-5.1-4.45
		C156.62,129.57,160,127.47,160.1,127.37L160.1,127.37z"/>
	<path class="st97" d="M170.5,120.21c-3.63,4.93-4.19,6.7-12.32,10.01c-0.82,0.32-0.76,4.24,2.12,4.95
		c4.41,1.06,15.76-3.78,17.1-7.46c-1.21,0.02-3.52-0.84-4.91-2.36C170.78,123.52,170.5,120.19,170.5,120.21L170.5,120.21z"/>
	<path class="st97" d="M160.1,127.37c-8.3,5.95-13.81,3.7-13.81,4.95c-0.07,4.04,6.98,5.06,15.76,4.63
		c0.58-0.02-2.12-1.82-2.61-4.35C158.79,129.33,161.27,126.54,160.1,127.37L160.1,127.37z"/>
	<path class="st97" d="M157.34,159.88c0.8,2.08,11.37-0.48,9.4-4.26c-0.95-1.82-5.1-2.44-6.94-1.69
		C157.03,155.08,157.27,159.75,157.34,159.88L157.34,159.88z"/>
	<path class="st97" d="M161.72,154.51c-6.46,5.45-0.76,18.29-0.11,17.72C171.04,163.81,162.7,153.69,161.72,154.51L161.72,154.51z"
		/>
	<path class="st97" d="M153.62,149.13c2.01,1.84,6.44-9.19,2.18-9.6c-2.03-0.22-4.73,2.51-5.1,4.45
		C150.16,146.95,153.51,149.02,153.62,149.13L153.62,149.13z"/>
	<path class="st97" d="M157.36,160.07c-0.97-6.05-0.65-7.89-6.35-14.57c-0.56-0.65,1.3-4.11,4.17-3.41
		c4.39,1.08,12.26,10.59,11.76,14.46c-1.06-0.56-3.52-0.84-5.45-0.15C159.13,157.26,157.36,160.07,157.36,160.07L157.36,160.07z"/>
	<path class="st97" d="M153.62,149.13c-8.3-5.92-13.79-3.67-13.81-4.93c-0.06-4.04,7-5.06,15.76-4.62c0.58,0.02-2.12,1.81-2.62,4.34
		C152.3,147.19,154.79,149.98,153.62,149.13L153.62,149.13z"/>
	<path class="st97" d="M139.98,162.54c-0.22,2.14,8.15,4.5,8.17,0.41c0.02-1.97-2.53-5.34-4.13-5.17
		C141.58,157.99,139.98,162.38,139.98,162.54L139.98,162.54z"/>
	<path class="st97" d="M143.07,158.15c-6.53,4.71-0.93,16.97-0.28,16.47C152.32,167.29,144.06,157.43,143.07,158.15L143.07,158.15z"
		/>
	<path class="st97" d="M140.22,155.94c1.17,2.44,7.7-6.61,5.69-8.06c-1.66-1.19-6.03,0.24-6.42,2.18
		C139.18,151.58,140.15,155.79,140.22,155.94L140.22,155.94z"/>
	<path class="st97" d="M140.04,162.66c1-4.45,1.75-5.62-0.54-11.93c-0.22-0.63,2.12-2.44,4.02-1.08c2.94,2.07,6.01,10.98,4.54,13.49
		c-0.61-0.71-2.36-1.66-3.96-1.75C142.14,161.26,140.04,162.66,140.04,162.66L140.04,162.66z"/>
	<path class="st97" d="M140.13,155.57c-2.59-7.5-5.88-6.1-5.4-7.26c1.51-3.76,6.08-3.05,11-0.54c0.02,0-1.95,0.95-3.44,2.83
		C141.21,151.99,140.63,154.06,140.13,155.57L140.13,155.57z"/>
	<path class="st97" d="M139.53,145.39c0.76,4.52,5.97,2.14,4.04-2.27c-0.11-0.26,2.74,3.85,5.12-2.62c3.2-8.73-3.7-24.45-8.71-31.17
		c-7.46-9.99-17.08-10.66-28.12-10.38c-27.04,0.71-34.02,9.86-34.89,38.78c-0.04,1.62,1.38,4.78,3.74,2.07
		c-0.22,1.17-0.35,2.05-0.37,2.77c-0.07,1.38,0.39,3.91,2.31,3.11c0.56-0.24,1.06-1.02,1.28-0.56
		C90,157.35,138.79,156.68,139.53,145.39L139.53,145.39z"/>
	<path class="st97" d="M131.2,106.98c-2.21,0.17-4.5,2.12-4.67,5.38c0-0.02,0.82-1.79,2.03-3.16
		C129.71,107.89,131.25,106.98,131.2,106.98L131.2,106.98z M127.57,116.08c-0.73-2.38,5.47-13.38,11.2-5.73
		c1.6,2.14,5.62-0.61,4.45,1.15c-0.3,0.45-1.64,1.88-2.94,1.92c-1.19,0.02-2.94-3.44-6.07-3.05
		C130.64,110.83,127.59,116.08,127.57,116.08L127.57,116.08z"/>
	<path class="st97" d="M93.55,109.38c2.2-0.11,4.73,1.56,5.3,4.76c0-0.02-1.04-1.66-2.4-2.87C95.13,110.09,93.5,109.38,93.55,109.38
		L93.55,109.38z M98.24,117.96c0.45-2.44-7.03-12.62-11.78-4.32c-1.34,2.31-5.66,0.09-4.28,1.69c0.34,0.39,1.86,1.66,3.13,1.53
		c1.19-0.11,2.51-3.76,5.66-3.74C94.59,113.12,98.24,117.98,98.24,117.96L98.24,117.96z"/>
	<path class="st97" d="M114.56,116.23c1.19-1.02,1.73-2.68,2.33-2.38c0.61,0.3-1.15,3.67-3.7,3.87c-1.25,0.09-2.9-0.39-4.17-2.79
		c-0.35-0.63-0.13-1.1,0.26-0.69c0.41,0.43,0.86,1.1,1.45,1.64C111.88,116.93,113.33,117.27,114.56,116.23L114.56,116.23z"/>
	<path class="st97" d="M137.02,120.84c1.43,2.23,10.12,1.32,7.93-4.41C144.02,114.01,133.5,115.3,137.02,120.84L137.02,120.84z"/>
	<path class="st97" d="M89.92,124.04c-1.41,2.23-10.12,1.34-7.93-4.41C82.91,117.21,93.44,118.5,89.92,124.04L89.92,124.04z"/>
	<path class="st97" d="M130.9,120.45c0.02,0.15-0.15,0.3-0.32,0.32c-0.13,0-0.26-0.04-0.32-0.3c-0.04-0.13,0.09-0.3,0.24-0.37
		C130.66,120.02,130.86,120.06,130.9,120.45L130.9,120.45z M127.2,120.77c0.02,0.15-0.17,0.3-0.35,0.32c-0.13,0-0.26-0.02-0.32-0.3
		c-0.02-0.13,0.09-0.3,0.24-0.37C126.95,120.34,127.16,120.41,127.2,120.77L127.2,120.77z M130.9,123.04
		c0.02,0.15-0.17,0.3-0.35,0.33c-0.13,0-0.26-0.02-0.32-0.3c-0.02-0.13,0.09-0.3,0.24-0.37
		C130.64,122.61,130.86,122.67,130.9,123.04L130.9,123.04z M128.83,122.03c0.02,0.17-0.17,0.33-0.35,0.33
		c-0.13,0.02-0.26-0.02-0.32-0.3c-0.02-0.13,0.09-0.28,0.24-0.37C128.57,121.62,128.78,121.66,128.83,122.03L128.83,122.03z
		 M132.76,122.44c0.02,0.15-0.15,0.3-0.32,0.32c-0.13,0-0.26-0.02-0.32-0.3c-0.04-0.13,0.09-0.3,0.24-0.37
		C132.52,122,132.72,122.05,132.76,122.44L132.76,122.44z M128.74,119.22c0.02,0.17-0.17,0.33-0.35,0.33
		c-0.13,0.02-0.26-0.02-0.32-0.28c-0.02-0.13,0.09-0.3,0.24-0.37C128.48,118.81,128.7,118.85,128.74,119.22L128.74,119.22z
		 M133.97,118.03c0.02,0.17-0.17,0.32-0.35,0.34c-0.13,0-0.26-0.04-0.32-0.3c-0.02-0.13,0.09-0.3,0.24-0.37
		C133.71,117.62,133.93,117.66,133.97,118.03L133.97,118.03z M133.54,120.3c0.02,0.15-0.17,0.3-0.35,0.32
		c-0.13,0-0.26-0.04-0.32-0.3c-0.02-0.13,0.09-0.3,0.24-0.37C133.28,119.86,133.5,119.91,133.54,120.3L133.54,120.3z M131.61,118.37
		c0.02,0.17-0.15,0.33-0.35,0.33c-0.13,0.02-0.24-0.02-0.32-0.28c-0.02-0.13,0.11-0.3,0.24-0.37
		C131.35,117.96,131.57,118.01,131.61,118.37L131.61,118.37z"/>
	<path class="st97" d="M96.53,121.29c-0.04,0.17-0.28,0.26-0.48,0.19c-0.13-0.04-0.24-0.15-0.22-0.45c0-0.13,0.19-0.26,0.37-0.26
		C96.4,120.77,96.62,120.9,96.53,121.29L96.53,121.29z M92.55,120.04c-0.02,0.17-0.26,0.26-0.45,0.19
		c-0.15-0.04-0.26-0.13-0.24-0.43c0-0.15,0.19-0.26,0.37-0.28C92.45,119.52,92.64,119.65,92.55,120.04L92.55,120.04z M95.62,123.93
		c-0.04,0.17-0.28,0.24-0.47,0.17c-0.13-0.04-0.24-0.13-0.22-0.43c0-0.15,0.2-0.26,0.37-0.28
		C95.52,123.39,95.71,123.52,95.62,123.93L95.62,123.93z M93.81,122c-0.04,0.2-0.28,0.26-0.45,0.2c-0.15-0.04-0.26-0.13-0.24-0.43
		c0-0.15,0.19-0.26,0.37-0.28C93.7,121.49,93.89,121.62,93.81,122L93.81,122z M97.79,124.1c-0.04,0.17-0.28,0.26-0.48,0.19
		c-0.13-0.04-0.26-0.13-0.24-0.45c0.02-0.13,0.19-0.26,0.39-0.26C97.66,123.58,97.85,123.71,97.79,124.1L97.79,124.1z M94.69,119.15
		c-0.04,0.17-0.28,0.24-0.47,0.17c-0.13-0.04-0.26-0.13-0.24-0.43c0.02-0.15,0.19-0.26,0.39-0.28
		C94.56,118.61,94.76,118.74,94.69,119.15L94.69,119.15z M100.53,120.17c-0.04,0.17-0.28,0.26-0.48,0.19
		c-0.13-0.04-0.24-0.15-0.22-0.45c0-0.13,0.19-0.26,0.37-0.26C100.4,119.65,100.62,119.78,100.53,120.17L100.53,120.17z
		 M99.3,122.26c-0.02,0.17-0.26,0.24-0.45,0.2c-0.13-0.07-0.26-0.15-0.24-0.46c0.02-0.15,0.19-0.26,0.39-0.26
		C99.19,121.72,99.38,121.88,99.3,122.26L99.3,122.26z M97.96,119.52c-0.02,0.17-0.26,0.24-0.45,0.17
		c-0.15-0.04-0.26-0.13-0.24-0.43c0-0.15,0.19-0.26,0.37-0.26C97.85,118.98,98.04,119.11,97.96,119.52L97.96,119.52z"/>
</g>
<path class="st0" d="M138.48,92.07c-1.4-10.59-14.34-12.97-14.34-12.97c-8.18-12.23-27.4-7.8-30.59,1.55
	c-3.12,9.12,5.02,10.67,7.19,15.49l0.65,7.7c12.22-2.77,26.55,3.31,26.55,3.31l1.73-5.68c3.99,1.32,8.78,0.53,10.81-2.42
	C142.84,95.63,138.48,92.07,138.48,92.07z"/>
</svg>
