<?xml version="1.0" encoding="utf-8"?>
<!-- Generator: Adobe Illustrator 24.3.0, SVG Export Plug-In . SVG Version: 6.00 Build 0)  -->
<svg version="1.1" id="katman_1" xmlns="http://www.w3.org/2000/svg" xmlns:xlink="http://www.w3.org/1999/xlink" x="0px" y="0px"
	 viewBox="0 0 233 237" style="enable-background:new 0 0 233 237;" xml:space="preserve">
<style type="text/css">
	.st0{fill:#FFFFFF;}
	.st1{fill:#D38010;}
	.st2{fill:#FFD700;}
	.st3{fill:#F6A500;}
	.st4{fill:#C6C6C5;}
	.st5{fill:#6F6F6E;}
	.st6{fill:#FBD72F;}
	.st7{fill:#F8FAFD;}
	.st8{fill:#ADBBE0;}
	.st9{fill:#D5DFF2;}
	.st10{fill:#BAC8E5;}
	.st11{opacity:0.5;}
	.st12{fill:#FFE300;}
	.st13{opacity:0.25;}
	.st14{fill:#8EC26B;}
	.st15{fill:#F6D716;}
	.st16{fill:#7EC4A6;}
	.st17{fill:none;stroke:#7EC4A6;stroke-width:2;stroke-linecap:round;stroke-miterlimit:10;}
	.st18{fill:#DA611E;}
	.st19{fill:#FBCFA8;}
	.st20{fill:#F6AD74;}
	.st21{fill:#C74E1E;}
	.st22{fill:#B2421C;}
	.st23{opacity:0.4;fill:#904B3F;}
	.st24{fill:#2B2523;}
	.st25{opacity:0.4;}
	.st26{fill:#944C17;}
	.st27{fill:#F1C36B;}
	.st28{fill:#E28F5E;}
	.st29{fill:#D66A39;}
	.st30{fill:#F9C292;}
	.st31{fill:#FFF0C1;}
	.st32{fill:#FFFBF2;}
	.st33{fill:#FFF5D9;}
	.st34{fill:#964C30;}
	.st35{fill:#3D1B16;}
	.st36{fill:#FCD9B4;}
	.st37{fill:#E18444;}
	.st38{fill:#F4A264;}
	.st39{fill:#FCDDBD;}
	.st40{fill:#DA5D27;}
	.st41{fill:#E7C400;}
	.st42{fill:#349ED8;}
	.st43{fill:#164290;}
	.st44{opacity:0.4;fill:#8F8E8F;}
	.st45{opacity:0.3;}
	.st46{opacity:0.3;fill:#FFFFFF;}
	.st47{opacity:0.5;fill:#B0AFB2;}
	.st48{fill:#8E3B29;}
	.st49{opacity:0.6;fill:#FCDDBD;}
	.st50{fill:#F5F5F5;}
	.st51{fill:#ECECEC;}
	.st52{clip-path:url(#SVGID_2_);}
	.st53{fill:#79837A;}
	.st54{fill:#95A095;}
	.st55{fill:#DEDDC4;}
	.st56{fill:#3A3F39;}
	.st57{fill:#ADB7AF;}
	.st58{fill:#00944E;}
	.st59{fill:#F4A36E;}
	.st60{fill:#535B54;}
	.st61{clip-path:url(#SVGID_4_);}
	.st62{fill:#EEE7E0;}
	.st63{fill:#5D4B3E;}
	.st64{fill:#C09977;}
	.st65{fill:#EAE0CF;}
	.st66{fill:#E55F3B;}
	.st67{fill:#473C34;}
	.st68{fill:#D9C6A9;}
	.st69{opacity:0.88;fill:#FFFFFF;}
	.st70{opacity:0.2;fill:#FFFFFF;}
	.st71{fill:#B68E6E;}
	.st72{fill:#A67D60;}
	.st73{fill:#E3D1B8;}
	.st74{clip-path:url(#SVGID_6_);}
	.st75{fill-rule:evenodd;clip-rule:evenodd;fill:#FCC444;}
	.st76{fill-rule:evenodd;clip-rule:evenodd;fill:#ECECEC;}
	.st77{fill-rule:evenodd;clip-rule:evenodd;fill:#12100B;}
	.st78{fill-rule:evenodd;clip-rule:evenodd;fill:#12110B;}
	.st79{fill:#EEC600;}
	.st80{fill:#5F348A;}
	.st81{fill:none;stroke:#5F348A;stroke-width:2;stroke-miterlimit:10;}
	.st82{fill:#7C4D99;}
	.st83{fill:none;stroke:#7C4D99;stroke-width:2;stroke-miterlimit:10;}
	.st84{fill:none;stroke:#5F348A;stroke-width:1.5;stroke-linecap:round;stroke-linejoin:round;stroke-miterlimit:10;}
	.st85{opacity:0.2;}
	.st86{opacity:0.6;}
	.st87{fill:#B2D9C5;}
	.st88{fill:#B1B1B1;}
	.st89{opacity:0.6;fill:#B2D9C5;}
	.st90{opacity:0.44;fill:#FFD700;}
	.st91{opacity:0.6;fill:#FFD700;}
	.st92{opacity:0.49;}
	.st93{clip-path:url(#SVGID_8_);}
	.st94{opacity:0.5;fill:#FFD700;}
	.st95{clip-path:url(#SVGID_10_);fill:#FFD700;}
	.st96{clip-path:url(#SVGID_12_);fill:#FFD700;}
	.st97{fill-rule:evenodd;clip-rule:evenodd;fill:#FFD700;}
	.st98{fill:#6EAD8E;}
	.st99{opacity:0.5;fill:#7EC4A6;}
</style>
<g>
	<path class="st0" d="M219.32,128.92c-7.78,57.53-60.68,97.84-118.2,90.07c-57.51-7.77-97.8-60.68-90.04-118.2
		c7.75-57.48,60.67-97.8,118.18-90.03C186.77,18.52,227.08,71.43,219.32,128.92z"/>
	<path class="st16" d="M199.55,126.26c-6.3,46.58-49.16,79.24-95.75,72.96c-46.58-6.29-79.27-49.17-72.96-95.76
		C37.12,56.88,80,24.23,126.6,30.52C173.19,36.81,205.83,79.66,199.55,126.26z"/>
	<path class="st89" d="M199.55,126.26c-6.31,46.59-49.16,79.24-95.75,72.96c-36.75-4.97-64.8-32.66-71.94-67.01
		c12.32,23.74,35.63,41.31,64.15,45.16c46.58,6.29,89.47-26.38,95.77-72.97c1.32-9.8,0.9-19.45-1-28.64
		C198.59,90.77,201.99,108.24,199.55,126.26z"/>
	<g class="st86">
		<path class="st87" d="M126.37,50.37c-0.16,1.06-1.52,1.96-3.71,2.69c-1.09,0.37-2.41,0.69-3.89,0.97
			c-0.74,0.17-1.54,0.23-2.37,0.41c-0.82,0.23-1.7,0.44-2.59,0.65c-1.79,0.43-3.76,0.64-5.8,1.14c-2.04,0.58-4.19,1.11-6.45,1.63
			c-2.13,0.81-4.45,1.47-6.76,2.32c-1.13,0.5-2.29,0.99-3.47,1.48c-0.59,0.23-1.19,0.47-1.79,0.72l-1.7,0.9
			c-1.18,0.6-2.33,1.17-3.47,1.74c-1.08,0.67-2.16,1.35-3.22,1.97c-0.53,0.32-1.06,0.6-1.6,0.93c-0.5,0.36-1,0.71-1.49,1.05
			c-0.98,0.68-1.97,1.35-2.92,2.01c-3.7,2.79-7.02,5.48-9.78,7.91c-5.59,4.8-9.16,8.11-11.14,7.21c-1.93-0.87-1.59-6.51,2.49-14
			c1.99-3.76,5.04-7.85,9.03-11.95c1-0.99,2.13-1.94,3.25-2.94c0.56-0.49,1.14-0.98,1.72-1.48c0.61-0.47,1.26-0.91,1.88-1.37
			c1.3-0.88,2.62-1.78,3.95-2.7c1.41-0.79,2.89-1.54,4.35-2.31c0.76-0.38,1.48-0.75,2.23-1.11c0.77-0.32,1.54-0.6,2.29-0.89
			c1.52-0.54,3.04-1.08,4.51-1.6c3.03-0.87,6.02-1.38,8.83-1.93c2.82-0.24,5.55-0.36,8.05-0.42c2.5,0.01,4.85,0.41,6.93,0.67
			c1.04,0.17,2.05,0.32,2.95,0.49c0.94,0.19,1.81,0.54,2.6,0.79c1.58,0.57,2.95,1.14,4.02,1.69
			C125.45,48.18,126.52,49.31,126.37,50.37z"/>
	</g>
	<g>
		<path class="st88" d="M128.76,14.47c-3.06-0.42-5.87,1.72-6.26,4.76c-0.41,3.05,1.71,5.86,4.78,6.27
			c3.04,0.41,5.83-1.73,6.26-4.77C133.94,17.67,131.81,14.88,128.76,14.47z"/>
		<path class="st88" d="M103.13,204.23c-3.07-0.42-5.86,1.72-6.28,4.77c-0.4,3.05,1.72,5.86,4.79,6.27
			c3.05,0.41,5.85-1.72,6.26-4.77C108.3,207.44,106.17,204.64,103.13,204.23z"/>
		<path class="st88" d="M21.05,96.53c-3.05-0.41-5.86,1.71-6.25,4.75c-0.42,3.06,1.72,5.86,4.77,6.28c3.04,0.42,5.83-1.73,6.25-4.78
			C26.23,99.74,24.1,96.94,21.05,96.53z"/>
		<path class="st88" d="M210.82,122.17c-3.06-0.41-5.84,1.7-6.26,4.76c-0.42,3.04,1.72,5.86,4.77,6.27c3.05,0.4,5.85-1.74,6.27-4.78
			C216.02,125.38,213.87,122.57,210.82,122.17z"/>
	</g>
	<g>
		<path class="st88" d="M53.79,34.28c-2.46,1.86-2.94,5.37-1.04,7.81c1.86,2.44,5.34,2.91,7.78,1.05c2.46-1.86,2.93-5.36,1.07-7.81
			C59.73,32.88,56.25,32.41,53.79,34.28z"/>
		<path class="st88" d="M169.83,186.6c-2.44,1.85-2.9,5.35-1.03,7.8c1.88,2.44,5.35,2.91,7.79,1.05c2.45-1.86,2.91-5.37,1.05-7.79
			C175.79,185.2,172.3,184.73,169.83,186.6z"/>
		<path class="st88" d="M35.67,168.47c-2.46,1.84-2.93,5.35-1.05,7.81c1.86,2.43,5.35,2.91,7.78,1.05c2.45-1.87,2.92-5.37,1.07-7.8
			C41.59,167.08,38.11,166.61,35.67,168.47z"/>
		<path class="st88" d="M187.98,52.42c-2.45,1.85-2.93,5.35-1.07,7.8c1.88,2.44,5.38,2.91,7.8,1.05c2.45-1.86,2.91-5.36,1.07-7.8
			C193.92,51,190.42,50.53,187.98,52.42z"/>
	</g>
</g>
</svg>
