<?xml version="1.0" encoding="utf-8"?>
<!-- Generator: Adobe Illustrator 24.3.0, SVG Export Plug-In . SVG Version: 6.00 Build 0)  -->
<svg version="1.1" id="katman_1" xmlns="http://www.w3.org/2000/svg" xmlns:xlink="http://www.w3.org/1999/xlink" x="0px" y="0px"
	 viewBox="0 0 139 168" style="enable-background:new 0 0 139 168;" xml:space="preserve">
<style type="text/css">
	.st0{fill:#FFFFFF;}
	.st1{fill:#D38010;}
	.st2{fill:#FFD700;}
	.st3{fill:#F6A500;}
	.st4{fill:#C6C6C5;}
	.st5{fill:#6F6F6E;}
	.st6{fill:#FBD72F;}
	.st7{fill:#F8FAFD;}
	.st8{fill:#ADBBE0;}
	.st9{fill:#D5DFF2;}
	.st10{fill:#BAC8E5;}
	.st11{opacity:0.5;}
	.st12{fill:#FFE300;}
	.st13{opacity:0.25;}
	.st14{fill:#8EC26B;}
	.st15{fill:#F6D716;}
	.st16{fill:#7EC4A6;}
	.st17{fill:none;stroke:#7EC4A6;stroke-width:2;stroke-linecap:round;stroke-miterlimit:10;}
	.st18{fill:#DA611E;}
	.st19{fill:#FBCFA8;}
	.st20{fill:#F6AD74;}
	.st21{fill:#C74E1E;}
	.st22{fill:#B2421C;}
	.st23{opacity:0.4;fill:#904B3F;}
	.st24{fill:#2B2523;}
	.st25{opacity:0.4;}
	.st26{fill:#944C17;}
	.st27{fill:#F1C36B;}
	.st28{fill:#E28F5E;}
	.st29{fill:#D66A39;}
	.st30{fill:#F9C292;}
	.st31{fill:#FFF0C1;}
	.st32{fill:#FFFBF2;}
	.st33{fill:#FFF5D9;}
	.st34{fill:#964C30;}
	.st35{fill:#3D1B16;}
	.st36{fill:#FCD9B4;}
	.st37{fill:#E18444;}
	.st38{fill:#F4A264;}
	.st39{fill:#FCDDBD;}
	.st40{fill:#DA5D27;}
	.st41{fill:#E7C400;}
	.st42{fill:#349ED8;}
	.st43{fill:#164290;}
	.st44{opacity:0.4;fill:#8F8E8F;}
	.st45{opacity:0.3;}
	.st46{opacity:0.3;fill:#FFFFFF;}
	.st47{opacity:0.5;fill:#B0AFB2;}
	.st48{fill:#8E3B29;}
	.st49{opacity:0.6;fill:#FCDDBD;}
	.st50{fill:#F5F5F5;}
	.st51{fill:#ECECEC;}
	.st52{clip-path:url(#SVGID_2_);}
	.st53{fill:#79837A;}
	.st54{fill:#95A095;}
	.st55{fill:#DEDDC4;}
	.st56{fill:#3A3F39;}
	.st57{fill:#ADB7AF;}
	.st58{fill:#00944E;}
	.st59{fill:#F4A36E;}
	.st60{fill:#535B54;}
	.st61{clip-path:url(#SVGID_4_);}
	.st62{fill:#EEE7E0;}
	.st63{fill:#5D4B3E;}
	.st64{fill:#C09977;}
	.st65{fill:#EAE0CF;}
	.st66{fill:#E55F3B;}
	.st67{fill:#473C34;}
	.st68{fill:#D9C6A9;}
	.st69{opacity:0.88;fill:#FFFFFF;}
	.st70{opacity:0.2;fill:#FFFFFF;}
	.st71{fill:#B68E6E;}
	.st72{fill:#A67D60;}
	.st73{fill:#E3D1B8;}
	.st74{clip-path:url(#SVGID_6_);}
	.st75{fill-rule:evenodd;clip-rule:evenodd;fill:#FCC444;}
	.st76{fill-rule:evenodd;clip-rule:evenodd;fill:#ECECEC;}
	.st77{fill-rule:evenodd;clip-rule:evenodd;fill:#12100B;}
	.st78{fill-rule:evenodd;clip-rule:evenodd;fill:#12110B;}
	.st79{fill:#EEC600;}
	.st80{fill:#5F348A;}
	.st81{fill:none;stroke:#5F348A;stroke-width:2;stroke-miterlimit:10;}
	.st82{fill:#7C4D99;}
	.st83{fill:none;stroke:#7C4D99;stroke-width:2;stroke-miterlimit:10;}
	.st84{fill:none;stroke:#5F348A;stroke-width:1.5;stroke-linecap:round;stroke-linejoin:round;stroke-miterlimit:10;}
	.st85{opacity:0.2;}
	.st86{opacity:0.6;}
	.st87{fill:#B2D9C5;}
	.st88{fill:#B1B1B1;}
	.st89{opacity:0.6;fill:#B2D9C5;}
	.st90{opacity:0.44;fill:#FFD700;}
	.st91{opacity:0.6;fill:#FFD700;}
	.st92{opacity:0.49;}
	.st93{clip-path:url(#SVGID_8_);}
	.st94{opacity:0.5;fill:#FFD700;}
	.st95{clip-path:url(#SVGID_10_);fill:#FFD700;}
	.st96{clip-path:url(#SVGID_12_);fill:#FFD700;}
	.st97{fill-rule:evenodd;clip-rule:evenodd;fill:#FFD700;}
	.st98{fill:#6EAD8E;}
	.st99{opacity:0.5;fill:#7EC4A6;}
</style>
<g>
	<g>
		<g>
			<path class="st16" d="M55.32,85.45c-4.04-15.47-16.61-23.03-21.38-37c-1.34-3.91-3.46-13.79,0.45-15.13
				c7.82-2.67,9.98,10.94,12.99,14.28c1.88,1.86,1.51,2.61,4.13,2.96c-2.51-11-4.33-29.1-0.68-40.33
				c6.95-19.85,14.62,8.1,14.32,16.32c0.04,5.6-0.66,36.42,10.16,35.22c5.41-0.6,1.94-16.26,8.83-17.99
				c9.43-2.37,7.31,26.31,5.64,31.02c-2.05,5.81-6.73,8.78-9.78,13.56c-5.81,9.1-6.94,21.7-4.07,31.83
				c2.47,8.7,4.47,17.54,6.58,26.34c1.45,6.02,5.39,14.35,4.33,20.43c-8.27-2.93-14.24-22.04-17.26-29.27
				C62.6,121.02,59.42,102.96,55.32,85.45z"/>
		</g>
		<path class="st16" d="M6.44,79.85c0.75-3.35,3.9-4.55,7-3.72c1.46,0.39,2.82,1.08,4.1,1.91c-1.08-3.9-1.93-7.92-2.01-11.96
			c-0.07-3.52,0.64-7.31,4.09-8.97c1.99-0.96,3.87,0.5,4.94,2.08c1.58,2.33,2.35,5.24,3.02,7.95c1.71,6.88,2.51,14.06,2.88,21.13
			c0.07,1.28,0.11,2.57,0.11,3.85c0-0.48,0.29,0.31,0.36,0.42c0.19,0.29,0.37,0.59,0.56,0.89c0.37,0.6,0.73,1.21,1.09,1.81
			c0.79,1.32,1.54,2.67,2.28,4.02c2.85,5.15,5.52,10.41,8.74,15.35c2.36,3.62,5.16,6.95,7.72,10.44c2.71,3.72,5.3,7.52,7.71,11.44
			c4.56,7.41,8.75,15.44,10.57,24.02c0.13,0.63-0.07,1.27-0.73,1.5c-1.68,0.57-3.35,1.15-5.03,1.72c-0.76,0.26-1.46-0.29-1.56-1.05
			c-0.62-4.61-1.87-9.16-3.37-13.55c-0.73-2.14-1.54-4.27-2.57-6.28c-1.05-2.05-2.54-3.71-4.29-5.18c-3.6-3.01-7.94-5.01-11.26-8.39
			c-3.8-3.86-6.17-8.91-8.58-13.68c-1.22-2.42-2.46-4.83-3.95-7.1c-0.72-1.1-1.84-2.04-2.79-2.93c-1.12-1.05-2.29-2.03-3.47-3.01
			c-4.35-3.61-9.14-6.98-12.43-11.65C7.42,87.86,5.58,83.68,6.44,79.85z"/>
	</g>
	<path class="st16" d="M19.41,125.72c0.78-2.75,4.12-2.62,6.38-2.28c1.9,0.28,3.39,1.38,4.82,2.59c1.56,1.32,2.96,2.82,4.4,4.26
		c3.45,3.46,6.44,7.18,9.43,11.05c2.77,3.59,5.69,7.22,9.51,9.75c0.48,0.32,0.27,0.97-0.15,1.23l0.43,0.84
		c1.67,1.44,3.33,3.09,4.35,5.03c0.34,0.65,0.4,1.36-0.11,1.96c-0.53,0.61-1.66,0.8-2.27,0.16c-1.72-1.83-3.27-3.73-5.2-5.36
		c-1.88-1.6-3.95-2.99-6.05-4.28c-4.33-2.66-8.86-4.94-13.08-7.77c-1.72-1.16-3.23-2.73-4.68-4.2c-2.06-2.09-4.04-4.31-5.7-6.75
		C20.35,130.28,18.8,127.84,19.41,125.72z"/>
	<path class="st16" d="M92.14,140.93c-0.37-2.95-0.6-5.92-0.91-8.88c-0.14-1.41-0.31-2.81-0.51-4.21c-0.14-1.05-0.13-0.94-0.36-1.92
		c-1.61-6.79-4.28-13.32-5.07-20.3c-0.39-3.45-0.3-8.22,3.2-10.13c0.84-0.46,2.15-0.29,2.43,0.81c1.57,6.34,2.02,12.96,3.97,19.2
		c0.55-1.81,0.62-3.83,0.55-5.76c-0.15-3.62-0.85-7.19-1.3-10.78c-0.39-3.02-0.7-6.26,0.4-9.16c0.98-2.56,3.79-4.18,6.48-3.95
		c2.09,0.18,3.61,2.06,4.48,3.8c1.17,2.33,1.79,4.88,2.3,7.43c0.54,2.69,0.94,5.41,1.38,8.12c0.09,0.55,0.19,1.1,0.29,1.66
		c0.01,0.02,0.04,0.21,0.05,0.27c0.02,0.1,0.04,0.2,0.06,0.3c0.05,0.24,0.11,0.49,0.17,0.73c0.05,0.21,0.11,0.42,0.17,0.63
		c1.66-0.74,3.19-1.76,4.38-2.99c1.64-1.69,2.6-3.41,3.45-5.7c0.15-0.39,0.11-0.29,0.21-0.61c0.09-0.28,0.18-0.57,0.26-0.85
		c0.18-0.64,0.33-1.28,0.46-1.93c0.27-1.31,0.45-2.64,0.57-3.97c0.24-2.67,0.18-5.76,0-8.6c-0.87-13.26-4.47-26.18-6.91-39.19
		c-0.76-4.08-1.44-8.19-1.7-12.33c-0.2-3.18-0.2-6.59,0.81-9.65c0.37-1.1,1.51-1.61,2.49-0.85c2.46,1.91,4.25,4.57,5.66,7.31
		c1.77,3.43,3.07,7.11,4.07,10.85c2.23,8.37,3.38,17.02,4.01,25.65c0.55,7.5,0.75,15.09-0.04,22.57
		c-1.12,10.73-4.36,21.19-8.13,31.25c-3.98,10.63-8.79,20.94-13.77,31.14c0.46,0.41,0.74,1.04,0.54,1.63
		c-0.55,1.63-1.3,3.15-2.59,4.33c-1.35,1.24-2.99,1.82-4.78,2.09c-0.54,0.08-1.23-0.27-1.5-0.73
		C94.3,152.87,92.9,146.99,92.14,140.93z"/>
</g>
</svg>
