<?xml version="1.0" encoding="utf-8"?>
<!-- Generator: Adobe Illustrator 24.3.0, SVG Export Plug-In . SVG Version: 6.00 Build 0)  -->
<svg version="1.1" id="katman_1" xmlns="http://www.w3.org/2000/svg" xmlns:xlink="http://www.w3.org/1999/xlink" x="0px" y="0px"
	 viewBox="0 0 497 462" style="enable-background:new 0 0 497 462;" xml:space="preserve">
<style type="text/css">
	.st0{fill:#FFFFFF;}
	.st1{fill:#D38010;}
	.st2{fill:#FFD700;}
	.st3{fill:#F6A500;}
	.st4{fill:#C6C6C5;}
	.st5{fill:#6F6F6E;}
	.st6{fill:#FBD72F;}
	.st7{fill:#F8FAFD;}
	.st8{fill:#ADBBE0;}
	.st9{fill:#D5DFF2;}
	.st10{fill:#BAC8E5;}
	.st11{opacity:0.5;}
	.st12{fill:#FFE300;}
	.st13{opacity:0.25;}
	.st14{fill:#8EC26B;}
	.st15{fill:#F6D716;}
	.st16{fill:#7EC4A6;}
	.st17{fill:#438A5E;}
	.st18{font-family:'JojobaRegular';}
	.st19{font-size:42.9316px;}
	.st20{font-size:25.0978px;}
	.st21{fill:none;stroke:#7EC4A6;stroke-width:2;stroke-linecap:round;stroke-miterlimit:10;}
	.st22{fill:#DA611E;}
	.st23{fill:#FBCFA8;}
	.st24{fill:#F6AD74;}
	.st25{fill:#C74E1E;}
	.st26{fill:#B2421C;}
	.st27{opacity:0.4;fill:#904B3F;}
	.st28{fill:#2B2523;}
	.st29{opacity:0.4;}
	.st30{fill:#944C17;}
	.st31{fill:#F1C36B;}
	.st32{fill:#E28F5E;}
	.st33{fill:#D66A39;}
	.st34{fill:#F9C292;}
	.st35{fill:#FFF0C1;}
	.st36{fill:#FFFBF2;}
	.st37{fill:#FFF5D9;}
	.st38{fill:#964C30;}
	.st39{fill:#3D1B16;}
	.st40{fill:#FCD9B4;}
	.st41{fill:#E18444;}
	.st42{fill:#F4A264;}
	.st43{fill:#FCDDBD;}
	.st44{fill:#DA5D27;}
	.st45{fill:#E7C400;}
	.st46{fill:#349ED8;}
	.st47{fill:#164290;}
	.st48{opacity:0.4;fill:#8F8E8F;}
	.st49{opacity:0.3;}
	.st50{opacity:0.3;fill:#FFFFFF;}
	.st51{opacity:0.5;fill:#B0AFB2;}
	.st52{fill:#8E3B29;}
	.st53{opacity:0.6;fill:#FCDDBD;}
	.st54{fill:#F5F5F5;}
	.st55{fill:#ECECEC;}
	.st56{clip-path:url(#SVGID_2_);}
	.st57{fill:#79837A;}
	.st58{fill:#95A095;}
	.st59{fill:#DEDDC4;}
	.st60{fill:#3A3F39;}
	.st61{fill:#ADB7AF;}
	.st62{fill:#00944E;}
	.st63{fill:#F4A36E;}
	.st64{fill:#535B54;}
	.st65{clip-path:url(#SVGID_4_);}
	.st66{fill:#EEE7E0;}
	.st67{fill:#5D4B3E;}
	.st68{fill:#C09977;}
	.st69{fill:#EAE0CF;}
	.st70{fill:#E55F3B;}
	.st71{fill:#473C34;}
	.st72{fill:#D9C6A9;}
	.st73{opacity:0.88;fill:#FFFFFF;}
	.st74{opacity:0.2;fill:#FFFFFF;}
	.st75{fill:#B68E6E;}
	.st76{fill:#A67D60;}
	.st77{fill:#E3D1B8;}
	.st78{clip-path:url(#SVGID_6_);}
	.st79{fill-rule:evenodd;clip-rule:evenodd;fill:#FCC444;}
	.st80{fill-rule:evenodd;clip-rule:evenodd;fill:#ECECEC;}
	.st81{fill-rule:evenodd;clip-rule:evenodd;fill:#12100B;}
	.st82{fill-rule:evenodd;clip-rule:evenodd;fill:#12110B;}
	.st83{fill:#EEC600;}
	.st84{fill:#5F348A;}
	.st85{fill:none;stroke:#5F348A;stroke-width:2;stroke-miterlimit:10;}
	.st86{fill:#7C4D99;}
	.st87{fill:none;stroke:#7C4D99;stroke-width:2;stroke-miterlimit:10;}
	.st88{fill:none;stroke:#5F348A;stroke-width:1.5;stroke-linecap:round;stroke-linejoin:round;stroke-miterlimit:10;}
	.st89{opacity:0.2;}
</style>
<g id="Üst_Logo">
	<g>
		<path class="st0" d="M253.18,411.92c-99.07,0-179.67-80.6-179.67-179.67c0-99.07,80.6-179.67,179.67-179.67
			c99.06,0,179.67,80.6,179.67,179.67C432.85,331.31,352.24,411.92,253.18,411.92z"/>
	</g>
	<g>
		<g>
			<path class="st1" d="M311.67,124.33h-22.24c-0.56,0-1.02,0.46-1.02,1.02c0,0.57,0.46,1.02,1.02,1.02h22.24
				c0.57,0,1.03-0.45,1.03-1.02C312.7,124.79,312.24,124.33,311.67,124.33z"/>
			<path class="st2" d="M315.96,114.64c0-2.11-1.71-3.83-3.82-3.83c-2.11,0-3.83,1.71-3.83,3.83c0,1.71,1.12,8.19,2.65,10.66
				c-1.54,2.47-2.65,8.96-2.65,10.66c0,2.11,1.72,3.83,3.83,3.83c2.12,0,3.82-1.72,3.82-3.83c0-1.7-1.11-8.19-2.64-10.66
				C314.86,122.83,315.96,116.35,315.96,114.64z"/>
			<path class="st2" d="M304.71,120.44h-2.16c-0.37,0-0.66,0.3-0.66,0.66v8.39c0,0.36,0.29,0.66,0.66,0.66h2.16
				c0.36,0,0.66-0.3,0.66-0.66v-8.39C305.37,120.74,305.07,120.44,304.71,120.44z"/>
			<path class="st3" d="M302.54,117.26h-3.58c-0.6,0-1.08,0.48-1.08,1.08v13.89c0,0.6,0.49,1.09,1.08,1.09h3.58
				c0.6,0,1.09-0.49,1.09-1.09v-13.89C303.63,117.74,303.14,117.26,302.54,117.26z"/>
		</g>
		<path class="st4" d="M240.38,86.62V91h-1.09v-4.38c0-0.23,0.24-0.42,0.54-0.42C240.13,86.2,240.38,86.38,240.38,86.62z"/>
		<path class="st4" d="M238.47,86.62V91h-0.95v-4.38c0-0.23,0.24-0.42,0.54-0.42C238.38,86.2,238.62,86.38,238.47,86.62z"/>
		<g>
			<path class="st4" d="M248.28,90.96h-2.46v-6.5c0-0.93-0.75-1.67-1.68-1.67h-2.55v-2.46h2.55c2.28,0,4.13,1.86,4.13,4.13V90.96z"
				/>
		</g>
		<path class="st5" d="M241.6,78.59c-0.29,0-0.54,0.24-0.54,0.54v4.69c0,0.31,0.25,0.55,0.54,0.55c0.3,0,0.55-0.24,0.55-0.55v-4.69
			C242.15,78.83,241.9,78.59,241.6,78.59z"/>
		<path class="st6" d="M257.26,110.36h-23.72c-1.74,0-3.06-1.42-2.8-3.01l1.3-6.85l0.24-1.32l0.17-0.85l0.75-4.03l0.17-0.85
			l0.14-0.74c0.2-1.28,1.39-2.23,2.79-2.23h15.52c1.11,0,2.11,0.6,2.59,1.53c0,0,0,0.03,0.02,0.07l0.04,0.09l0.04,0.11
			c0,0.01,0,0.01,0,0.02l5.31,14.34C260.7,108.38,259.33,110.36,257.26,110.36z"/>
		<g>
			<path class="st2" d="M257.26,110.36h-23.72c-1.74,0-3.06-1.42-2.8-3.01l1.3-6.85c26.86,7.32,23.23-6.02,22.48-8.19l5.31,14.34
				C260.7,108.38,259.33,110.36,257.26,110.36z"/>
		</g>
		<path class="st2" d="M298.77,120.99v8.21c0,1.86-1.16,3.53-2.92,4.15c-49.29,17.77-74.35,16.63-87.09,10.64
			c-0.08-0.03-0.14-0.07-0.21-0.1c-0.32-0.15-0.64-0.31-0.95-0.47c-0.47-0.25-0.93-0.5-1.36-0.76c-5.13-3.06-7.8-6.96-9.18-10.29
			c-1.62-3.94-1.46-7.07-1.46-7.07s-0.61-11.23,11.54-17.87c0.44-0.24,0.89-0.48,1.35-0.7c0.31-0.15,0.63-0.29,0.96-0.44
			c0.09-0.04,0.17-0.07,0.26-0.11c13.07-5.62,38.19-6.27,86.52,11.2C297.75,117.93,298.77,119.37,298.77,120.99z"/>
		<path class="st7" d="M212.22,123.89c0,7.27-1.29,14.29-3.68,19.99c-0.32-0.15-0.64-0.31-0.95-0.47c-0.47-0.25-0.93-0.5-1.36-0.76
			c-5.13-3.06-7.8-6.96-9.18-10.29c-1.62-3.94-1.46-7.07-1.46-7.07s-0.61-11.23,11.54-17.87c0.44-0.24,0.89-0.48,1.35-0.7
			c0.31-0.15,0.63-0.29,0.96-0.44C211.27,111.53,212.22,117.58,212.22,123.89z"/>
		<path class="st7" d="M231.23,124.74c0,4.51-3.66,8.17-8.17,8.17c-4.5,0-8.16-3.65-8.16-8.17c0-4.51,3.66-8.17,8.16-8.17
			C227.58,116.57,231.23,120.22,231.23,124.74z"/>
		<path class="st8" d="M229.68,124.74c0,3.65-2.96,6.62-6.62,6.62c-3.64,0-6.61-2.96-6.61-6.62c0-3.66,2.97-6.62,6.61-6.62
			C226.72,118.12,229.68,121.08,229.68,124.74z"/>
		<g>
			<path class="st9" d="M223.26,119.65c0,0.08-0.1,0.17-0.26,0.25c-0.08,0.04-0.18,0.08-0.29,0.12c-0.06,0.02-0.12,0.03-0.18,0.05
				c-0.07,0.03-0.12,0.05-0.19,0.08c-0.14,0.05-0.28,0.09-0.43,0.15c-0.16,0.07-0.32,0.13-0.48,0.19c-0.15,0.09-0.33,0.16-0.5,0.25
				c-0.08,0.05-0.17,0.1-0.25,0.15c-0.04,0.03-0.09,0.05-0.13,0.08l-0.12,0.09c-0.09,0.06-0.17,0.12-0.25,0.17
				c-0.08,0.06-0.15,0.13-0.23,0.19c-0.04,0.03-0.07,0.06-0.11,0.09c-0.04,0.03-0.07,0.06-0.11,0.09c-0.07,0.06-0.13,0.12-0.2,0.18
				c-0.25,0.26-0.48,0.5-0.67,0.71c-0.37,0.43-0.62,0.72-0.79,0.67c-0.16-0.05-0.18-0.48,0.05-1.11c0.11-0.31,0.3-0.66,0.56-1.01
				c0.08-0.09,0.16-0.17,0.23-0.26c0.04-0.05,0.07-0.09,0.12-0.13c0.04-0.04,0.08-0.08,0.13-0.12c0.09-0.08,0.19-0.17,0.28-0.25
				c0.1-0.07,0.2-0.15,0.31-0.22c0.05-0.04,0.11-0.07,0.16-0.11c0.04-0.03,0.11-0.05,0.16-0.09c0.11-0.06,0.22-0.11,0.33-0.17
				c0.23-0.1,0.45-0.17,0.66-0.24c0.22-0.05,0.43-0.08,0.62-0.12c0.2-0.02,0.38-0.02,0.54-0.02c0.08,0,0.15,0,0.23,0
				c0.08,0.01,0.14,0.03,0.2,0.04c0.13,0.03,0.24,0.06,0.33,0.09C223.16,119.49,223.26,119.57,223.26,119.65z"/>
		</g>
		<g>
			<path class="st10" d="M223.06,116.86c-0.24,0-0.43,0.19-0.43,0.44c0,0.24,0.19,0.43,0.43,0.43c0.24,0,0.43-0.19,0.43-0.43
				C223.49,117.05,223.3,116.86,223.06,116.86z"/>
			<path class="st10" d="M223.06,131.75c-0.24,0-0.43,0.2-0.43,0.44c0,0.24,0.19,0.43,0.43,0.43c0.24,0,0.43-0.19,0.43-0.43
				C223.49,131.94,223.3,131.75,223.06,131.75z"/>
			<path class="st10" d="M215.63,124.3c-0.25,0-0.43,0.19-0.43,0.43c0,0.24,0.18,0.43,0.43,0.43c0.23,0,0.42-0.2,0.42-0.43
				C216.05,124.5,215.86,124.3,215.63,124.3z"/>
			<path class="st10" d="M230.51,124.3c-0.23,0-0.43,0.19-0.43,0.43c0,0.24,0.2,0.43,0.43,0.43c0.24,0,0.43-0.2,0.43-0.43
				C230.93,124.5,230.74,124.3,230.51,124.3z"/>
		</g>
		<g>
			<path class="st10" d="M217.49,119.17c-0.17,0.17-0.17,0.44,0,0.62c0.17,0.16,0.44,0.16,0.62,0c0.17-0.18,0.17-0.45,0-0.62
				C217.94,119,217.66,119,217.49,119.17z"/>
			<path class="st10" d="M228.01,129.69c-0.16,0.17-0.16,0.44,0,0.61c0.18,0.17,0.44,0.17,0.62,0c0.17-0.17,0.17-0.45,0-0.61
				C228.46,129.52,228.2,129.52,228.01,129.69z"/>
			<path class="st10" d="M217.49,129.69c-0.17,0.17-0.17,0.44,0,0.61c0.17,0.17,0.44,0.17,0.62,0c0.17-0.17,0.17-0.45,0-0.61
				C217.94,129.52,217.66,129.52,217.49,129.69z"/>
			<path class="st10" d="M228.01,119.17c-0.16,0.17-0.16,0.44,0,0.62c0.18,0.16,0.44,0.16,0.62,0c0.17-0.18,0.17-0.45,0-0.62
				C228.46,119,228.2,119,228.01,119.17z"/>
		</g>
		<path class="st7" d="M250.4,124.74c0,4.51-3.65,8.17-8.17,8.17c-4.51,0-8.17-3.65-8.17-8.17c0-4.51,3.66-8.17,8.17-8.17
			C246.75,116.57,250.4,120.22,250.4,124.74z"/>
		<path class="st8" d="M248.85,124.74c0,3.65-2.97,6.62-6.62,6.62c-3.65,0-6.62-2.96-6.62-6.62c0-3.66,2.96-6.62,6.62-6.62
			C245.88,118.12,248.85,121.08,248.85,124.74z"/>
		<g>
			<path class="st9" d="M242.41,119.65c0,0.08-0.1,0.17-0.26,0.25c-0.08,0.04-0.17,0.08-0.29,0.12c-0.06,0.02-0.12,0.03-0.18,0.05
				c-0.06,0.03-0.12,0.05-0.19,0.08c-0.14,0.05-0.28,0.09-0.44,0.15c-0.15,0.07-0.31,0.13-0.48,0.19c-0.15,0.09-0.32,0.16-0.49,0.25
				c-0.09,0.05-0.17,0.1-0.26,0.15c-0.03,0.03-0.08,0.05-0.13,0.08l-0.12,0.09c-0.1,0.06-0.17,0.12-0.24,0.17
				c-0.08,0.06-0.16,0.13-0.24,0.19c-0.03,0.03-0.08,0.06-0.11,0.09c-0.03,0.03-0.06,0.06-0.11,0.09c-0.07,0.06-0.14,0.12-0.21,0.18
				c-0.25,0.26-0.47,0.5-0.67,0.71c-0.38,0.43-0.62,0.72-0.78,0.67c-0.17-0.05-0.2-0.48,0.04-1.11c0.12-0.31,0.31-0.66,0.57-1.01
				c0.07-0.09,0.15-0.17,0.22-0.26c0.04-0.05,0.08-0.09,0.12-0.13c0.03-0.04,0.09-0.08,0.13-0.12c0.09-0.08,0.18-0.17,0.28-0.25
				c0.1-0.07,0.21-0.15,0.31-0.22c0.06-0.04,0.11-0.07,0.16-0.11c0.06-0.03,0.11-0.05,0.17-0.09c0.11-0.06,0.22-0.11,0.33-0.17
				c0.22-0.1,0.45-0.17,0.66-0.24c0.22-0.05,0.43-0.08,0.62-0.12c0.2-0.02,0.38-0.02,0.54-0.02c0.09,0,0.16,0,0.24,0
				c0.08,0.01,0.14,0.03,0.2,0.04c0.13,0.03,0.24,0.06,0.34,0.09C242.33,119.49,242.41,119.57,242.41,119.65z"/>
		</g>
		<g>
			<path class="st10" d="M242.23,116.86c-0.24,0-0.43,0.19-0.43,0.44c0,0.24,0.19,0.43,0.43,0.43c0.24,0,0.43-0.19,0.43-0.43
				C242.66,117.05,242.46,116.86,242.23,116.86z"/>
			<path class="st10" d="M242.23,131.75c-0.24,0-0.43,0.2-0.43,0.44c0,0.24,0.19,0.43,0.43,0.43c0.24,0,0.43-0.19,0.43-0.43
				C242.66,131.94,242.46,131.75,242.23,131.75z"/>
			<path class="st10" d="M234.78,124.3c-0.25,0-0.44,0.19-0.44,0.43c0,0.24,0.19,0.43,0.44,0.43c0.24,0,0.44-0.2,0.44-0.43
				C235.22,124.5,235.03,124.3,234.78,124.3z"/>
			<path class="st10" d="M249.67,124.3c-0.24,0-0.43,0.19-0.43,0.43c0,0.24,0.19,0.43,0.43,0.43c0.24,0,0.43-0.2,0.43-0.43
				C250.1,124.5,249.91,124.3,249.67,124.3z"/>
		</g>
		<g>
			<path class="st10" d="M236.66,119.17c-0.16,0.17-0.16,0.44,0,0.62c0.17,0.16,0.45,0.16,0.62,0c0.17-0.18,0.17-0.45,0-0.62
				C237.1,119,236.82,119,236.66,119.17z"/>
			<path class="st10" d="M247.18,129.69c-0.16,0.17-0.16,0.44,0,0.61c0.17,0.17,0.45,0.17,0.61,0c0.16-0.17,0.16-0.45,0-0.61
				C247.63,129.52,247.35,129.52,247.18,129.69z"/>
			<path class="st10" d="M236.66,129.69c-0.16,0.17-0.16,0.44,0,0.61c0.17,0.17,0.45,0.17,0.62,0c0.17-0.17,0.17-0.45,0-0.61
				C237.1,129.52,236.82,129.52,236.66,129.69z"/>
			<path class="st10" d="M247.18,119.17c-0.16,0.17-0.16,0.44,0,0.62c0.17,0.16,0.45,0.16,0.61,0c0.16-0.18,0.16-0.45,0-0.62
				C247.63,119,247.35,119,247.18,119.17z"/>
		</g>
		<g>
			<path class="st7" d="M269.56,124.74c0,4.51-3.66,8.17-8.16,8.17c-4.52,0-8.18-3.65-8.18-8.17c0-4.51,3.66-8.17,8.18-8.17
				C265.9,116.57,269.56,120.22,269.56,124.74z"/>
			<path class="st8" d="M268.01,124.74c0,3.65-2.96,6.62-6.61,6.62c-3.66,0-6.63-2.96-6.63-6.62c0-3.66,2.96-6.62,6.63-6.62
				C265.05,118.12,268.01,121.08,268.01,124.74z"/>
			<g>
				<path class="st10" d="M261.39,116.86c-0.23,0-0.44,0.19-0.44,0.44c0,0.24,0.2,0.43,0.44,0.43s0.43-0.19,0.43-0.43
					C261.82,117.05,261.63,116.86,261.39,116.86z"/>
				<path class="st10" d="M261.39,131.75c-0.23,0-0.44,0.2-0.44,0.44c0,0.24,0.2,0.43,0.44,0.43s0.43-0.19,0.43-0.43
					C261.82,131.94,261.63,131.75,261.39,131.75z"/>
				<path class="st10" d="M253.94,124.3c-0.24,0-0.42,0.19-0.42,0.43c0,0.24,0.19,0.43,0.42,0.43c0.24,0,0.44-0.2,0.44-0.43
					C254.38,124.5,254.18,124.3,253.94,124.3z"/>
				<path class="st10" d="M268.84,124.3c-0.25,0-0.44,0.19-0.44,0.43c0,0.24,0.19,0.43,0.44,0.43c0.23,0,0.43-0.2,0.43-0.43
					C269.26,124.5,269.07,124.3,268.84,124.3z"/>
			</g>
			<g>
				<path class="st10" d="M255.81,119.17c-0.16,0.17-0.16,0.44,0,0.62c0.17,0.16,0.45,0.16,0.62,0c0.17-0.18,0.17-0.45,0-0.62
					C256.26,119,255.98,119,255.81,119.17z"/>
				<path class="st10" d="M266.34,129.69c-0.17,0.17-0.17,0.44,0,0.61c0.17,0.17,0.45,0.17,0.61,0c0.18-0.17,0.18-0.45,0-0.61
					C266.79,129.52,266.51,129.52,266.34,129.69z"/>
				<path class="st10" d="M255.81,129.69c-0.16,0.17-0.16,0.44,0,0.61c0.17,0.17,0.45,0.17,0.62,0c0.17-0.17,0.17-0.45,0-0.61
					C256.26,129.52,255.98,129.52,255.81,129.69z"/>
				<path class="st10" d="M266.34,119.17c-0.17,0.17-0.17,0.44,0,0.62c0.17,0.16,0.45,0.16,0.61,0c0.18-0.18,0.18-0.45,0-0.62
					C266.79,119,266.51,119,266.34,119.17z"/>
			</g>
			<g>
				<path class="st9" d="M261.58,119.65c0,0.08-0.1,0.17-0.25,0.25c-0.08,0.04-0.18,0.08-0.3,0.12c-0.04,0.02-0.12,0.03-0.16,0.05
					c-0.07,0.03-0.13,0.05-0.2,0.08c-0.13,0.05-0.28,0.09-0.44,0.15c-0.15,0.07-0.31,0.13-0.48,0.19c-0.15,0.09-0.33,0.16-0.5,0.25
					c-0.07,0.05-0.16,0.1-0.24,0.15c-0.04,0.03-0.1,0.05-0.14,0.08l-0.12,0.09c-0.08,0.06-0.17,0.12-0.25,0.17
					c-0.09,0.06-0.15,0.13-0.22,0.19c-0.04,0.03-0.08,0.06-0.12,0.09c-0.04,0.03-0.07,0.06-0.11,0.09
					c-0.07,0.06-0.14,0.12-0.21,0.18c-0.25,0.26-0.48,0.5-0.66,0.71c-0.38,0.43-0.62,0.72-0.79,0.67c-0.16-0.05-0.19-0.48,0.04-1.11
					c0.12-0.31,0.31-0.66,0.57-1.01c0.07-0.09,0.13-0.17,0.22-0.26c0.04-0.05,0.08-0.09,0.12-0.13c0.04-0.04,0.1-0.08,0.13-0.12
					c0.09-0.08,0.18-0.17,0.28-0.25c0.11-0.07,0.21-0.15,0.31-0.22c0.06-0.04,0.12-0.07,0.16-0.11c0.06-0.03,0.13-0.05,0.18-0.09
					c0.11-0.06,0.22-0.11,0.33-0.17c0.23-0.1,0.45-0.17,0.66-0.24c0.22-0.05,0.43-0.08,0.61-0.12c0.2-0.02,0.39-0.02,0.56-0.02
					c0.08,0,0.15,0,0.22,0c0.07,0.01,0.15,0.03,0.21,0.04c0.13,0.03,0.24,0.06,0.33,0.09C261.48,119.49,261.59,119.57,261.58,119.65
					z"/>
			</g>
		</g>
		<g>
			<path class="st7" d="M287.95,124.74c0,4.51-3.66,8.17-8.17,8.17c-4.51,0-8.17-3.65-8.17-8.17c0-4.51,3.66-8.17,8.17-8.17
				C284.29,116.57,287.95,120.22,287.95,124.74z"/>
			<path class="st8" d="M286.4,124.74c0,3.65-2.96,6.62-6.62,6.62c-3.65,0-6.61-2.96-6.61-6.62c0-3.66,2.96-6.62,6.61-6.62
				C283.44,118.12,286.4,121.08,286.4,124.74z"/>
			<path class="st8" d="M286.4,124.74c0,3.66-2.96,6.62-6.62,6.62c-2.88,0-5.34-1.84-6.24-4.41c1.2,1.7,3.17,2.81,5.42,2.81
				c3.65,0,6.62-2.96,6.62-6.61c0-0.77-0.13-1.51-0.37-2.2C285.96,122.01,286.4,123.32,286.4,124.74z"/>
			<g>
				<path class="st9" d="M279.98,119.65c0,0.08-0.1,0.17-0.26,0.25c-0.08,0.04-0.18,0.08-0.29,0.12c-0.04,0.02-0.11,0.03-0.17,0.05
					c-0.07,0.03-0.13,0.05-0.19,0.08c-0.13,0.05-0.28,0.09-0.44,0.15c-0.14,0.07-0.31,0.13-0.47,0.19
					c-0.16,0.09-0.33,0.16-0.49,0.25c-0.09,0.05-0.17,0.1-0.26,0.15c-0.04,0.03-0.08,0.05-0.12,0.08l-0.14,0.09
					c-0.08,0.06-0.16,0.12-0.24,0.17c-0.08,0.06-0.15,0.13-0.23,0.19c-0.05,0.03-0.08,0.06-0.12,0.09c-0.03,0.03-0.07,0.06-0.1,0.09
					c-0.07,0.06-0.13,0.12-0.21,0.18c-0.25,0.26-0.48,0.5-0.66,0.71c-0.38,0.43-0.63,0.72-0.79,0.67c-0.16-0.05-0.19-0.48,0.04-1.11
					c0.12-0.31,0.31-0.66,0.57-1.01c0.07-0.09,0.15-0.17,0.23-0.26c0.04-0.05,0.08-0.09,0.11-0.13c0.04-0.04,0.09-0.08,0.13-0.12
					c0.09-0.08,0.19-0.17,0.28-0.25c0.1-0.07,0.21-0.15,0.31-0.22c0.06-0.04,0.1-0.07,0.16-0.11c0.06-0.03,0.12-0.05,0.17-0.09
					c0.11-0.06,0.22-0.11,0.33-0.17c0.22-0.1,0.45-0.17,0.65-0.24c0.22-0.05,0.43-0.08,0.62-0.12c0.19-0.02,0.38-0.02,0.54-0.02
					c0.08,0,0.16,0,0.22,0c0.08,0.01,0.15,0.03,0.21,0.04c0.13,0.03,0.24,0.06,0.33,0.09C279.88,119.49,279.98,119.57,279.98,119.65
					z"/>
			</g>
			<g>
				<path class="st10" d="M279.78,116.86c-0.24,0-0.42,0.19-0.42,0.44c0,0.24,0.18,0.43,0.42,0.43c0.23,0,0.43-0.19,0.43-0.43
					C280.21,117.05,280.02,116.86,279.78,116.86z"/>
				<path class="st10" d="M279.78,131.75c-0.24,0-0.42,0.2-0.42,0.44c0,0.24,0.18,0.43,0.42,0.43c0.23,0,0.43-0.19,0.43-0.43
					C280.21,131.94,280.02,131.75,279.78,131.75z"/>
				<path class="st10" d="M272.34,124.3c-0.24,0-0.43,0.19-0.43,0.43c0,0.24,0.2,0.43,0.43,0.43c0.23,0,0.44-0.2,0.44-0.43
					C272.78,124.5,272.58,124.3,272.34,124.3z"/>
				<path class="st10" d="M287.22,124.3c-0.23,0-0.43,0.19-0.43,0.43c0,0.24,0.2,0.43,0.43,0.43c0.25,0,0.44-0.2,0.44-0.43
					C287.66,124.5,287.47,124.3,287.22,124.3z"/>
			</g>
			<g>
				<path class="st10" d="M274.21,119.17c-0.16,0.17-0.16,0.44,0,0.62c0.18,0.16,0.45,0.16,0.62,0c0.17-0.18,0.17-0.45,0-0.62
					C274.66,119,274.39,119,274.21,119.17z"/>
				<path class="st10" d="M284.73,129.69c-0.16,0.17-0.16,0.44,0,0.61c0.18,0.17,0.45,0.17,0.62,0c0.17-0.17,0.17-0.45,0-0.61
					C285.18,129.52,284.91,129.52,284.73,129.69z"/>
				<path class="st10" d="M274.21,129.69c-0.16,0.17-0.16,0.44,0,0.61c0.18,0.17,0.45,0.17,0.62,0c0.17-0.17,0.17-0.45,0-0.61
					C274.66,129.52,274.39,129.52,274.21,129.69z"/>
				<path class="st10" d="M284.73,119.17c-0.16,0.17-0.16,0.44,0,0.62c0.18,0.16,0.45,0.16,0.62,0c0.17-0.18,0.17-0.45,0-0.62
					C285.18,119,284.91,119,284.73,119.17z"/>
			</g>
		</g>
		<path class="st2" d="M210.04,123.99c0,7.2-1.44,13.75-3.8,18.66c-11.22-6.69-10.63-17.36-10.63-17.36s-0.61-11.23,11.54-17.87
			C208.97,112.03,210.04,117.77,210.04,123.99z"/>
		<g class="st11">
			<path class="st12" d="M298.77,129.2L298.77,129.2c0,1.86-1.16,3.53-2.92,4.15c-49.29,17.77-74.35,16.63-87.09,10.64
				c-0.39-0.19-0.78-0.38-1.15-0.57c-0.47-0.25-0.93-0.5-1.36-0.76c-5.13-3.06-7.8-6.96-9.18-10.29
				C197.06,132.37,230.85,156.66,298.77,129.2z"/>
		</g>
		<g class="st13">
			<path class="st14" d="M203.97,118.56c-2.41,2.09-4.95,3.11-5.66,2.28c-0.72-0.83,0.65-3.2,3.05-5.29
				c2.4-2.09,4.93-3.11,5.66-2.29C207.74,114.1,206.37,116.46,203.97,118.56z"/>
		</g>
		<path class="st7" d="M243.86,94.64V98c0,0.65-0.54,1.18-1.18,1.18h-10.39l0.17-0.85l0.75-4.03l0.17-0.85h9.3
			C243.32,93.45,243.86,93.98,243.86,94.64z"/>
		<path class="st8" d="M243,94.64V98c0,0.18-0.15,0.33-0.33,0.33h-10.22l0.53-2.85l0.15-0.77l0.07-0.4h9.47
			C242.85,94.3,243,94.45,243,94.64z"/>
		<path class="st9" d="M239.71,95.09c0,0.21-2.98,0.39-6.64,0.39h-0.08l0.15-0.77C236.77,94.71,239.71,94.88,239.71,95.09z"/>
		<g class="st11">
			<path class="st15" d="M298.77,120.99L298.77,120.99c-50.56-17.76-76.78-17.14-90.38-11.49c-0.08,0.04-0.17,0.07-0.27,0.11
				c-0.33,0.14-0.66,0.29-0.98,0.44c-0.48,0.22-0.94,0.45-1.4,0.69c-4.27,2.25-7.02,5.04-8.78,7.73c1.43-3.56,4.32-7.85,10.18-11.05
				c0.44-0.24,0.89-0.48,1.35-0.7c0.31-0.15,0.63-0.29,0.96-0.44c0.09-0.04,0.17-0.07,0.26-0.11c13.07-5.62,38.19-6.27,86.52,11.2
				C297.75,117.93,298.77,119.37,298.77,120.99z"/>
		</g>
		<path class="st8" d="M248.85,124.74c0,3.66-2.97,6.62-6.62,6.62c-2.89,0-5.33-1.84-6.24-4.41c1.2,1.7,3.17,2.81,5.42,2.81
			c3.65,0,6.61-2.96,6.61-6.61c0-0.77-0.12-1.51-0.37-2.2C248.4,122.01,248.85,123.32,248.85,124.74z"/>
		<path class="st8" d="M268.01,124.77c0,3.65-2.96,6.62-6.61,6.62c-2.89,0-5.34-1.84-6.24-4.42c1.2,1.7,3.17,2.82,5.42,2.82
			c3.64,0,6.61-2.96,6.61-6.62c0-0.77-0.12-1.51-0.37-2.2C267.56,122.04,268.01,123.36,268.01,124.77z"/>
		<path class="st8" d="M229.68,124.74c0,3.66-2.96,6.62-6.62,6.62c-2.88,0-5.33-1.84-6.24-4.41c1.2,1.7,3.18,2.81,5.41,2.81
			c3.66,0,6.62-2.96,6.62-6.61c0-0.77-0.13-1.51-0.37-2.2C229.24,122.01,229.68,123.32,229.68,124.74z"/>
	</g>
	<g>
		<g>
			<g>
				<path class="st16" d="M155.31,297.08c0.4-6.17,4.42-4.56,5.56,0c1.68,6.7,2.95,12.81,10.26,48.34c0,1.48-2.01,2.62-3.21,0.47
					l-2.41-12.07l-9.05,1.34c-0.53,3.15-1.01,9.12-1.14,11.93c-0.13,1.61-3.02,1.21-2.95,0L155.31,297.08z M156.58,328.32
					c-0.07,0.47-0.13,3.09-0.13,3.62l8.38-1.21l-6.57-29.83C157.99,304.99,156.78,324.16,156.58,328.32z"/>
				<path class="st16" d="M176.89,297.08c1.28-2.41,3.22-0.27,3.89,0.67c4.02,11.53,6.77,23.26,11.67,35.26l0.67-9.38
					c0.74-8.45,0.8-15.75,0.74-24.2c0.27-1.14,1.47-1.68,2.55-1.68c0.8,0,1.47,0.2,1.88,0.87c-1.21,14.48-1.75,29.9-2.21,45.32
					l-0.06,0.87c-0.14,0.33-1.01,1.27-1.61,1.27c-0.61,0-1.61-0.8-1.88-1.27c-4.15-12.54-8.84-24.81-12.87-37.41l-0.46,38.21
					c-1.54,3.49-3.89,1.68-3.96-0.33L176.89,297.08z"/>
				<path class="st16" d="M206.13,297.08c0.4-6.17,4.43-4.56,5.56,0c1.68,6.7,2.95,12.81,10.26,48.34c0,1.48-2.01,2.62-3.21,0.47
					l-2.41-12.07l-9.05,1.34c-0.54,3.15-1,9.12-1.14,11.93c-0.13,1.61-3.02,1.21-2.95,0L206.13,297.08z M207.4,328.32
					c-0.07,0.47-0.14,3.09-0.14,3.62l8.38-1.21l-6.57-29.83C208.81,304.99,207.6,324.16,207.4,328.32z"/>
				<path class="st16" d="M235.16,294.87c14.88,0,16.89,47.67,2.14,48.94c-0.27,0-0.54,0.07-0.8,0.07c-5.63,0-8.72-3.35-10.33-9.52
					C225.31,330.33,218.33,294.87,235.16,294.87z M229.39,331.27c0.54,2.21,2.75,8.58,6.1,8.92c0.34,0.07,0.61,0,0.81,0
					c4.49-0.4,5.97-8.25,6.57-11.4c1.08-5.37,1.95-30.24-7.57-30.24h-0.54C224.63,299.49,228.12,326.38,229.39,331.27z"/>
				<path class="st16" d="M256.42,341.26c0-16.02-0.34-32.78-2.28-48.27c-0.07-1.34,3.48-2.15,3.89,0.6l1.33,26.82
					c1.55-2.88,3.28-6.84,4.22-9.92c1.74-7.51,1.95-11.4,2.68-15.22c0.27-0.6,0.27-1.81,1.34-1.81c1.94,0.33,2.28,1.14,2.28,2.68
					c0,8.25-3.55,16.56-7.24,25.21l-0.73,1.74c10.46,7.31,13.01,15.82,14.35,22.12c0.4,2.01-1.07,2.08-1.88,2.08
					c-3.48,0-1.54-15.22-15.08-21.38c0,5.9,1,15.82,0.2,21.32c-0.07,0.41-0.27,0.47-0.6,0.47c-0.94,0-1.95-0.54-2.48-1.34V341.26z"
					/>
				<path class="st16" d="M280.49,294.39c0.4-0.4,1.07-0.8,1.67-0.8c2.41,0,2.28,2.55,2.21,4.29v0.4
					c-0.13,6.7-0.94,13.28-1.07,19.98c-0.13,4.56-2.28,22.93,4.9,22.93c3.28,0,5.49-6.44,5.97-8.52
					c2.48-11.73,4.01-24.07,4.01-35.87v-1.48c0-1,1.35-1.34,2.22-1.34c1.14,0,2.08,1.01,2.08,2.01l-0.07,1.01
					c-0.67,10.32-1.48,19.84-3.29,30.1l-0.13,0.87c-0.07,0.13-0.07,0.4-0.2,0.67c-0.81,4.83-2.75,15.89-10.19,15.89
					c-8.51,0-9.18-9.12-9.18-14.95v-1.21c0-0.4,0.06-9.05,0.13-12.27C279.75,308.88,279.75,301.64,280.49,294.39z"/>
				<path class="st16" d="M310.52,292.92c1.08,0,1.95,1.34,2.21,2.35c0.54,15.15,0.46,30.5,1.81,45.72
					c2.01-0.54,5.43-1.41,8.04-1.41c1.21,0,2.28,0.33,2.28,1.67c0,0.87-0.2,1.54-1.34,1.95c-2.29,0.8-5.29,0.67-7.64,1.34
					c-0.87,0.2-1.81,0.87-2.88,0.87c-0.81,0-1.95-0.94-2.08-1.81c-0.81-8.05-0.47-16.69-0.88-24.6l-0.88-16.56v-8.51
					C309.52,293.19,309.92,292.92,310.52,292.92z"/>
				<path class="st16" d="M329.64,294.39c0.4-0.4,1.07-0.8,1.67-0.8c2.41,0,2.28,2.55,2.21,4.29v0.4
					c-0.14,6.7-0.94,13.28-1.07,19.98c-0.13,4.56-2.27,22.93,4.89,22.93c3.28,0,5.5-6.44,5.97-8.52
					c2.48-11.73,4.02-24.07,4.02-35.87v-1.48c0-1,1.35-1.34,2.21-1.34c1.14,0,2.08,1.01,2.08,2.01l-0.07,1.01
					c-0.67,10.32-1.48,19.84-3.29,30.1l-0.13,0.87c-0.07,0.13-0.07,0.4-0.2,0.67c-0.81,4.83-2.75,15.89-10.19,15.89
					c-8.52,0-9.19-9.12-9.19-14.95v-1.21c0-0.4,0.07-9.05,0.13-12.27C328.9,308.88,328.9,301.64,329.64,294.39z"/>
			</g>
		</g>
		<g>
			<g>
				<path class="st16" d="M143.32,188.46c1.1,7.1,0.03,14.7-3.2,22.81c-3.23,8.11-7.62,14.65-13.16,19.61
					c-1.04,0.92-2.3,1.85-3.77,2.77c-1.47,0.93-3.11,1.76-4.94,2.51c-1.82,0.75-3.55,0.98-5.19,0.69c-1.65-0.29-2.9-1.24-3.77-2.86
					c-0.35-0.63-0.55-1.56-0.6-2.77c-0.06-1.21-0.06-2.57,0-4.07c0.06-1.5,0.06-2.51,0-3.03c-0.29-3.58-0.41-7.76-0.35-12.55
					c0-1.33,0.26-9.96,0.78-25.89c0-0.58-0.03-1.75-0.09-3.51c-0.06-1.76-0.06-3.26,0-4.5c0.06-1.24,0.21-2.63,0.47-4.16
					c0.27-1.53,0.78-2.77,1.56-3.72c0.78-0.95,1.78-1.6,2.99-1.95c4.56-1.21,8.99-1.04,13.29,0.52c4.3,1.56,7.87,4.14,10.69,7.75
					C140.87,179.73,142.63,183.84,143.32,188.46z M122.28,221.36c1.73-2.6,3.29-5.54,4.68-8.83c1.38-3.29,2.46-6.83,3.25-10.61
					c0.78-3.78,1.12-7.37,1.04-10.78c-0.09-3.4-0.91-6.55-2.47-9.44c-1.56-2.89-3.81-5.05-6.75-6.49c-0.41-0.17-0.79-0.14-1.17,0.09
					c-0.38,0.23-0.56,0.58-0.56,1.04c0.11,1.5,0.16,3.39,0.13,5.67c-0.03,2.28-0.08,4.18-0.17,5.71c-0.09,1.53-0.17,3.43-0.26,5.72
					c-0.09,2.28-0.16,4.17-0.21,5.67c-0.23,9.76-0.23,16.94,0,21.56c0.05,0.64,0.4,1.04,1.04,1.21
					C121.44,222.05,121.93,221.88,122.28,221.36z"/>
				<path class="st16" d="M179.34,199.54c0.92,1.33-0.38,2.57-3.89,3.72c-3.87,1.27-8.49,2.11-13.86,2.51
					c-0.34,0-0.64,0.13-0.87,0.39c-0.23,0.26-0.35,0.56-0.35,0.91c0.12,3.93,0.69,10.79,1.73,20.61c0.05,0.35,0.23,0.65,0.52,0.91
					c0.29,0.26,0.61,0.36,0.96,0.3c1.32-0.06,2.68-0.06,4.07,0c1.38,0.06,2.81,0.23,4.28,0.52c1.47,0.29,2.73,0.69,3.77,1.21
					c1.44,0.69,2.24,1.49,2.38,2.38c0.14,0.89-0.48,1.89-1.86,2.99c-1.15,0.87-4.44,1.34-9.87,1.43c-5.43,0.09-9.03-0.16-10.82-0.74
					c-1.21-0.29-2.21-0.87-2.99-1.73c-0.78-0.87-1.35-2.01-1.69-3.42c-0.34-1.41-0.59-2.67-0.73-3.77c-0.14-1.09-0.25-2.51-0.3-4.24
					c-0.06-1.73-0.12-2.89-0.18-3.46c-0.92-10.33-1.35-18.76-1.29-25.28c0-0.75,0.01-2.64,0.04-5.67c0.03-3.03,0.05-5.35,0.05-6.97
					c0-0.46-0.05-1.26-0.13-2.38c-0.09-1.13-0.12-2.04-0.12-2.73c0-0.69,0.08-1.49,0.26-2.38c0.17-0.89,0.46-1.66,0.87-2.29
					c0.46-0.63,1.04-1.18,1.73-1.65c0.69-0.46,1.5-0.81,2.42-1.04c0.92-0.23,1.8-0.4,2.64-0.52c0.84-0.12,1.83-0.16,2.99-0.13
					c1.15,0.03,2.11,0.07,2.86,0.13c0.75,0.06,1.67,0.13,2.77,0.21c1.09,0.09,1.84,0.16,2.25,0.22c2.37,0.17,5.27,0.88,8.7,2.12
					c3.43,1.24,5.18,2.53,5.24,3.85c0,0.81-0.23,1.49-0.69,2.03c-0.46,0.55-1.21,0.92-2.25,1.13c-1.04,0.2-2.05,0.33-3.03,0.39
					c-0.98,0.06-2.25,0.01-3.81-0.13c-1.56-0.14-2.77-0.27-3.64-0.39c-0.87-0.11-2.05-0.26-3.55-0.43c-0.81-0.12-1.38-0.2-1.73-0.26
					c-0.46-0.06-0.87,0.06-1.21,0.34c-0.34,0.29-0.52,0.66-0.52,1.13c0.11,3,0.11,8.54,0,16.62c0,0.29,0.05,0.54,0.17,0.74
					c0.12,0.2,0.29,0.38,0.52,0.52c0.23,0.14,0.49,0.22,0.78,0.22c0.58-0.06,1.97-0.2,4.2-0.43c2.23-0.23,3.96-0.36,5.2-0.39
					c1.24-0.03,2.67,0.17,4.28,0.61C177.23,197.68,178.47,198.44,179.34,199.54z"/>
				<path class="st16" d="M226.44,232.88c0,0.75-0.49,1.53-1.47,2.34c-0.98,0.81-2.09,1.43-3.33,1.86
					c-1.24,0.43-2.44,0.72-3.59,0.87c-1.16,0.14-1.94-0.07-2.34-0.65c-0.52-0.69-0.88-1.59-1.08-2.68c-0.2-1.1-0.31-2.53-0.31-4.29
					c0-1.76,0-2.75,0-2.99c-0.29-4.85-0.46-8.52-0.52-11c0-0.75,0.06-4.56,0.18-11.43c0-0.35,0.05-1.1,0.17-2.25
					c0.12-1.15,0.15-2.16,0.13-3.03c-0.03-0.87-0.21-1.59-0.56-2.16c-0.46-0.87-1.73-2.09-3.81-3.68c-2.08-1.59-3.14-2.41-3.21-2.47
					c-2.08-1.91-4.56-4.1-7.45-6.58c-0.23-0.17-0.46-0.2-0.69-0.09c-0.23,0.12-0.35,0.32-0.35,0.61c0,3.87-0.14,11.04-0.43,21.51
					c-0.29,10.48-0.32,18.57-0.09,24.29c0,0.29,0.04,0.82,0.13,1.6c0.09,0.78,0.13,1.33,0.13,1.65c0,0.32-0.06,0.79-0.17,1.43
					c-0.12,0.35-2.09,0.45-5.93,0.3c-3.84-0.14-5.88-0.56-6.1-1.25c-0.46-1.27-0.71-2.87-0.74-4.81c-0.03-1.93,0.04-4,0.21-6.19
					c0.17-2.19,0.23-3.61,0.17-4.24c-0.4-18.18-0.06-32.67,1.04-43.46c0.98-9.35,8.89-7.33,23.72,6.06c0.23,0.23,0.92,0.9,2.08,1.99
					c0.29,0.23,0.59,0.26,0.91,0.09c0.31-0.17,0.45-0.43,0.39-0.78c-0.17-1.96-0.06-4.08,0.35-6.36c0.4-2.28,1.11-4.24,2.12-5.89
					c1.01-1.65,2.15-2.44,3.42-2.38c0.98,0.06,1.83,0.36,2.55,0.91c0.72,0.55,1.27,1.18,1.64,1.9c0.38,0.72,0.67,1.65,0.87,2.77
					c0.2,1.13,0.33,2.12,0.39,2.99c0.06,0.87,0.11,1.91,0.17,3.12c0.06,1.21,0.09,2.08,0.09,2.6c0.57,6.23,0.89,15.09,0.95,26.58
					C226.15,221.16,226.26,228.89,226.44,232.88z"/>
				<path class="st16" d="M244.27,212.44c-0.06,1.5,0.09,5.06,0.44,10.69c0.34,5.63,0.34,9.19,0,10.69c-0.12,0.92-0.99,1.6-2.6,2.04
					c-1.62,0.43-3.26,0.62-4.93,0.56c-1.68-0.06-2.68-0.26-3.03-0.61c-0.63-0.52-0.98-1.73-1.04-3.64c-0.06-1.91,0.02-4.17,0.21-6.8
					c0.2-2.63,0.28-4.37,0.22-5.24c-0.29-7.45-0.32-15.3-0.09-23.55c0.29-10.74,0.64-18.33,1.04-22.77
					c0.23-1.96,0.73-3.06,1.51-3.29c0.78-0.23,2.36,0,4.72,0.69c0.8,0.17,1.48,0.66,2.03,1.47c0.54,0.81,0.94,1.73,1.17,2.77
					c0.23,1.04,0.4,2.28,0.52,3.72c0.12,1.44,0.16,2.71,0.13,3.81c-0.03,1.1-0.08,2.32-0.13,3.68c-0.06,1.36-0.09,2.27-0.09,2.73
					C244.42,192.59,244.39,200.26,244.27,212.44z"/>
				<path class="st16" d="M278.47,233.31c0.58,0.81,0.23,1.85-1.04,3.12c-1.27,1.27-2.54,1.96-3.81,2.08
					c-1.56,0.11-4.07,0.06-7.53-0.17c-3.46-0.23-6.87-0.64-10.22-1.21c-3.35-0.58-5.28-1.21-5.8-1.9c-0.29-0.4-0.48-0.89-0.56-1.47
					c-0.09-0.57-0.07-1.18,0.04-1.82c0.12-0.64,0.26-1.24,0.44-1.82c0.18-0.58,0.36-1.21,0.56-1.9c0.2-0.69,0.36-1.18,0.48-1.47
					c0.35-1.5,0.89-3.92,1.64-7.27c0.74-3.35,1.34-5.92,1.77-7.71c0.44-1.79,1.04-4.18,1.82-7.19c0.78-3,1.5-5.55,2.17-7.66
					c0.66-2.11,1.44-4.46,2.34-7.06c0.89-2.6,1.87-5.05,2.95-7.36c1.06-2.31,2.18-4.56,3.33-6.75c-0.92,0.06-2.22,0.25-3.9,0.56
					c-1.67,0.32-3.12,0.58-4.33,0.78c-1.21,0.2-2.55,0.27-4.03,0.21c-1.47-0.06-2.73-0.32-3.77-0.78c-0.58-0.23-0.93-1.04-1.04-2.42
					c-0.12-1.39,0-2.19,0.34-2.42c0.46-0.35,1.66-0.75,3.59-1.21c1.93-0.46,4.01-0.85,6.23-1.17c2.22-0.32,4.09-0.5,5.58-0.56
					c5.49-0.34,9.41,0.38,11.78,2.16c0.63,0.46,1.07,0.98,1.3,1.56c0.23,0.58,0.34,1.16,0.34,1.73c0,0.58-0.12,1.24-0.34,1.99
					c-0.23,0.75-0.46,1.4-0.69,1.95c-0.23,0.55-0.54,1.2-0.91,1.95c-0.38,0.75-0.65,1.3-0.82,1.64c-2.19,5.54-4.13,10.94-5.8,16.19
					c-2.19,6.93-5.02,17.98-8.49,33.16c0.75,0.12,2.43,0.19,5.02,0.22c2.6,0.03,4.92,0.19,6.97,0.48
					C276.15,232.04,277.61,232.56,278.47,233.31z"/>
				<path class="st16" d="M314.14,191.66c0.23,2.48,0.74,7.3,1.52,14.46c0.78,7.16,1.41,13.41,1.91,18.75
					c0.49,5.34,0.62,8.47,0.39,9.39c-0.17,0.87-1.85,1.5-5.02,1.91c-3.18,0.41-4.88,0.26-5.11-0.43c-0.29-0.75-0.54-1.69-0.78-2.81
					c-0.23-1.13-0.39-2.17-0.48-3.12c-0.09-0.95-0.21-1.96-0.35-3.03c-0.14-1.07-0.27-1.83-0.39-2.29
					c-0.18-1.21-0.38-2.12-0.61-2.73c-0.23-0.61-0.54-1.05-0.91-1.34c-0.38-0.29-0.91-0.49-1.6-0.61c-0.06,0-0.34-0.06-0.87-0.17
					c-0.52-0.12-1.01-0.22-1.47-0.3c-0.46-0.09-1.05-0.19-1.78-0.3c-0.72-0.12-1.27-0.17-1.64-0.17c-0.38,0-0.77,0.06-1.17,0.17
					c-1.04,0.35-1.76,1.13-2.16,2.34c-0.23,0.75-0.75,2.91-1.56,6.49c-0.81,3.58-1.59,5.97-2.34,7.19
					c-0.34,0.63-1.29,1.02-2.85,1.17c-1.56,0.15-3.08,0.01-4.54-0.39c-1.47-0.4-2.24-0.98-2.29-1.73c-0.06-1.04,0.03-2.32,0.26-3.85
					c0.23-1.53,0.56-3.16,1-4.89c0.43-1.73,0.84-3.23,1.21-4.5c0.38-1.27,0.81-2.71,1.29-4.33c0.49-1.62,0.77-2.54,0.82-2.77
					c3.29-11.14,6.81-21.93,10.57-32.38c0.06-0.17,0.42-1.27,1.08-3.29c0.66-2.02,1.3-3.77,1.91-5.24c0.61-1.47,1.28-2.76,2.03-3.85
					c1.04-1.1,2.87-1.49,5.5-1.17c2.63,0.32,4.17,0.79,4.63,1.43c0.87,1.33,1.57,3.1,2.12,5.32c0.55,2.22,0.89,4.16,1.04,5.8
					c0.14,1.65,0.29,3.81,0.43,6.49C314.07,189.54,314.14,191.14,314.14,191.66z M299,211.75c1.27,0.06,2.54,0.12,3.8,0.17
					c0.29,0.06,0.51-0.01,0.65-0.22c0.14-0.2,0.22-0.45,0.22-0.74c-0.52-4.1-1.04-9.87-1.55-17.32c0-0.17-0.09-0.27-0.26-0.3
					c-0.17-0.03-0.29,0.04-0.35,0.22c-0.52,1.91-1.27,4.78-2.25,8.62c-0.98,3.84-1.67,6.51-2.08,8.01c-0.29,0.98-0.29,1.47,0,1.47
					c0.35,0.06,0.65,0.09,0.91,0.09C298.34,211.75,298.64,211.75,299,211.75z"/>
				<path class="st16" d="M354.93,230.89c1.33,0.63,1.86,1.31,1.6,2.03c-0.25,0.72-0.78,1.34-1.55,1.86
					c-0.78,0.52-1.6,0.89-2.47,1.12c-1.73,0.41-5.53,0.41-11.39,0c-5.86-0.4-9.62-0.92-11.29-1.56c-1.73-0.63-2.84-1.47-3.34-2.51
					c-0.49-1.04-0.85-2.68-1.08-4.94c0-0.29-0.03-0.49-0.08-0.61c-1.33-12.29-2.08-20.61-2.25-24.93c0-0.81-0.09-2.84-0.26-6.11
					c-0.17-3.26-0.27-5.66-0.3-7.19c-0.03-1.53,0-3.53,0.09-6.02c0.09-2.48,0.3-4.71,0.65-6.67c0.23-1.39,0.79-2.48,1.69-3.29
					c0.89-0.81,1.86-1.3,2.9-1.47c3.12-0.63,5.16-0.26,6.15,1.12c0.58,0.81,0.89,1.92,0.95,3.33c0.05,1.42-0.02,3.1-0.22,5.06
					c-0.2,1.96-0.3,3.15-0.3,3.55c-0.06,3.93-0.06,8.46,0,13.59c0.06,9.87,0.4,19.05,1.04,27.53c0.17,1.9,0.4,3.02,0.69,3.33
					c0.29,0.32,1.38,0.59,3.29,0.82c1.56,0.12,3.58,0.26,6.06,0.43c0.35,0,0.94,0.03,1.78,0.08c0.83,0.06,1.52,0.1,2.07,0.13
					c0.55,0.03,1.19,0.09,1.91,0.17c0.72,0.09,1.39,0.22,1.99,0.39C353.84,230.36,354.41,230.6,354.93,230.89z"/>
				<path class="st16" d="M382.55,170.45c2.25-0.17,4.13,0.46,5.63,1.91c1.5,1.38,1.27,2.63-0.7,3.72l-1.04,0.43
					c-1.04,0.35-2.28,0.59-3.72,0.74c-1.44,0.15-2.7,0.19-3.77,0.13c-1.07-0.06-2.5-0.16-4.29-0.3c-1.79-0.15-2.97-0.22-3.54-0.22
					c-0.06,3.52,0.04,7.19,0.3,11c0.26,3.81,0.63,8.23,1.12,13.25c0.49,5.02,0.82,8.69,1,11c0.11,1.62,0.34,4.32,0.69,8.1
					c0.34,3.78,0.57,6.71,0.69,8.79c0.23,2.6,0.32,4.1,0.26,4.5c0,0.46-0.51,0.95-1.52,1.47c-1.01,0.52-2.15,0.89-3.42,1.12
					c-1.27,0.23-2.48,0.29-3.64,0.17c-1.15-0.11-1.88-0.46-2.16-1.04c-0.87-1.73-1.42-4.14-1.65-7.23
					c-0.23-3.09-0.27-6.33-0.13-9.74c0.14-3.4,0.19-5.48,0.13-6.23c-0.06-0.4-0.11-1.04-0.18-1.9c-1.21-15.47-1.64-26.75-1.3-33.86
					c-0.4,0-1.93-0.01-4.59-0.04c-2.65-0.03-4.88-0.12-6.67-0.26c-1.79-0.14-2.92-0.45-3.37-0.91c-0.75-0.69-0.68-2.01,0.21-3.94
					c0.89-1.93,1.97-2.93,3.24-2.99c3.46-0.17,8.82,0.23,16.06,1.21C373.47,170.31,378.91,170.68,382.55,170.45z"/>
				<path class="st16" d="M402.55,212.44c-0.06,1.5,0.08,5.06,0.43,10.69c0.35,5.63,0.35,9.19,0,10.69c-0.11,0.92-0.98,1.6-2.6,2.04
					c-1.62,0.43-3.26,0.62-4.94,0.56c-1.67-0.06-2.68-0.26-3.04-0.61c-0.63-0.52-0.97-1.73-1.03-3.64c-0.06-1.91,0.01-4.17,0.21-6.8
					c0.2-2.63,0.27-4.37,0.21-5.24c-0.29-7.45-0.32-15.3-0.08-23.55c0.29-10.74,0.63-18.33,1.04-22.77
					c0.23-1.96,0.73-3.06,1.51-3.29c0.78-0.23,2.35,0,4.72,0.69c0.8,0.17,1.48,0.66,2.04,1.47c0.55,0.81,0.94,1.73,1.17,2.77
					c0.23,1.04,0.4,2.28,0.52,3.72c0.11,1.44,0.16,2.71,0.12,3.81c-0.03,1.1-0.07,2.32-0.12,3.68c-0.06,1.36-0.09,2.27-0.09,2.73
					C402.69,192.59,402.67,200.26,402.55,212.44z"/>
			</g>
		</g>
		<path class="st16" d="M244.38,163.19c0,2.59-2.09,4.69-4.68,4.69c-2.59,0-4.69-2.1-4.69-4.69c0-2.59,2.1-4.68,4.69-4.68
			C242.28,158.5,244.38,160.6,244.38,163.19z"/>
		<g>
			<text transform="matrix(1 0 0 1 126.2834 278.8357)" class="st17 st18 st19">International </text>
			<g>
				<text transform="matrix(1 0 0 1 126.2834 278.8357)" class="st16 st18 st19">International </text>
			</g>
		</g>
		<g>
			<text transform="matrix(1 0 0 1 199.613 374.6609)" class="st17 st18 st20">atasehir</text>
			<g>
				<text transform="matrix(1 0 0 1 199.613 374.6609)" class="st16 st18 st20">atasehir</text>
			</g>
		</g>
		<line class="st21" x1="185.01" y1="369.82" x2="196.11" y2="369.82"/>
		<line class="st21" x1="303.32" y1="369.82" x2="314.42" y2="369.82"/>
	</g>
</g>
</svg>
