<?xml version="1.0" encoding="utf-8"?>
<!-- Generator: Adobe Illustrator 24.3.0, SVG Export Plug-In . SVG Version: 6.00 Build 0)  -->
<svg version="1.1" id="katman_1" xmlns="http://www.w3.org/2000/svg" xmlns:xlink="http://www.w3.org/1999/xlink" x="0px" y="0px"
	 viewBox="0 0 139 168" style="enable-background:new 0 0 139 168;" xml:space="preserve">
<style type="text/css">
	.st0{fill:#FFFFFF;}
	.st1{fill:#D38010;}
	.st2{fill:#FFD700;}
	.st3{fill:#F6A500;}
	.st4{fill:#C6C6C5;}
	.st5{fill:#6F6F6E;}
	.st6{fill:#FBD72F;}
	.st7{fill:#F8FAFD;}
	.st8{fill:#ADBBE0;}
	.st9{fill:#D5DFF2;}
	.st10{fill:#BAC8E5;}
	.st11{opacity:0.5;}
	.st12{fill:#FFE300;}
	.st13{opacity:0.25;}
	.st14{fill:#8EC26B;}
	.st15{fill:#F6D716;}
	.st16{fill:#7EC4A6;}
	.st17{fill:none;stroke:#7EC4A6;stroke-width:2;stroke-linecap:round;stroke-miterlimit:10;}
	.st18{fill:#DA611E;}
	.st19{fill:#FBCFA8;}
	.st20{fill:#F6AD74;}
	.st21{fill:#C74E1E;}
	.st22{fill:#B2421C;}
	.st23{opacity:0.4;fill:#904B3F;}
	.st24{fill:#2B2523;}
	.st25{opacity:0.4;}
	.st26{fill:#944C17;}
	.st27{fill:#F1C36B;}
	.st28{fill:#E28F5E;}
	.st29{fill:#D66A39;}
	.st30{fill:#F9C292;}
	.st31{fill:#FFF0C1;}
	.st32{fill:#FFFBF2;}
	.st33{fill:#FFF5D9;}
	.st34{fill:#964C30;}
	.st35{fill:#3D1B16;}
	.st36{fill:#FCD9B4;}
	.st37{fill:#E18444;}
	.st38{fill:#F4A264;}
	.st39{fill:#FCDDBD;}
	.st40{fill:#DA5D27;}
	.st41{fill:#E7C400;}
	.st42{fill:#349ED8;}
	.st43{fill:#164290;}
	.st44{opacity:0.4;fill:#8F8E8F;}
	.st45{opacity:0.3;}
	.st46{opacity:0.3;fill:#FFFFFF;}
	.st47{opacity:0.5;fill:#B0AFB2;}
	.st48{fill:#8E3B29;}
	.st49{opacity:0.6;fill:#FCDDBD;}
	.st50{fill:#F5F5F5;}
	.st51{fill:#ECECEC;}
	.st52{clip-path:url(#SVGID_2_);}
	.st53{fill:#79837A;}
	.st54{fill:#95A095;}
	.st55{fill:#DEDDC4;}
	.st56{fill:#3A3F39;}
	.st57{fill:#ADB7AF;}
	.st58{fill:#00944E;}
	.st59{fill:#F4A36E;}
	.st60{fill:#535B54;}
	.st61{clip-path:url(#SVGID_4_);}
	.st62{fill:#EEE7E0;}
	.st63{fill:#5D4B3E;}
	.st64{fill:#C09977;}
	.st65{fill:#EAE0CF;}
	.st66{fill:#E55F3B;}
	.st67{fill:#473C34;}
	.st68{fill:#D9C6A9;}
	.st69{opacity:0.88;fill:#FFFFFF;}
	.st70{opacity:0.2;fill:#FFFFFF;}
	.st71{fill:#B68E6E;}
	.st72{fill:#A67D60;}
	.st73{fill:#E3D1B8;}
	.st74{clip-path:url(#SVGID_6_);}
	.st75{fill-rule:evenodd;clip-rule:evenodd;fill:#FCC444;}
	.st76{fill-rule:evenodd;clip-rule:evenodd;fill:#ECECEC;}
	.st77{fill-rule:evenodd;clip-rule:evenodd;fill:#12100B;}
	.st78{fill-rule:evenodd;clip-rule:evenodd;fill:#12110B;}
	.st79{fill:#EEC600;}
	.st80{fill:#5F348A;}
	.st81{fill:none;stroke:#5F348A;stroke-width:2;stroke-miterlimit:10;}
	.st82{fill:#7C4D99;}
	.st83{fill:none;stroke:#7C4D99;stroke-width:2;stroke-miterlimit:10;}
	.st84{fill:none;stroke:#5F348A;stroke-width:1.5;stroke-linecap:round;stroke-linejoin:round;stroke-miterlimit:10;}
	.st85{opacity:0.2;}
	.st86{opacity:0.6;}
	.st87{fill:#B2D9C5;}
	.st88{fill:#B1B1B1;}
	.st89{opacity:0.6;fill:#B2D9C5;}
	.st90{opacity:0.44;fill:#FFD700;}
	.st91{opacity:0.6;fill:#FFD700;}
	.st92{opacity:0.49;}
	.st93{clip-path:url(#SVGID_8_);}
	.st94{opacity:0.5;fill:#FFD700;}
	.st95{clip-path:url(#SVGID_10_);fill:#FFD700;}
	.st96{clip-path:url(#SVGID_12_);fill:#FFD700;}
	.st97{fill-rule:evenodd;clip-rule:evenodd;fill:#FFD700;}
	.st98{fill:#6EAD8E;}
	.st99{opacity:0.5;fill:#7EC4A6;}
</style>
<g>
	<g>
		<g>
			<path class="st16" d="M128.9,57.6c-3.13-0.94-6.56-0.73-9.77-0.46c-3.74,0.32-7.44,0.95-11.13,1.61
				c-8.27,1.48-17.09,2.06-24.99,5.11c-0.47-5.48,1.2-10.99,1.73-16.42c0.58-6.06-0.62-12.25-2.3-18.05
				c-0.17-0.62-0.92-0.88-1.42-0.42c-4.91,4.55-8.25,10.41-12.45,15.55c-2.17,2.66-4.49,5.18-6.61,7.88
				c-1.99,2.53-3.88,5.13-5.76,7.74c-4.9-3.08-11.52-2.45-16.95-4.05c-3.11-0.92-6.17-2.01-9.33-2.8c-2.43-0.6-5.15-1.15-7.63-0.46
				c-0.58,0.16-0.76,0.71-0.55,1.23c3.45,8.65,9.33,16.05,12.96,24.61c-1.29,2.77-3.23,5.18-5.17,7.53
				c-2.06,2.5-4.02,5.04-5.86,7.72c-3.84,5.61-7.17,11.55-10.24,17.61c-0.28,0.56,0.01,1.28,0.69,1.3
				c14.2,0.45,25.14-10.66,38.68-12.98c0.79,2.77,2.65,5.13,4.56,7.25c2.58,2.87,5.59,5.35,8.47,7.91
				c6.44,5.72,11.92,12.32,19.29,16.96c0.47,0.3,1.09,0.04,1.26-0.48c2.82-8.26,3.63-17.07,4.06-25.74c0.2-4,0.17-7.94-0.09-11.93
				c2.72-1.81,5.39-3.7,8.05-5.61c4.53-3.22,9.13-6.32,13.69-9.48c7.16-4.97,15.27-11.1,17.38-20.06
				C129.57,58.23,129.37,57.75,128.9,57.6z"/>
			<path class="st98" d="M118.26,64.15c-2.13,0.04-4.25-0.37-6.38-0.07c-2.46,0.34-4.88,0.83-7.29,1.4
				c-4.48,1.07-8.88,2.47-13.31,3.72c-8.93,2.52-18.27,1.33-27.29,3.12c2.97-5.38,5.82-10.86,8.57-16.36
				c1.56-3.13,2.96-6.35,4.33-9.58c0.75-1.73,1.45-3.48,2.14-5.23c0.68-1.75,0.72-3.66,1.28-5.44c0.15-0.49-0.61-0.87-0.84-0.38
				c-0.68,1.51-1.71,2.76-2.5,4.21c-0.89,1.65-1.59,3.4-2.39,5.1c-1.54,3.23-3.22,6.39-4.84,9.58C66.82,60,63.63,65.58,60.4,71.16
				c0,0,0,0.01-0.01,0.01c-0.35,0.16-0.7,0.37-1.04,0.61c-4.61-1.25-8.64-4.22-12.83-6.44C40.99,62.42,35,60.42,29.46,57.5
				c-0.71-0.37-1.32,0.6-0.66,1.06c5.12,3.59,10.75,6.21,16.13,9.37c3.79,2.22,7.27,5.01,11.32,6.63c-0.15,0.13-0.29,0.25-0.44,0.37
				c-1.72,1.41-3.59,2.66-5.44,3.9c-3.5,2.33-7.12,4.56-10.22,7.42c-3.61,3.34-7.17,6.7-10.68,10.15
				c-3.66,3.58-6.98,7.42-10.5,11.12c-0.18,0.18,0.08,0.44,0.26,0.28c3.64-3.25,7.7-6.07,11.53-9.09c4.05-3.19,8.1-6.34,12.04-9.67
				c3.22-2.72,7-4.81,10.54-7.08c1.88-1.2,3.72-2.48,5.49-3.83c0.66-0.51,1.37-1.05,2.03-1.64c2.89,7.25,4.19,15.03,7.89,21.97
				c4.35,8.15,8.11,16.7,11.85,25.15c0.56,1.27,2.39,0.22,1.88-1.03c-3.43-8.38-7.4-16.58-10.66-25.02
				c-0.79-2.03-1.68-4.01-2.35-6.08c-0.69-2.14-1.21-4.33-1.78-6.49c-0.66-2.48-1.28-5.08-2.15-7.56c8.4-1.92,17.18-1.24,25.51-3.61
				c4.45-1.26,8.72-3.24,13.1-4.72c2.16-0.73,4.34-1.37,6.56-1.94c2.45-0.62,4.98-1.64,7.49-1.84
				C118.93,65.25,119.01,64.14,118.26,64.15z"/>
		</g>
		<path class="st99" d="M128.9,57.6c-3.13-0.94-6.56-0.73-9.77-0.46c-1.57,0.14-3.13,0.33-4.69,0.55
			c-3.45,14.93-21.6,29.48-45.78,35.17c-16.13,3.79-31.61,2.86-43.03-1.68c-0.66,0.9-1.32,1.8-1.95,2.73
			c-3.84,5.61-7.17,11.55-10.24,17.61c-0.28,0.56,0.01,1.28,0.69,1.3c14.2,0.45,25.14-10.66,38.68-12.98
			c0.79,2.77,2.65,5.13,4.56,7.25c2.58,2.87,5.59,5.35,8.47,7.91c6.44,5.72,11.92,12.32,19.29,16.96c0.47,0.3,1.09,0.04,1.26-0.48
			c2.82-8.26,3.63-17.07,4.06-25.74c0.2-4,0.17-7.94-0.09-11.93c2.72-1.81,5.39-3.7,8.05-5.61c4.53-3.22,9.13-6.32,13.69-9.48
			c7.16-4.97,15.27-11.1,17.38-20.06C129.57,58.23,129.37,57.75,128.9,57.6z"/>
	</g>
</g>
</svg>
